<?xml version="1.0" encoding="UTF-8"?>
<svg width="206px" height="36px" viewBox="0 0 206 36" version="1.1" xmlns="http://www.w3.org/2000/svg" xmlns:xlink="http://www.w3.org/1999/xlink">
    <!-- Generator: Sketch 63.1 (92452) - https://sketch.com -->
    <title>Comparisons/Logos/Clickfunnels</title>
    <desc>Created with Sketch.</desc>
    <g id="Comparisons" stroke="none" stroke-width="1" fill="none" fill-rule="evenodd">
        <g id="Comparisons/Logos/Clickfunnels" fill="#FFFFFF">
            <path d="M40.5968468,1.81188398e-13 C42.191723,0.522191441 42.7227297,1.64660811 42.7158377,3.28370495 C42.6740135,12.9413468 42.693964,22.5992207 42.6921081,32.2568626 C42.6916441,34.8344144 41.984795,35.5665495 39.3833491,35.5691014 C28.1804752,35.5800045 16.9776014,35.5725811 5.77472748,35.5818604 C5.24163288,35.5820923 4.70853829,35.6753491 4.17567568,35.7252252 L2.5518018,35.7252252 C1.35222297,35.4556622 0.450740991,34.8221194 -5.68434189e-14,33.6373874 L-5.68434189e-14,2.08783784 C0.361891892,1.05760586 1.08451577,0.38856982 2.08783784,1.81188398e-13 L40.5968468,1.81188398e-13 Z M38.9868919,7.71673688 C38.020455,7.79668243 36.8960383,7.75863739 36.1358333,8.24672748 C31.2484369,11.3845158 28.8852365,17.6979054 30.308214,23.5030225 C31.2317342,27.2699459 33.4392748,30.0959505 36.7556892,32.0619977 C38.4222477,33.049777 39.4970203,32.4941802 39.4972523,30.6895923 C39.4981802,27.1326126 39.4974842,23.5756329 39.4965563,20.0186532 C39.4965563,16.2682005 39.5109392,12.5177477 39.474286,8.76775901 C39.4705743,8.39844369 39.126777,7.70528153 38.9868919,7.71673688 Z M3.34541216,7.51227252 C3.28834459,8.02866441 3.24171622,8.25484685 3.24171622,8.48126126 C3.23730856,16.1259955 3.23382883,23.7704977 3.24125225,31.415232 C3.24241216,32.3765653 3.64768468,32.6496081 4.67211712,32.3517432 C5.0662545,32.2371441 5.43649775,31.9877635 5.77519144,31.7418626 C13.9295901,25.8184347 13.4377883,13.3686577 4.83752027,8.10591441 C4.43572748,7.8602455 3.95158108,7.74889414 3.34541216,7.51227252 Z M25.1517185,7.74286261 L12.2444429,7.74286261 C12.2377455,9.65184234 13.3591464,10.5809302 15.179045,10.1751937 C16.2264437,9.94158784 16.9388604,10.2904887 17.368723,11.1968423 C17.8222477,12.153536 17.6471014,13.0438829 16.7221892,13.6298694 C15.7084279,14.2722275 15.3026914,15.1604865 15.5555518,16.2925586 C15.8067883,17.4188311 16.6463311,17.9115608 17.7470856,18.0412387 C18.8390248,18.1699887 19.4405541,18.8311374 19.4310428,19.8991824 C19.4224595,20.8725788 18.8186104,21.4604212 17.8507815,21.6014662 C16.699223,21.7691892 15.874991,22.3236261 15.6729347,23.5132297 C15.4796937,24.6522613 16.0501374,25.4062027 17.033045,25.9506644 C17.9280315,26.4466419 18.244223,27.2576509 17.8633086,28.2199122 C17.4893536,29.1647748 16.7922477,29.5538086 15.733714,29.3195068 C14.5471261,29.0569032 13.466786,29.6092523 12.9253401,30.642964 C12.3242748,31.7912748 12.6683041,32.4102027 13.9339977,32.4129865 C17.4905135,32.4206419 21.0467973,32.4176431 24.6033131,32.4118266 C24.8907387,32.4113626 25.1781644,32.354991 25.4839167,32.3227455 C24.8840113,30.4826644 24.9788919,30.5536509 26.0910135,29.0627027 C26.5211081,28.4859955 26.7236284,27.3771216 26.4612568,26.7479865 C26.1995811,26.1207072 25.2630698,25.4860045 24.5552928,25.3987793 C23.3854077,25.2547185 22.3790698,25.1510225 22.0842207,23.8175901 C21.8589662,22.7998851 22.4080676,22.1456959 23.8549392,21.5214324 C24.6910023,21.1604685 25.3027387,20.5791216 25.2639977,19.5978378 C25.2266486,18.6453198 24.8397027,17.8586689 23.8623626,17.5366779 C22.7678716,17.1761779 22.1415203,16.4957748 22.3027477,15.3006036 C22.4447207,14.2471734 23.1599212,13.814295 24.6453018,13.7915608 C25.6892207,13.7753221 26.3870225,13.2262207 26.8201329,12.321027 C27.2481396,11.4265045 27.0936396,10.6410135 26.4464099,9.85923423 C25.9553041,9.26605631 25.6277455,8.53763288 25.1517185,7.74286261 Z M89.3275155,15.0929101 C89.9733534,15.6951354 90.1765696,16.4012885 89.7406755,17.1763403 C89.2760155,18.0019642 88.5294975,18.02957 87.7231282,17.7170903 C87.2556845,17.5359124 86.7998399,17.3004507 86.3156935,17.1911872 C84.1118646,16.6938178 82.6612813,17.8326173 82.5956304,20.0795948 C82.5856552,20.4268718 82.5942385,20.7748448 82.5933106,21.1225858 C82.5923827,21.3158268 82.5909908,21.5090678 82.5923827,21.7020768 C82.6123331,24.4454957 84.2055854,25.62582 86.8617791,24.854248 C87.2684435,24.7361691 87.6662926,24.4315768 88.0560223,24.4512953 C88.5861011,24.4777412 89.3272836,24.5798133 89.5692408,24.931034 C89.8483151,25.3365385 89.8775448,26.141284 89.6573939,26.6017682 C89.4203083,27.0979777 88.8250426,27.5206489 88.2896282,27.7609822 C83.6704029,29.8353651 79.3089097,27.0520453 79.3024142,22.0175723 C79.3007903,20.5595655 79.2597295,19.0389236 79.6355403,17.6551511 C80.6502295,13.9193133 86.4813286,12.4395002 89.3275155,15.0929101 Z M59.3827014,14.2275477 C59.9807509,14.4470027 60.6964153,14.7759532 60.9921923,15.2721626 C61.3086158,15.8031694 61.4106878,16.6670703 61.2102554,17.249345 C60.9529874,17.996791 60.1494018,17.9984149 59.413555,17.7657369 C58.6484784,17.5235477 57.8796901,17.1829982 57.0962869,17.1310342 C55.4011946,17.018523 54.3883613,17.9213968 54.2097351,19.60605 C54.120886,20.4462887 54.1324851,21.3034622 54.1709941,22.1497324 C54.263091,24.1863023 55.3738207,25.1968158 57.3946158,25.0256131 C58.0710752,24.9683135 58.7354716,24.7054779 59.3919806,24.4948383 C60.1257396,24.2598405 60.7885122,24.2937099 61.2450527,24.9757369 C61.7210797,25.6872257 61.5800347,26.4186649 61.0000797,26.9763495 C60.5966631,27.3644554 60.0777194,27.6896941 59.5518162,27.8836311 C54.8054649,29.6334712 50.8951766,26.9408563 50.8457644,21.9163586 C50.8427486,21.6075905 50.8453005,21.2988225 50.8459964,20.9900545 C50.8466923,20.6812865 50.8422847,20.3725185 50.8473883,20.0637505 C50.9271901,15.2371333 54.8272712,12.5544937 59.3827014,14.2275477 Z M205.102021,15.10038 C206.031805,16.361434 205.183679,17.5273755 203.759541,17.3250872 C202.897032,17.2026007 202.075352,16.7906007 201.212843,16.67113 C200.40021,16.5586187 199.639077,16.8460444 199.430525,17.7797718 C199.207823,18.7765984 200.009784,19.0071885 200.687404,19.283943 C201.115411,19.4586255 201.5578,19.6101097 202.005757,19.7242448 C204.52485,20.365675 206.453084,22.5743755 205.874289,24.7891074 C205.709814,25.4180106 205.343282,26.0473777 204.730618,26.6414836 C202.475985,28.8283777 198.704886,29.0086277 196.283458,26.9952561 C195.6411,26.4610016 195.326068,25.8191074 195.880041,25.0851164 C196.404089,24.3910264 197.168469,24.3325669 197.838897,24.8185691 C199.102271,25.734666 201.07203,26.2839993 202.315685,25.026657 C202.496863,24.8436232 202.656003,24.6109453 202.649507,24.3536773 C202.645564,24.2086885 202.58896,24.0699633 202.521685,23.9414453 C201.867264,22.6892065 200.319712,22.48947 199.115494,22.0505601 C196.745798,21.1868912 195.798848,19.8270128 196.040573,17.6396547 C196.259332,15.6608484 197.807811,14.0972899 200.041566,13.953693 C201.397965,13.8664678 204.196827,13.8718034 205.102021,15.10038 Z M179.955777,13.8901995 C182.998917,14.180409 185.102993,16.6688797 184.941534,19.7867176 C184.864748,21.2672266 184.349052,21.7864023 182.880374,21.8617964 C182.803356,21.8657401 182.726106,21.8689878 182.648856,21.8689878 C181.761061,21.8696838 179.985471,21.8752514 179.985471,21.8780351 C179.020426,21.8780351 178.054917,21.8972896 177.090336,21.8715396 C176.412716,21.853445 176.235946,22.1819315 176.256825,22.8008595 C176.306469,24.2908797 177.309791,25.4547333 178.903971,25.458909 C180.026532,25.4619248 181.169971,25.1584923 182.265622,24.853668 C182.984302,24.6536995 183.638259,24.4110464 184.111966,25.162436 C184.617919,25.9648617 184.178777,26.6062919 183.534795,27.0405622 C181.235158,28.5908977 178.767102,28.7542131 176.270975,27.622373 C173.959739,26.5742784 172.864552,24.7054315 172.969872,22.1487581 C173.015804,21.0313009 172.930203,19.8994608 173.076816,18.7970824 C173.500647,15.609418 176.432203,13.5540577 179.955777,13.8901995 Z M137.392396,15.8082962 C137.400747,16.9278412 137.39402,18.0476182 137.39402,19.1676273 L137.377085,19.1676273 C137.377085,20.3646543 137.421162,21.5635372 137.368502,22.7580124 C137.225601,25.9802421 135.047986,28.1344268 131.821349,28.2984381 C128.123324,28.4861115 125.580569,26.741607 125.245587,23.4263525 C124.975096,20.7495124 125.08784,18.0306836 125.096191,15.3304133 C125.099207,14.278839 125.828558,13.8561678 126.81077,13.8744944 C127.773727,13.892125 128.342779,14.3894944 128.353914,15.3742579 C128.379896,17.6523209 128.331412,19.9317759 128.393815,22.2084471 C128.448099,24.1858615 129.739078,25.2536745 131.665225,25.0356115 C133.175659,24.8646408 134.060207,23.9193142 134.092916,22.30008 C134.136529,20.1387038 134.101964,17.9754718 134.111707,15.8131678 C134.11797,14.4498097 134.576599,13.8976926 135.6922,13.8693908 C136.850254,13.840161 137.382421,14.4402984 137.392396,15.8082962 Z M95.0304214,9.27030158 C95.9824755,9.31808986 96.5454957,9.79063716 96.5478155,10.7930313 C96.5531511,13.2265223 96.5350565,15.6604773 96.5726376,18.0932723 C96.5782052,18.4502926 96.811811,19.0854592 96.9837097,19.101002 C97.3766872,19.1360313 97.9276444,18.985011 98.1832885,18.7012971 C99.3202322,17.4397791 100.365775,16.0968354 101.463978,14.7998241 C102.251325,13.8695764 103.224025,13.7148444 103.984694,14.3585944 C104.702446,14.9661552 104.65953,15.8655493 103.82973,16.7944052 C102.751014,18.0016394 101.650723,19.1893872 100.452304,20.5031011 C101.830973,22.2237115 103.13564,23.8466574 104.433811,25.474707 C105.262451,26.5139863 105.266858,27.2039007 104.465129,27.8713128 C103.608187,28.5844255 102.705081,28.4310854 101.901032,27.4027092 C100.687766,25.8509818 99.5232164,24.2593534 98.2644822,22.7456709 C97.9758966,22.3986259 97.3889822,22.2998016 96.9394011,22.0866101 C96.8108831,22.4895628 96.5893403,22.8883399 96.5712457,23.2961642 C96.5192818,24.4528264 96.554311,25.6129682 96.5478155,26.7717182 C96.542248,27.7750403 95.975748,28.2445718 95.0271736,28.2949119 C94.0322029,28.3475718 93.3186264,27.7912791 93.3139867,26.8338894 C93.2882367,21.4646664 93.2880047,16.0954435 93.3139867,10.7262205 C93.3186264,9.76999077 94.0305791,9.2197295 95.0304214,9.27030158 Z M150.823828,14.6429115 C152.495722,15.5706074 153.282837,17.0666592 153.391173,18.9125399 C153.467959,20.2211502 153.406019,21.537648 153.406019,22.850666 L153.435481,22.850666 C153.435481,24.125407 153.457983,25.40038 153.428754,26.674425 C153.403932,27.7471097 152.787323,28.3340241 151.755236,28.2945872 C150.751218,28.2563101 150.168943,27.7489655 150.164303,26.7029588 C150.15456,24.4629408 150.186341,22.2219948 150.143889,19.9824408 C150.102364,17.8004182 148.461555,16.6309971 146.354231,17.2213912 C145.128902,17.5644926 144.492576,18.3741097 144.465898,19.8047426 C144.425301,21.9668146 144.45685,24.1305106 144.44154,26.2932786 C144.431564,27.6870264 143.901718,28.309666 142.778461,28.3009429 C141.647085,28.2918034 141.11979,27.6719475 141.112134,26.2870151 C141.100303,24.2400061 141.080817,22.1923011 141.115614,20.1457561 C141.203999,14.8990196 146.196483,12.0753349 150.823828,14.6429115 Z M66.2528709,9.26517477 C67.3540894,9.25148784 67.9157178,9.85672883 67.9185016,11.1439968 C67.9287088,16.2436568 67.9291727,21.3430847 67.9178056,26.4427446 C67.9150218,27.7149338 67.3292673,28.3282941 66.2292088,28.2995284 C65.1606998,28.2716905 64.6405962,27.7054225 64.6331727,26.476382 C64.61763,23.888159 64.6283011,21.2997041 64.6280691,18.7112491 C64.6276052,16.2000441 64.6192538,13.6890712 64.6310849,11.1778662 C64.6373484,9.86160045 65.1484047,9.27886171 66.2528709,9.26517477 Z M122.254505,8.58324054 C123.182432,8.81522252 123.646396,9.27918649 123.646396,10.2071144 C123.646396,11.2900063 122.405061,11.512477 121.558559,11.3670243 C119.636356,11.036682 118.927883,11.7947991 118.863624,13.1618689 C118.849241,13.4646054 118.774775,14.1508081 118.774775,14.1508081 L118.836908,14.1502035 C119.15652,14.1471079 120.613412,14.1331775 120.94891,14.1331775 C121.578509,14.1331775 122.070775,14.6442338 122.123667,15.2587541 C122.183982,15.9611955 121.712363,16.4931302 121.037295,16.611209 C120.961669,16.624432 120.883491,16.6228081 120.806705,16.6299995 C119.832381,16.7216324 119.006757,16.7026099 119.006757,16.7026099 C119.006757,16.7026099 118.858288,17.7940851 118.858056,18.774673 C118.857824,21.3227631 118.866408,23.8710851 118.853185,26.4191752 C118.846457,27.7419365 118.317074,28.328155 117.215624,28.2991572 C116.128788,28.2703914 115.599869,27.6593509 115.594302,26.3614117 C115.582471,23.6203126 115.592678,20.8789815 115.58711,18.1378824 C115.58595,17.6829658 115.549297,17.2282811 115.528419,16.7545739 C115.172791,16.6988982 114.909955,16.6608532 114.648279,16.6163126 C113.896194,16.4887225 113.439189,16.006664 113.439189,15.310718 C113.439189,14.6147721 113.903153,14.1508081 114.674493,14.1577676 C114.874462,14.1596234 115.4057,14.2094995 115.527027,14.1508081 C115.527027,14.1508081 115.578063,13.534664 115.610077,13.0340468 C115.749962,10.8311459 116.966243,9.25923604 118.667135,8.67440946 C119.753971,8.30091847 120.869108,8.23689144 122.254505,8.58324054 Z M167.229478,14.7166586 C168.925034,15.7125572 169.617268,17.2995459 169.715397,19.1728005 C169.78012,20.4060167 169.72746,21.6450324 169.72746,22.8814964 L169.746714,22.8814964 C169.746714,24.1181923 169.767129,25.3551203 169.740683,26.5911203 C169.716325,27.7245842 169.07791,28.3307532 168.011721,28.2996676 C166.990304,28.2697419 166.485975,27.7220324 166.47484,26.5495955 C166.454426,24.3469266 166.508246,22.1428658 166.443291,19.9420527 C166.383439,17.9175459 165.041192,16.8550685 163.049162,17.1346068 C161.577469,17.3410707 160.757644,18.2481203 160.729575,19.8332532 C160.691298,21.9964851 160.722847,24.161109 160.709856,26.3250369 C160.701505,27.6788838 160.21991,28.2671901 159.137018,28.2992036 C157.988939,28.332841 157.393906,27.702314 157.383698,26.3737532 C157.367692,24.2873072 157.34171,22.1997014 157.388338,20.1137194 C157.505489,14.8282419 162.64041,12.020564 167.229478,14.7166586 Z M74.0776464,13.8689394 C75.1217973,13.8715018 75.653964,14.4043644 75.6685788,15.5563869 C75.692009,17.4071392 75.6748423,19.2583554 75.6750743,21.1093396 C75.6753063,22.9218149 75.6894572,24.7342901 75.6702027,26.5465333 C75.6576757,27.709691 75.1459234,28.2662158 74.1330901,28.2993892 C73.0680608,28.3344185 72.4115518,27.7345131 72.4050563,26.6012811 C72.3841779,22.8993126 72.383018,19.1971122 72.4066802,15.4951437 C72.4136396,14.4103959 73.0256081,13.8661662 74.0776464,13.8689394 Z M190.362164,9.26645068 C191.412347,9.3021759 191.88675,9.86287635 191.892317,11.141561 C191.903452,13.6903471 191.895797,16.2393651 191.895565,18.7881511 C191.895565,21.3369372 191.903684,23.8859552 191.892085,26.4345092 C191.886518,27.6999709 191.398196,28.2683268 190.348245,28.2994124 C189.242155,28.3321218 188.624155,27.7141218 188.621371,26.4790498 C188.609076,21.3429687 188.608844,16.2066556 188.621835,11.0703426 C188.624851,9.83921419 189.247491,9.22863761 190.362164,9.26645068 Z M176.387894,19.1995712 L181.775212,19.1995712 C181.750622,17.553659 180.861203,16.7087806 179.215523,16.6493932 C177.54966,16.5893099 176.518732,17.4863842 176.387894,19.1995712 Z M74.0528243,9.03514144 C75.0638018,9.02748604 75.6495563,9.58957838 75.6704347,10.5875649 C75.691545,11.5978464 75.1347883,12.2144545 74.1611599,12.259227 C73.1404392,12.3060874 72.4284865,11.6720806 72.4036644,10.6947405 C72.3779144,9.67146802 73.0024099,9.04302883 74.0528243,9.03514144 Z M37.8181667,2.45692117 C36.9312995,2.56432883 36.4016847,3.10299099 36.4441374,4.01468018 C36.4858941,4.90781081 37.0291959,5.40030856 37.8413649,5.49194144 C38.7697568,5.4705991 39.4696464,4.74356757 39.4473761,3.90820045 C39.4253378,3.09162387 38.6428626,2.35693694 37.8181667,2.45692117 Z M32.277509,2.45947297 C31.3811306,2.56061712 30.8633468,3.1247973 30.9060315,4.01560811 C30.9480203,4.88693243 31.4783311,5.41213964 32.3095225,5.49054955 C33.2395383,5.46665541 33.9234212,4.75331081 33.8983671,3.90959234 C33.873777,3.08118468 33.1117162,2.36505631 32.277509,2.45947297 Z M26.7394032,2.46016892 C25.8441847,2.55899324 25.3057545,3.11459009 25.3489032,4.00957658 C25.3908919,4.87718919 25.9151712,5.44948874 26.8335878,5.47871847 C27.6833378,5.50562838 28.3836914,4.75354279 28.3621171,3.91608784 C28.3407748,3.07932883 27.5842815,2.36714414 26.7394032,2.46016892 Z" id="Combined-Shape"></path>
        </g>
    </g>
</svg>