<?xml version="1.0" encoding="UTF-8"?>
<svg width="206px" height="43px" viewBox="0 0 206 43" version="1.1" xmlns="http://www.w3.org/2000/svg" xmlns:xlink="http://www.w3.org/1999/xlink">
    <!-- Generator: Sketch 63.1 (92452) - https://sketch.com -->
    <title>Comparisons/Logos/GoDaddy</title>
    <desc>Created with Sketch.</desc>
    <g id="Comparisons" stroke="none" stroke-width="1" fill="none" fill-rule="evenodd">
        <g id="Comparisons/Logos/GoDaddy" fill="#FFFFFF">
            <path d="M201.99882,12.970452 L202.590265,12.970452 L202.590265,14.579988 L202.937569,14.579988 L202.937569,12.970452 L203.529014,12.970452 L203.529014,12.6703036 L201.99882,12.6703036 L201.99882,12.970452 Z M205.364989,12.6703036 L204.841298,13.8060395 L204.317608,12.6703036 L203.820311,12.6703036 L203.820311,14.579988 L204.167453,14.579988 L204.167453,13.0879364 L204.72655,14.3710911 L204.95315,14.3710911 L205.494544,13.1292973 L205.494544,14.579988 L205.844583,14.579988 L205.844583,12.6703036 L205.364989,12.6703036 Z M154.983987,29.1734786 C152.70463,29.1565802 151.012533,27.3495739 151.003156,24.9218317 C150.993381,22.4409802 152.680328,20.6431473 155.018267,20.6425035 C157.354114,20.6420208 159.049269,22.4424286 159.04173,24.9163598 C159.034462,27.3733927 157.302292,29.1906989 154.983987,29.1734786 L154.983987,29.1734786 Z M163.868542,10.1030286 C163.869186,9.43385047 163.5935,9.11953953 162.907423,9.13338016 C161.916531,9.15301453 160.924512,9.16090047 159.934264,9.13112703 C159.173351,9.10811297 158.870145,9.44238016 158.87948,10.1849458 C158.899275,11.7870786 158.885434,13.3896942 158.885273,14.9921489 L158.885273,18.0834364 C156.820606,15.9582567 154.41282,15.6067692 151.836372,16.315538 C148.532164,17.224513 146.54024,19.5046755 145.895042,22.804538 C145.184342,26.4385067 146.053244,29.6583833 149.070661,32.0560302 C151.763628,34.1958552 156.266176,34.5745411 158.868053,31.6216598 C158.887848,31.8337755 158.903137,31.9369364 158.906195,32.0404192 C158.940314,33.125138 159.098837,33.2838223 160.180176,33.2888114 C161.064045,33.2926739 161.948397,33.2825348 162.832265,33.2915473 C163.513997,33.2984677 163.8716,33.0314723 163.870476,32.2963098 C163.860334,24.8984958 163.861622,17.5006817 163.868542,10.1030286 L163.868542,10.1030286 Z M174.647653,29.1731567 C172.317922,29.1998723 170.606512,27.408477 170.595189,24.9308442 C170.583981,22.4237598 172.235844,20.6468489 174.583761,20.6412037 C176.917355,20.6357442 178.628281,22.4409802 178.626673,24.9070255 C178.625062,27.313363 176.91478,29.1472458 174.647653,29.1731567 L174.647653,29.1731567 Z M182.235856,9.13869109 C181.379025,9.13675984 180.522194,9.13643797 179.665201,9.13869109 C178.60913,9.14190984 178.481828,9.27098172 178.48054,10.3552177 C178.478287,12.4110333 178.479897,14.4668489 178.479897,16.5226645 L178.479897,18.1645489 C177.502684,17.0172255 176.420701,16.4306083 175.151387,16.1732692 C173.444645,15.8275755 171.793105,16.0099177 170.210606,16.7228708 C165.00122,19.0699833 163.56437,26.4980536 167.398223,30.9135348 C169.94699,33.8488739 175.290759,35.1112677 178.471206,31.6253614 C178.548939,33.2862364 178.55248,33.2896161 180.165234,33.289777 C180.834573,33.289777 181.504073,33.2921911 182.173573,33.2891333 C183.271328,33.2841442 183.446106,33.1161255 183.44852,32.0499145 C183.4519,30.6616677 183.449486,29.2732598 183.449325,27.884852 C183.449325,22.0378317 183.450612,16.1908114 183.448198,10.3437911 C183.447555,9.30912391 183.272937,9.14110516 182.235856,9.13869109 L182.235856,9.13869109 Z M200.640669,16.4946614 C199.81007,16.493213 198.976414,16.539402 198.149678,16.4822692 C197.268706,16.4214348 196.85558,16.7692208 196.633325,17.6278223 C195.64533,21.4468692 194.599075,25.250627 193.535439,29.2021255 C193.41538,28.819577 193.331692,28.5714114 193.259431,28.3197052 C192.227661,24.7322473 191.189614,21.1465598 190.173294,17.5545958 C189.974697,16.8524255 189.65089,16.441552 188.83719,16.4819473 C187.794798,16.5339302 186.747739,16.4875802 185.702933,16.4965927 C184.645412,16.5057661 184.367634,16.8786583 184.689187,17.9131645 C186.185745,22.7253567 187.703386,27.5311114 189.188356,32.3466833 C189.409806,33.0644645 189.844337,33.3277583 190.548922,33.3055489 C191.092086,33.2881677 191.636376,33.3020083 192.278356,33.3020083 C192.111303,33.866577 192.006533,34.2774505 191.868931,34.6767364 C191.392717,36.0574192 190.340347,36.6583598 188.917337,36.2989864 C188.40958,36.1707192 187.928537,35.906138 187.461497,35.6552364 C186.65005,35.2195786 186.302425,35.277677 185.775033,36.0313473 C185.484219,36.4473708 185.207567,36.8732114 184.929467,37.2979255 C184.272198,38.3028192 184.368278,38.7508692 185.374298,39.3922052 C189.79509,42.2100598 195.221742,40.190938 196.684503,35.1857817 C197.514619,32.344913 198.351333,29.5058145 199.181126,26.6647848 C200.033612,23.746988 200.88288,20.8282255 201.730698,17.9091411 C202.078001,16.7132145 201.9095,16.4970755 200.640669,16.4946614 L200.640669,16.4946614 Z M115.809225,27.7979458 C115.097076,28.1354317 114.291101,28.4148192 113.5149,28.4523177 C111.595076,28.5451786 109.667367,28.4828958 107.682847,28.4828958 L107.682847,14.0194427 C109.861619,14.0194427 112.02478,13.7984755 114.122922,14.0723911 C117.100748,14.4612161 118.996753,16.6607489 119.566955,19.8178598 C120.163711,23.1217458 118.618872,26.4665098 115.809225,27.7979458 L115.809225,27.7979458 Z M112.923294,9.15285359 C109.845364,9.08381141 106.764376,9.13740359 103.684837,9.13885203 C102.659022,9.13949578 102.463322,9.32940203 102.462356,10.3452395 C102.459298,13.9495958 102.46123,17.553952 102.46123,21.1583083 C102.46123,24.8160958 102.458976,28.4737223 102.462678,32.1316708 C102.463644,33.0234255 102.68783,33.2992723 103.500242,33.2954098 C106.980194,33.2786723 110.470284,33.3972833 113.937361,33.1705223 C118.480305,32.8734317 122.075648,30.7738411 123.946064,26.5131817 C125.906283,22.047488 125.603881,17.6189708 122.620261,13.6378598 C120.236294,10.4567692 116.790461,9.23992078 112.923294,9.15285359 L112.923294,9.15285359 Z M135.402078,29.141613 C133.075565,29.1214958 131.337119,27.2188927 131.396826,24.7581583 C131.455569,22.3373364 133.220731,20.626088 135.602606,20.6806458 C137.872469,20.7324677 139.505501,22.5583036 139.464945,24.998438 C139.424872,27.4076723 137.704933,29.1615692 135.402078,29.141613 L135.402078,29.141613 Z M144.276011,17.5645739 C144.274562,16.6473911 144.11974,16.5019036 143.190487,16.495788 C142.280386,16.4898333 141.368997,16.5229864 140.460183,16.4859708 C139.669497,16.4537833 139.315595,16.7965802 139.329919,17.5677927 C139.332011,17.687852 139.292903,17.8087161 139.269406,17.9509848 C138.745555,17.5531473 138.300562,17.118777 137.77478,16.8319864 C135.587639,15.6399223 133.336767,15.7664192 131.12967,16.7359067 C127.059561,18.5239223 125.110125,23.2966848 126.546492,27.8125911 C127.67048,31.3466177 130.685965,33.6752223 134.361134,33.7513458 C136.270497,33.7909364 137.987539,33.2199302 139.372406,31.554227 C139.372406,31.8439145 139.370475,31.9390286 139.372728,32.0341427 C139.400409,33.1866161 139.504858,33.2867192 140.693864,33.2892942 C141.523658,33.2912255 142.353773,33.2966973 143.183567,33.2876848 C144.091576,33.2778677 144.272631,33.1022848 144.276494,32.2176114 C144.283092,30.6695536 144.278586,29.1213348 144.278425,27.573438 C144.278425,24.2372036 144.281322,20.9008083 144.276011,17.5645739 L144.276011,17.5645739 Z M41.764778,22.9598427 C40.6839217,25.8956645 39.0785702,28.5306942 37.0419061,30.9059708 C36.9063967,31.0641723 36.7560811,31.2096598 36.6859123,31.2835302 C36.784728,29.5653614 36.9939467,27.7968192 36.9661045,26.0319786 C36.9015686,21.9580067 35.7189998,18.1532833 33.885117,14.5381442 C33.532503,13.8430552 33.1283889,13.742952 32.4468186,14.1667005 C29.4033295,16.0586817 26.3645077,17.9579052 23.3297092,19.863727 C22.5889139,20.3289973 22.5401498,20.6040395 23.0067077,21.372677 C23.3393655,21.9206692 23.680392,22.4633505 24.0249592,23.0041005 C24.5505811,23.829227 24.8246577,23.8964989 25.6473702,23.3850395 C27.5762061,22.1860552 29.5013405,20.9806333 31.5399358,19.7077786 C32.9314014,24.0363536 33.4484936,28.2342473 31.7275889,32.4384177 C30.2556545,36.0339223 26.9921639,38.1525036 23.3963373,37.9643677 C19.5019717,37.7604598 16.4547811,35.2817005 15.2865358,31.3142692 C14.1330967,27.398177 14.5512123,23.5403442 15.9083983,19.7653942 C18.0441998,13.8242255 21.6998952,9.09813484 27.3109811,6.02036609 C29.5492998,4.79273484 31.9572467,4.03310984 34.5390061,4.23492547 C38.6274623,4.55454734 41.4702623,6.97327703 42.6035842,11.0282583 C43.7401248,15.094827 43.1976045,19.0678911 41.764778,22.9598427 L41.764778,22.9598427 Z M10.8427295,31.3932895 C9.39187797,29.8373458 8.20061859,28.1417083 7.20280609,26.3097567 C5.30696234,22.8288395 4.14064828,19.1296911 4.24799359,15.1445567 C4.28983734,13.5918317 4.54138266,11.9913083 5.01453891,10.5134192 C6.52590297,5.79070828 10.720578,3.40207391 15.5890983,4.43191297 C17.0879092,4.74895984 18.5321623,5.32270203 20.1225467,5.81678016 C12.9901186,13.0386895 9.23415922,21.2244536 10.8427295,31.3932895 L10.8427295,31.3932895 Z M38.2928733,0.702991094 C37.4524577,0.402520781 36.5655311,0.231122344 35.7001702,1.609375e-05 L32.0015045,1.609375e-05 C31.4731467,0.132306719 30.9468811,0.274897344 30.4157873,0.395117656 C28.0257045,0.936189531 25.820217,1.91533328 23.7151545,3.21490359 C21.6356811,1.93223172 19.4366311,0.939408281 17.0463873,0.411372344 C16.3530686,0.258159844 15.6526686,0.136330156 14.9554873,1.609375e-05 L11.5785358,1.609375e-05 C11.1039311,0.134559844 10.6306139,0.273287969 10.1547217,0.402842656 C4.99152484,1.80814891 2.02689516,5.31385047 0.642188906,10.3178802 C0.398046719,11.1991739 0.212646719,12.0965614 -0.00011265625,12.9867067 L-0.00011265625,17.9567786 C0.0624920313,18.1172333 0.155513906,18.2726989 0.183356094,18.4389473 C1.70807797,27.5674833 6.25922953,34.737088 14.2665139,39.500677 C20.0451358,42.938463 26.0851202,43.1534755 32.126392,40.0734536 C37.9054967,37.1274927 41.9722264,32.5187255 44.7250623,26.733827 C47.1013045,21.7397755 48.1560889,16.5073755 46.9450342,11.0144177 C45.864017,6.11193953 43.1877873,2.45302547 38.2928733,0.702991094 L38.2928733,0.702991094 Z M92.0411702,29.0759627 C89.6729748,29.0703177 87.9261592,27.2946942 87.9243876,24.8909317 C87.9226186,22.4992395 89.7016217,20.6701848 92.0225014,20.6777255 C94.3105498,20.685313 96.1431452,22.5760067 96.1324097,24.9178083 C96.1215795,27.2428723 94.3124811,29.0814223 92.0411702,29.0759627 L92.0411702,29.0759627 Z M92.0009358,16.0145595 C86.9344623,16.0029973 82.8733655,19.9622208 82.8657913,24.9207052 C82.8583983,29.8053192 86.9227139,33.7545645 91.9779217,33.7745964 C97.0250827,33.794477 101.128023,29.8597161 101.145463,24.9834708 C101.163108,19.9749348 97.1372561,16.0263333 92.0009358,16.0145595 L92.0009358,16.0145595 Z M81.5530342,23.1169177 C81.5543217,22.5179083 81.2643123,22.2082645 80.683167,22.2066552 C77.7896717,22.1974817 74.8958545,22.1978036 72.0021983,22.2052067 C71.3813014,22.2068161 71.0771295,22.5433364 71.0842108,23.1679348 C71.0917748,23.8356645 71.0822795,24.5035552 71.086303,25.1714458 C71.0919358,26.1435083 71.2918202,26.3591645 72.2508467,26.3775114 C73.0669608,26.3929614 73.8837186,26.3805692 74.7004764,26.3805692 C74.433803,26.8759348 74.1148248,27.223077 73.7453123,27.5040739 C70.3456686,30.0888911 63.1538545,29.3941239 62.0390405,22.861188 C61.4516186,19.4201833 62.7885264,16.196927 65.4536514,14.574677 C68.2172702,12.8925583 73.5599123,13.0211473 75.7948514,17.2299848 C76.0515467,17.7134411 76.3405905,18.0901958 76.9893295,17.8309255 C78.1062358,17.3848067 79.2305452,16.9570348 80.3572686,16.5360223 C80.9300452,16.3222973 81.0253202,15.942002 80.7304827,15.4678802 C80.0851233,14.4296723 79.5545123,13.2720489 78.7223045,12.406688 C75.3382717,8.88859422 71.0428498,8.21474891 66.4958827,9.09539891 C60.5939827,10.2382161 56.7308389,14.796288 56.5085842,20.8129364 C56.3202873,25.912563 58.2945077,29.9697973 62.9626608,32.4469473 C66.7213561,34.4416067 73.0564998,34.4398364 77.0984452,30.0938802 C77.0984452,30.951838 77.0932952,31.6425817 77.1000545,32.3333255 C77.1060092,32.9510036 77.433517,33.2740052 78.0476545,33.282052 C78.9049686,33.2929958 79.7626045,33.2989505 80.6195967,33.2804427 C81.2182842,33.2675677 81.5552873,32.9786848 81.5536837,32.3330036 C81.5449873,29.2610286 81.5462748,26.1888927 81.5530342,23.1169177 L81.5530342,23.1169177 Z" id="Fill-1"></path>
        </g>
    </g>
</svg>