<?xml version="1.0" encoding="UTF-8"?>
<svg width="191px" height="40px" viewBox="0 0 191 40" version="1.1" xmlns="http://www.w3.org/2000/svg" xmlns:xlink="http://www.w3.org/1999/xlink">
    <!-- Generator: Sketch 63.1 (92452) - https://sketch.com -->
    <title>Comparisons/Logos/Instapage</title>
    <desc>Created with Sketch.</desc>
    <g id="Comparisons" stroke="none" stroke-width="1" fill="none" fill-rule="evenodd">
        <g id="Comparisons/Logos/Instapage" fill="#FFFFFF" fill-rule="nonzero">
            <path d="M11.3142857,0.857142857 C11.3142857,0.514285714 11.6571429,0.171428571 12,0.285714286 L12,0.285714286 L36.3428571,4.34285714 C36.5714286,4.34285714 36.8,4.57142857 36.8,4.85714286 L36.8,4.85714286 L36.8,34.7428571 C36.8,34.9714286 36.5714286,35.3142857 36.3428571,35.3142857 L36.3428571,35.3142857 L12,39.6 C11.6571429,39.7142857 11.3142857,39.3714286 11.3142857,39.0285714 L11.3142857,39.0285714 Z M123.2,13.8285714 C128.342857,13.8285714 131.942857,17.7714286 131.942857,23.1428571 C131.942857,28.6285714 128.571429,32.5714286 123.428571,32.5714286 C120.057143,32.5714286 118.171429,30.5714286 117.6,29.7714286 L117.6,38.9714286 C117.6,39.3142857 117.371429,39.5428571 117.028571,39.5428571 L114.457143,39.5428571 C114.114286,39.5428571 113.885714,39.3142857 113.885714,38.9714286 L113.885714,15.0285714 C114.057143,14.5714286 114.4,14.3428571 114.685714,14.4571429 L117.028571,14.9142857 C117.257143,15.0285714 117.485714,15.2571429 117.485714,15.4857143 L117.485714,16.6285714 C117.942857,15.9428571 119.714286,13.8285714 123.2,13.8285714 Z M161.028571,13.7714286 C164.4,13.7714286 166.285714,15.7714286 166.857143,16.5714286 L166.857143,14.9142857 C166.857143,14.5714286 167.2,14.2285714 167.542857,14.3428571 L169.885714,14.8 C170.114286,14.9142857 170.342857,15.1428571 170.342857,15.3714286 L170.342857,29.7142857 C170.342857,36.4571429 166.285714,39.4857143 161.028571,39.4857143 C158.914286,39.4857143 156.628571,38.8 155.085714,38 C154.857143,37.8857143 154.628571,37.5428571 154.857143,37.2 L155.485714,35.5428571 C155.6,35.2 155.942857,35.0857143 156.285714,35.2 C157.2,35.6571429 158.971429,36.3428571 161.028571,36.3428571 C164.057143,36.3428571 166.628571,34.4571429 166.628571,30.9714286 L166.628571,29.7142857 C166.171429,30.2857143 164.4,32.5142857 160.914286,32.5142857 C155.771429,32.5142857 152.4,28.5714286 152.4,23.2 C152.4,17.7142857 156,13.7714286 161.028571,13.7714286 Z M6.45714286,3.2 L8.45714286,3.54285714 C8.68571429,3.54285714 8.91428571,3.77142857 8.91428571,4.11428571 L8.91428571,4.11428571 L8.91428571,35.5428571 C8.91428571,35.8857143 8.68571429,36.1142857 8.34285714,36.2285714 L8.34285714,36.2285714 L6.45714286,36.4571429 C6.11428571,36.4571429 5.77142857,36.2285714 5.77142857,35.7714286 L5.77142857,35.7714286 L5.77142857,3.77142857 C5.77142857,3.42857143 6.11428571,3.2 6.45714286,3.2 L6.45714286,3.2 Z M16.1142857,5.31428571 C15.7714286,5.2 15.4285714,5.54285714 15.4285714,5.88571429 L15.4285714,5.88571429 L15.4285714,34.5142857 C15.4285714,34.8571429 15.7714286,35.0857143 16.1142857,35.0857143 L16.1142857,35.0857143 L33.3142857,32.6285714 C33.5428571,32.6285714 33.7714286,32.4 33.7714286,32.0571429 L33.7714286,32.0571429 L33.8857143,32.0571429 L33.8857143,8 C33.8857143,7.77142857 33.6571429,7.42857143 33.3142857,7.42857143 L33.3142857,7.42857143 Z M0.971428571,6.11428571 L2.85714286,6.34285714 C3.2,6.34285714 3.42857143,6.57142857 3.42857143,6.91428571 L3.42857143,6.91428571 L3.42857143,32.6285714 C3.42857143,32.9714286 3.2,33.2 2.85714286,33.2 L2.85714286,33.2 L0.971428571,33.4285714 C0.628571429,33.5428571 0.285714286,33.2 0.285714286,32.8571429 L0.285714286,32.8571429 L0.285714286,6.68571429 C0.285714286,6.34285714 0.628571429,6.11428571 0.971428571,6.11428571 L0.971428571,6.11428571 Z M141.942857,13.9428571 C147.2,13.9428571 149.142857,16.8571429 149.142857,20.6857143 L149.142857,31.7142857 C149.142857,32.0571429 148.914286,32.2857143 148.571429,32.2857143 L146.342857,32.2857143 C146.114286,32.2857143 145.771429,32.0571429 145.771429,31.8285714 L145.542857,30.9142857 C144.628571,31.9428571 143.2,32.6857143 140.914286,32.6857143 C137.085714,32.6857143 134.171429,30.3428571 134.171429,26.7428571 C134.228571,23.2 137.028571,20.7428571 141.2,20.7428571 C143.2,20.7428571 144.8,21.4285714 145.485714,22.1142857 L145.485714,20.4571429 C145.485714,18.4571429 144,17.2 141.657143,17.2 C139.885714,17.2 138.4,17.7714286 137.142857,18.3428571 C136.914286,18.4571429 136.571429,18.3428571 136.342857,18.1142857 L135.428571,16.5142857 C135.314286,16.2857143 135.314286,15.8285714 135.657143,15.7142857 C137.142857,14.8 139.371429,13.9428571 141.942857,13.9428571 Z M103.2,13.9428571 C108.457143,13.9428571 110.4,16.8571429 110.4,20.6857143 L110.4,31.7142857 C110.4,32.0571429 110.171429,32.2857143 109.828571,32.2857143 L107.6,32.2857143 C107.371429,32.2857143 107.028571,32.0571429 107.028571,31.8285714 L106.857143,30.8571429 C105.942857,31.8857143 104.514286,32.6285714 102.228571,32.6285714 C98.4,32.6285714 95.4857143,30.2857143 95.4857143,26.6857143 C95.4857143,23.2 98.3428571,20.7428571 102.457143,20.7428571 C104.457143,20.7428571 106.057143,21.4285714 106.742857,22.1142857 L106.742857,20.4571429 C106.742857,18.4571429 105.257143,17.2 102.914286,17.2 C101.142857,17.2 99.6571429,17.7714286 98.4,18.3428571 C98.1714286,18.4571429 97.7142857,18.3428571 97.6,18.1142857 L96.6857143,16.5142857 C96.5714286,16.2857143 96.5714286,15.8285714 96.9142857,15.7142857 C98.4,14.8 100.628571,13.9428571 103.2,13.9428571 Z M76.2285714,13.9428571 C79.1428571,13.9428571 80.9714286,15.5428571 81.7142857,16.7428571 C81.9428571,16.9714286 81.8285714,17.4285714 81.4857143,17.5428571 L79.8285714,18.6857143 C79.6,18.8 79.2571429,18.8 79.0285714,18.5714286 C78.4571429,17.7714286 77.5428571,16.9714286 75.8857143,16.9714286 C74.5142857,16.9714286 73.5428571,17.6571429 73.5428571,18.8571429 C73.5428571,22.3428571 82.2857143,20.8571429 82.2857143,27.1428571 C82.2857143,30.5142857 79.4857143,32.6285714 75.7714286,32.6285714 C72.5142857,32.6285714 70.6285714,31.0285714 69.6,29.4857143 C69.4857143,29.2571429 69.4857143,28.9142857 69.7142857,28.6857143 L71.3714286,27.6 C71.6,27.3714286 71.9428571,27.4857143 72.1714286,27.7142857 C72.9714286,28.7428571 74.1714286,29.6 76.1142857,29.6 C77.7142857,29.6 78.8,28.8 78.8,27.3714286 C78.8,23.8857143 70.0571429,25.1428571 70.0571429,18.9714286 C70.0571429,15.8285714 72.7428571,13.9428571 76.2285714,13.9428571 Z M181.657143,13.7714286 C187.028571,13.7714286 190.285714,17.4857143 190.285714,23.0857143 L190.285714,23.4285714 L190.285714,23.4285714 C190.285714,23.7714286 190.057143,24 189.714286,24 L176.8,24 C176.914286,27.1428571 179.142857,29.2571429 182.285714,29.2571429 C184.628571,29.2571429 186.114286,28.1142857 186.914286,27.2571429 C187.142857,27.0285714 187.485714,26.9142857 187.714286,27.1428571 L189.314286,28.2857143 C189.542857,28.5142857 189.657143,28.8571429 189.428571,29.0857143 C188.4,30.5714286 186.057143,32.5714286 182.228571,32.5714286 C176.628571,32.5714286 172.914286,28.6285714 172.914286,23.2571429 C172.857143,17.7142857 176.685714,13.7714286 181.657143,13.7714286 Z M86.6285714,10.6285714 L89.2,11.2 C89.4285714,11.2 89.6571429,11.5428571 89.6571429,11.7714286 L89.6571429,14.2285714 L92.6857143,14.2285714 C93.0285714,14.2285714 93.2571429,14.4571429 93.2571429,14.8 L93.2571429,16.6857143 C93.2571429,17.0285714 93.0285714,17.2571429 92.6857143,17.2571429 L89.6571429,17.2571429 L89.6571429,25.5428571 C89.6571429,28.3428571 90.6857143,28.9142857 92.6857143,28.9142857 L93.0285714,28.9142857 L93.0285714,28.9142857 C93.3371429,28.9142857 93.368,29.2845714 93.3710857,29.3586286 L93.3714286,31.6 C93.3714286,31.9428571 93.1428571,32.1714286 92.8,32.1714286 C92.4571429,32.1714286 92,32.2857143 91.4285714,32.2857143 C87.0285714,32.2857143 85.8285714,29.3714286 85.8285714,24.9714286 L85.8285714,17.3142857 L84.3428571,17.3142857 C84,17.3142857 83.7714286,17.0857143 83.7714286,16.7428571 L83.7714286,14.8571429 C83.7714286,14.5142857 84,14.2857143 84.3428571,14.2857143 L85.8285714,14.2857143 L85.8285714,11.2571429 C85.8285714,10.8571429 86.1714286,10.6285714 86.6285714,10.6285714 Z M44.7428571,7.14285714 L47.3142857,7.71428571 C47.5428571,7.71428571 47.7714286,8.05714286 47.7714286,8.28571429 L47.7714286,31.6571429 C47.7714286,32 47.5428571,32.2285714 47.2,32.2285714 L44.6285714,32.2285714 C44.2857143,32.2285714 44.0571429,32 44.0571429,31.6571429 L44.0571429,7.71428571 C43.9428571,7.37142857 44.2857143,7.02857143 44.7428571,7.14285714 Z M60.7428571,13.7714286 C65.4285714,13.7714286 67.0857143,17.4857143 67.0857143,21.4285714 L67.0857143,31.6571429 C67.0857143,32 66.8571429,32.2285714 66.5142857,32.2285714 L63.9428571,32.2285714 C63.6,32.2285714 63.3714286,32 63.3714286,31.6571429 L63.3714286,21.2 C63.3714286,18.7428571 61.7714286,17.2571429 59.7714286,17.2571429 C57.4285714,17.2571429 55.8285714,19.0285714 55.8285714,21.4285714 L55.8285714,31.6571429 C55.8285714,32 55.6,32.2285714 55.2571429,32.2285714 L52.6857143,32.2285714 C52.3428571,32.2285714 52.1142857,32 52.1142857,31.6571429 L52.1142857,14.8 C52.1142857,14.4571429 52.3428571,14.2285714 52.6857143,14.2285714 L55.1428571,14.2285714 C55.4857143,14.2285714 55.7142857,14.4571429 55.7142857,14.8 L55.7142857,16.5714286 C56.5142857,15.0857143 58.4,13.7714286 60.7428571,13.7714286 Z M103.028571,23.4285714 C100.8,23.4285714 99.2,24.8 99.2,26.4571429 C99.2,28.2285714 100.8,29.6 103.028571,29.6 C105.257143,29.6 106.857143,28.3428571 106.857143,26.4571429 C106.857143,24.5714286 105.257143,23.4285714 103.028571,23.4285714 Z M141.885714,23.4285714 C139.657143,23.4285714 138.057143,24.8 138.057143,26.4571429 C138.057143,28.2285714 139.542857,29.6 141.885714,29.6 C144.114286,29.6 145.714286,28.3428571 145.714286,26.4571429 C145.714286,24.5714286 144.114286,23.4285714 141.885714,23.4285714 Z M122.8,17.1428571 C119.542857,17.1428571 117.542857,19.8285714 117.542857,23.2 C117.6,27.0285714 120,29.2571429 122.914286,29.2571429 C126.057143,29.2571429 128.171429,26.8 128.171429,23.2 C128.171429,19.4857143 125.942857,17.1428571 122.8,17.1428571 Z M161.314286,17.1428571 C158.171429,17.1428571 156.057143,19.6 156.057143,23.2 C156.057143,26.9142857 158.285714,29.2571429 161.428571,29.2571429 C164.685714,29.2571429 166.685714,26.6857143 166.685714,23.2 C166.685714,19.4857143 164.457143,17.1428571 161.314286,17.1428571 Z M181.714286,16.9142857 C179.142857,16.9142857 177.085714,18.6857143 176.914286,21.5428571 L186.457143,21.5428571 C186.342857,18.6285714 184.228571,16.9142857 181.714286,16.9142857 Z" id="Combined-Shape"></path>
        </g>
    </g>
</svg>