<?xml version="1.0" encoding="UTF-8"?>
<svg width="206px" height="36px" viewBox="0 0 206 36" version="1.1" xmlns="http://www.w3.org/2000/svg" xmlns:xlink="http://www.w3.org/1999/xlink">
    <!-- Generator: Sketch 63.1 (92452) - https://sketch.com -->
    <title>Comparisons/Logos/Kajabi</title>
    <desc>Created with Sketch.</desc>
    <g id="Comparisons" stroke="none" stroke-width="1" fill="none" fill-rule="evenodd">
        <g id="Comparisons/Logos/Kajabi" fill="#FFFFFF">
            <path d="M21.3348635,21.4772445 C26.0721955,26.2270629 30.7890765,30.9563276 35.497993,35.6776276 L7.12687548,35.6776276 C11.9220149,30.885006 16.6454731,26.1640657 21.3348635,21.4772445 Z M35.4608112,0.0513381392 C23.6549918,11.88583 11.8446506,23.7248951 -1.54153144e-05,35.598285 L-1.54153144e-05,0.0513381392 L35.4608112,0.0513381392 Z M126.321081,4.12721437 C126.33218,4.27181003 126.350986,4.40242913 126.350986,4.53304824 C126.352014,10.508487 126.35222,16.4838744 126.350216,22.4592618 C126.349856,23.6296953 126.198683,24.7797806 125.847214,25.899138 C125.074136,28.3611181 123.498382,30.1024835 121.070933,30.974271 C118.164272,32.0181448 115.232639,31.985824 112.334662,30.8886646 C111.284365,30.4909495 110.360782,29.8793211 109.524245,29.0557836 C110.353537,27.5968781 111.179284,26.1443443 112.03355,24.641608 C112.222901,24.8014648 112.387948,24.9415386 112.553817,25.0807389 C113.435161,25.8203658 114.418093,26.3489569 115.57008,26.5194503 C116.360783,26.6365554 117.147786,26.6041832 117.902006,26.334261 C119.53865,25.748479 120.300886,24.4962929 120.486846,22.8339567 C120.520965,22.5289904 120.510175,22.2183204 120.510123,21.9103224 C120.50925,16.1745918 120.506783,10.4389125 120.504728,4.70323333 L120.504728,4.12721437 L120.504728,4.12721437 L126.321081,4.12721437 Z M65.8084702,4.08824649 C67.7602033,4.11622839 69.712553,4.1000423 71.6646972,4.1000423 L72.2748354,4.1000423 C68.6365126,8.39402983 65.0781953,12.5934701 61.4902292,16.8280573 C65.3045435,21.5951922 69.1079129,26.3485561 72.915239,31.1069557 C72.5502557,31.2399385 68.0132714,31.2900897 65.8569771,31.1885542 C63.1522058,27.6184698 60.42611,24.0200214 57.6612704,20.3706509 C56.9682492,21.1902319 56.3061614,21.952622 55.6746473,22.7395739 C55.5636056,22.8779006 55.5444393,23.118842 55.5437713,23.3126125 C55.5353956,25.7442244 55.5383245,28.1758363 55.5383245,30.6074481 L55.5383245,31.1820797 L49.7954515,31.1820797 L49.7954515,4.12871479 L55.536115,4.12871479 L55.536115,16.1606255 C55.721664,15.9514397 55.8345555,15.8356193 55.9346009,15.7096247 C58.8729142,12.0091269 61.8159549,8.31238004 64.7379279,4.59898468 C65.034981,4.22146361 65.3327536,4.08169808 65.8084702,4.08824649 Z M181.803016,4.10057156 C183.096155,4.10093125 184.362472,4.25703702 185.573037,4.74780928 C188.306224,5.85570801 189.907464,8.33839596 189.796063,11.2838517 C189.746323,12.597699 189.410834,13.8160742 188.652452,14.9018262 C187.955217,15.9001221 187.033227,16.6086614 185.885762,17.0212266 C185.741937,17.0729707 185.598883,17.1272326 185.456549,17.1828819 C185.446683,17.1867357 185.445141,17.2118113 185.42171,17.2775833 C185.509629,17.3000896 185.596468,17.3180228 185.680584,17.344383 C188.152944,18.1198247 189.570331,19.8636052 190.156267,22.318597 C190.510408,23.8026294 190.384876,25.2883062 189.840099,26.7121161 C188.931469,29.0869482 187.136612,30.4384603 184.701609,30.9731148 C184.038083,31.118841 183.345627,31.1924748 182.666068,31.1951468 C177.750432,31.214159 172.834642,31.2066055 167.918904,31.2067083 C167.818756,31.2067083 167.718607,31.1976646 167.588554,31.1914471 L167.588554,4.09984914 L168.134872,4.09984914 C172.69092,4.09984914 177.246968,4.09933834 181.803016,4.10057156 Z M205.980443,4.14254233 L205.980443,31.1890731 L200.28582,31.1890731 L200.28582,4.17815171 C200.63621,4.07995615 205.115181,4.04665907 205.980443,4.14254233 Z M94.9553532,4.12317556 C98.432997,13.1397478 101.906684,22.1460431 105.393937,31.1874854 L98.8028104,31.1874854 C98.2517128,29.6083918 97.7010264,28.0304287 97.1468458,26.4424457 L85.5025275,26.4424457 C84.9355008,28.0306343 84.3735098,29.6045894 83.8081788,31.187845 L77.2161788,31.187845 C80.7196689,22.1399284 84.2106213,13.1241783 87.6959214,4.12317556 L94.9553532,4.12317556 Z M150.58395,4.11678848 C154.059333,13.1260641 157.534304,22.1342093 161.025154,31.1837189 L154.432846,31.1837189 C153.880618,29.7148448 153.328595,28.2461764 152.775956,26.7760177 L141.138061,26.7760177 C140.579359,28.227678 140.016032,29.6912594 139.44361,31.1784777 L132.853048,31.1784777 C136.345491,22.1409406 139.839167,13.1310998 143.33053,4.11678848 L150.58395,4.11678848 Z M173.771482,19.8941276 C173.657409,19.8942303 173.543336,19.9159659 173.421812,19.9284009 L173.421812,26.0282927 C173.509114,26.0455578 173.541691,26.0576332 173.574269,26.0576332 C176.125812,26.0580443 178.677458,26.0705307 181.228847,26.0452495 C181.6985,26.0406763 182.178328,25.9220812 182.632771,25.7864264 C183.260174,25.5991303 183.755674,25.2015179 184.072202,24.6184079 C184.781049,23.3122682 184.560508,20.9964254 182.51135,20.2008923 C182.028439,20.0134421 181.482429,19.9130884 180.963652,19.9064598 C178.566622,19.8759889 176.168975,19.8923291 173.771482,19.8941276 Z M91.2817807,10.0097193 C89.8941968,13.8557378 88.5067156,17.7017049 87.1059773,21.5842062 L95.5447321,21.5842062 C94.1430688,17.6981593 92.7573347,13.856303 91.3717034,10.0144981 C91.3416949,10.0129052 91.3117378,10.0113122 91.2817807,10.0097193 Z M146.957034,9.88704939 C145.532865,13.7198621 144.144972,17.4551986 142.740894,21.2337493 L151.173277,21.2337493 C149.765756,17.4458466 148.380433,13.7177039 146.957034,9.88704939 Z M173.810894,9.26655211 C173.682587,9.26665488 173.554332,9.29131938 173.425974,9.30452517 L173.425974,15.0776122 L175.174687,15.0775095 L175.174687,15.0775095 C177.091171,15.0758652 179.008065,15.0951857 180.924137,15.0653314 C182.458938,15.0413862 183.561287,14.0897988 183.851146,12.6170196 C184.156164,11.0669068 183.341927,9.76862893 181.80651,9.39439646 C181.461361,9.3103316 181.096995,9.27220439 180.741209,9.27050871 C178.431173,9.25971798 176.120982,9.26423981 173.810894,9.26655211 Z" id="Combined-Shape"></path>
        </g>
    </g>
</svg>