<?xml version="1.0" encoding="UTF-8"?>
<svg width="206px" height="39px" viewBox="0 0 206 39" version="1.1" xmlns="http://www.w3.org/2000/svg" xmlns:xlink="http://www.w3.org/1999/xlink">
    <!-- Generator: Sketch 63.1 (92452) - https://sketch.com -->
    <title>Comparisons/Logos/Kartra</title>
    <desc>Created with Sketch.</desc>
    <g id="Comparisons" stroke="none" stroke-width="1" fill="none" fill-rule="evenodd">
        <g id="Comparisons/Logos/Kartra" fill="#FFFFFF">
            <path d="M9.75236053,2.54040607 L9.75236053,28.7417559 L15.2367034,28.7417559 C15.2367034,27.4080329 15.2111651,26.0887729 15.2548147,24.771728 C15.2654991,24.4480696 15.4266768,24.061217 15.6480519,23.8247274 C16.5658659,22.8443707 17.5331929,21.9106603 18.5485996,20.8934295 C21.9750272,25.9709842 25.3647109,30.9940746 28.7846237,36.0621176 C27.1783188,37.007685 25.5059532,37.6384541 23.7475914,38.0474573 C22.9159039,38.2409488 22.0750955,38.3957419 21.2384567,38.5679949 L17.3295383,38.5679949 C17.1954624,38.5217394 17.0645136,38.4508577 16.9267894,38.4327464 C8.79298166,37.3637875 2.35590512,31.5398899 0.487442125,23.5511031 C0.317664769,22.8253472 0.162220114,22.0962037 2.3252511e-12,21.368754 L2.3252511e-12,17.199241 C0.172643896,16.4071638 0.32626439,15.610396 0.521058824,14.8237913 C1.80865655,9.62271474 4.74646932,5.61737634 9.28133586,2.77611385 C9.4042062,2.69923846 9.54127894,2.64516509 9.75236053,2.54040607 Z M21.2384567,2.89190893e-12 C22.001217,0.172253004 22.7693194,0.323788741 23.5256951,0.520016445 C31.4559785,2.5772802 36.4561366,7.58695003 38.1334535,15.5954118 C39.4502378,21.8835585 37.6996939,27.483475 33.4259431,32.2833662 C33.3405984,32.3791347 33.24053,32.4618735 33.0742707,32.6201847 C29.5549412,27.4046452 26.054635,22.217771 22.5169336,16.9751297 C24.9329058,14.5720569 27.340148,12.1774535 29.8714333,9.65958887 C29.4806717,9.63626565 29.2780595,9.61385452 29.0753169,9.61346363 C27.0343403,9.61085769 24.9931031,9.62506009 22.9522568,9.60199747 C22.4822745,9.59665528 22.1395927,9.71600759 21.8112435,10.0645528 C19.742253,12.260062 17.6537179,14.4369386 15.5716977,16.6200696 L15.3154029,16.4042973 L15.3154029,16.4042973 L15.3154029,0.508680582 C15.9494295,0.337469956 16.5743352,0.168734978 17.199241,2.89190893e-12 L21.2384567,2.89190893e-12 Z M119.54696,9.79184061 C122.035377,9.77333839 123.762859,10.9206059 124.888366,13.0542239 C125.997327,15.1560493 126.128666,17.4212676 125.750283,19.708506 C125.482261,21.3278406 124.59181,22.6302922 123.223167,23.7002935 C124.773184,25.5140316 126.330627,27.3363694 127.946053,29.226592 C127.716208,29.2470487 127.5592,29.2728476 127.402192,29.2732385 C126.012962,29.2763656 124.623212,29.2547362 123.234633,29.2867894 C122.791883,29.2969526 122.517607,29.1368172 122.247631,28.8148526 C121.118345,27.4682302 119.983195,26.1255168 118.812344,24.8152473 C118.615204,24.5947843 118.232912,24.4330854 117.933228,24.428525 C115.806516,24.3958204 113.678891,24.4110651 111.551658,24.4110651 L110.809485,24.4110651 L110.809485,20.6515977 L111.507748,20.6515977 L111.507748,20.6515977 C114.242818,20.6514674 116.977888,20.6545946 119.713089,20.6501645 C121.355095,20.6474282 122.109907,19.9152878 122.144697,18.2863112 C122.160072,17.5703276 122.148345,16.8536926 122.14157,16.1374485 C122.126846,14.5594181 120.953389,13.6047299 119.623053,13.5674649 C115.959745,13.4647906 112.291616,13.532024 108.54127,13.532024 L108.54127,29.2513485 L104.292406,29.2513485 L104.292406,9.80239469 L105.024937,9.80239469 C109.865611,9.80239469 114.706546,9.82780266 119.54696,9.79184061 Z M168.233594,9.80230348 C169.904135,9.80230348 171.281378,10.4717709 172.328577,11.7387817 C173.555586,13.2233889 174.174498,14.9637696 174.189743,16.8969904 C174.196779,17.7854875 174.24551,18.6900113 174.105441,19.5598759 C173.83351,21.2485287 172.955046,22.619256 171.546923,23.700072 C173.115833,25.5340062 174.673407,27.3547804 176.314762,29.2734078 C174.527343,29.2734078 172.865793,29.2859164 171.205023,29.2560783 C171.016353,29.2526906 170.796411,29.0425211 170.65126,28.8757405 C169.496956,27.5494445 168.346301,26.2195002 167.220663,24.8688386 C166.94339,24.5360593 166.65817,24.3982048 166.224801,24.402244 C164.118545,24.4217886 162.012159,24.4111042 159.905774,24.4111042 L159.151873,24.4111042 L159.151873,20.6515065 L159.827856,20.6515065 L159.827856,20.6515065 C162.563968,20.6515065 165.300081,20.6547639 168.036194,20.6502035 C169.703608,20.647337 170.455163,19.8960429 170.473795,18.2234167 C170.481092,17.5720606 170.482395,16.9204439 170.472883,16.2690878 C170.451645,14.8139278 169.465294,13.5901757 168.0173,13.5607285 C164.330409,13.4858076 160.641041,13.5358417 156.845351,13.5358417 L156.845351,29.255948 L152.64613,29.255948 L152.64613,9.80230348 L168.233594,9.80230348 L168.233594,9.80230348 Z M148.624466,9.85508691 L148.624466,13.5213918 L141.637144,13.5213918 L141.637144,29.2554398 L137.385283,29.2554398 L137.385283,13.5435423 L129.802372,13.5435423 L129.802372,9.85508691 L148.624466,9.85508691 Z M54.1922676,9.83248033 L54.1922676,18.6319769 C54.501463,18.4455214 54.6993846,18.3418048 54.8806281,18.2143741 C58.6794453,15.5461464 62.4721385,12.8691887 66.2819007,10.216727 C66.5776755,10.010727 66.9883725,9.8819933 67.3496869,9.87300278 C68.863611,9.83534687 70.3789684,9.85710651 72.069315,9.85710651 C67.7852707,13.0873064 63.6295693,16.2208257 59.3777084,19.4267903 C63.6157577,22.6227219 67.7756287,25.7594987 72.0711392,28.9988194 C70.2669127,28.9988194 68.6293365,29.0117188 66.9925421,28.9840958 C66.7611341,28.9801868 66.512136,28.8087156 66.3063966,28.6646068 C62.5224333,26.0131875 58.7439424,23.35382 54.9634972,20.6974493 C54.7584092,20.5532102 54.5462853,20.4191343 54.2189785,20.2016682 L54.2189785,29.2474266 L49.9716781,29.2474266 L49.9716781,9.83248033 L54.1922676,9.83248033 Z M88.6897233,9.85085225 C89.4275968,10.0091634 89.9059182,10.4932178 90.2840409,11.0910218 C93.9823989,16.9381122 97.6745026,22.7892419 101.367128,28.6401109 C101.44713,28.7668902 101.51306,28.90266 101.654563,29.1592153 C100.787826,29.1592153 100.001091,29.1672937 99.2146164,29.1570003 C98.4385658,29.1467068 97.5258334,29.3624791 96.9262053,29.0268333 C96.3487278,28.7038263 96.0932148,27.8032115 95.6994564,27.1544614 C95.3957335,26.6539895 95.0666025,26.1657656 94.8043141,25.6441856 C94.5412439,25.1211723 94.1953046,24.9284626 93.586686,24.9357593 C90.5261332,24.9721122 87.4649289,24.9524373 84.4039852,24.9524373 L83.6244166,24.9524373 L83.6244166,24.9524373 C84.343397,23.8776151 84.986414,22.8885284 85.6699536,21.9281071 C85.7601193,21.8013279 86.0564153,21.7811318 86.2577246,21.7798288 C88.0160864,21.7688839 89.7744482,21.7735746 91.5329403,21.7735746 L92.4563571,21.7735746 C91.029211,19.396431 89.6996576,17.1818984 88.3132945,14.8725094 C87.3352831,16.49445 86.4191629,18.0094164 85.5072123,19.5269889 C83.6642875,22.5940565 81.8195386,25.6600818 79.988471,28.7340553 C79.7999308,29.0505474 79.5956247,29.1817567 79.2164596,29.1751116 C77.8289238,29.1502248 76.4406063,29.165209 74.9368454,29.165209 C75.5807746,28.1148826 76.1736272,27.1423437 76.7719523,26.1730622 C79.8137423,21.2458706 82.8585292,16.3205031 85.8986253,11.3922691 C86.7082926,10.079524 87.5629125,9.60902049 88.6897233,9.85085225 Z M193.191777,9.96148767 C193.759352,10.208401 194.289793,10.7406654 194.631693,11.2751448 C197.998053,16.5366793 201.318288,21.8275307 204.660153,27.1048311 C205.082056,27.7710411 205.552168,28.4065009 206,29.0562935 L206,29.1865908 C204.591356,29.1794244 203.182452,29.1524529 201.774459,29.1769488 C201.32793,29.1846363 201.067075,29.0519937 200.84583,28.6627957 C200.245551,27.607518 199.582859,26.5874206 198.990006,25.5281037 C198.747523,25.094735 198.473247,24.9351208 197.967694,24.9392903 C194.863622,24.9654801 191.759159,24.9524503 188.654696,24.9524503 L187.896496,24.9524503 C188.592805,23.9040784 189.219534,22.9284124 189.890826,21.9844086 C189.994022,21.8392574 190.302305,21.784272 190.516514,21.7824478 C192.318264,21.7669424 194.120145,21.7735876 195.922027,21.7735876 L196.715798,21.7735876 C195.317838,19.4441328 193.989588,17.2310335 192.594495,14.9063997 C192.354617,15.2721442 192.174156,15.5280481 192.013108,15.7956787 C189.429834,20.0875408 186.843433,24.3775787 184.277619,28.6798646 C184.05872,29.0467818 183.837345,29.1856787 183.4101,29.1762973 C182.045757,29.1464592 180.680242,29.165222 179.19355,29.165222 C179.865623,28.0718975 180.483493,27.0624845 181.105532,26.0554168 C184.159961,21.1105047 187.213087,16.1648109 190.272076,11.222635 C191.052296,9.96213915 192.051155,9.46531562 193.191777,9.96148767 Z" id="Combined-Shape"></path>
        </g>
    </g>
</svg>