<?xml version="1.0" encoding="UTF-8"?>
<svg width="184px" height="50px" viewBox="0 0 184 50" version="1.1" xmlns="http://www.w3.org/2000/svg" xmlns:xlink="http://www.w3.org/1999/xlink">
    <!-- Generator: Sketch 63.1 (92452) - https://sketch.com -->
    <title>Comparisons/Logos/Mailchimp</title>
    <desc>Created with Sketch.</desc>
    <g id="Comparisons" stroke="none" stroke-width="1" fill="none" fill-rule="evenodd">
        <g id="Comparisons/Logos/Mailchimp" fill="#FFFFFE">
            <path d="M21.8802397,0.142383302 C23.3839364,0.142383302 24.6730498,0.601599702 25.7114799,1.50732691 C25.7721844,1.56036772 26.6823484,2.45177592 27.3726856,3.12900415 C27.5459254,3.05579574 27.6705612,3.00315829 27.6741913,3.00174655 C29.9452655,2.06133106 32.1790296,1.56520794 34.1381109,1.56520794 C38.2642015,1.56520794 40.9335859,3.78102287 40.9388295,7.21032268 C40.9420563,9.32630796 39.9046346,11.6984218 37.9921405,13.9947055 C38.4874569,14.7473606 38.8875822,15.6375587 39.1592399,16.6068139 C39.5256853,17.7862155 39.5771127,18.9543233 39.6019189,19.5180079 C39.6204731,19.941931 39.6394306,20.6221844 39.654758,21.222574 C40.9174518,21.6021284 42.5030291,22.2438616 43.4557468,23.2439732 C44.2368382,24.0637864 44.6748786,24.9245399 44.8335977,25.9506677 C44.9370575,26.5579143 44.984048,27.6578556 44.3858768,28.9227679 C44.4260103,29.0381266 44.4677573,29.1633674 44.5093026,29.2960703 C44.5454026,29.4118323 44.5794858,29.5233592 44.6113506,29.6292391 C44.9949385,29.8349487 45.349485,30.1263706 45.6437304,30.4875724 C46.0839893,31.0272576 46.6087504,31.9874373 46.6087504,33.4945626 C46.6087504,35.5794897 45.8089031,37.7985315 45.563665,38.4289709 C45.5588248,38.4414748 45.5539846,38.453777 45.5489427,38.4658776 C44.1293448,41.8677495 41.707417,44.6736685 38.545338,46.5801124 C35.4744165,48.431902 31.7464344,49.4108376 27.7651472,49.4108376 C27.7647439,49.4108376 27.7647439,49.4108376 27.7643405,49.4108376 L27.3950465,49.4080142 L27.3950465,49.4080142 L27.0249961,49.3997455 C23.168748,49.2851935 19.5184113,48.2060248 16.4684641,46.2792117 C13.6415707,44.4931685 11.3946977,42.0181998 9.92347079,39.081998 C8.2844494,38.846037 6.6557135,38.0812813 5.32707159,36.9042998 C3.67494126,35.4403333 2.65325031,33.5234023 2.45056587,31.5064399 C2.34367755,30.4428004 2.40236529,29.4213111 2.62521734,28.4564928 L2.62521734,28.4564928 L1.92217458,27.8611451 C0.79238526,26.9072173 0.133509555,25.5434837 0.018554198,23.9193864 C-0.0760318766,22.581669 0.190180529,21.044494 0.809729402,19.3502134 C2.25292332,15.4044212 5.57291471,10.7059739 9.69134164,6.78155937 C11.7111274,4.856763 13.811987,3.24295113 15.7666314,2.11437187 C18.0332687,0.805897556 20.0901629,0.142383302 21.8802397,0.142383302 Z M24.6462269,2.72867716 C17.7142172,-3.31757127 -3.95970786,20.7734414 2.96988174,26.6244674 L2.96988174,26.6244674 L4.48426731,27.9073289 C4.09140233,28.9247846 3.93712014,30.0908756 4.06316768,31.3446957 C4.22491189,32.9548774 5.0556156,34.4983044 6.40180334,35.6910166 C7.68002624,36.8234277 9.36018954,37.5399828 10.9909422,37.5387727 C13.6875529,43.7530173 19.8487567,47.5650983 27.072995,47.7796816 C34.8223978,48.009794 41.3274593,44.3735746 44.0531113,37.8416902 C44.2313929,37.3832805 44.9880815,35.3179159 44.9880815,33.4945626 C44.9880815,31.6621339 43.9520716,30.9026218 43.2923892,30.9026218 C43.2722216,30.8318335 43.1417372,30.3540629 42.9620438,29.7788828 C42.7827538,29.2035009 42.5968084,28.7985354 42.5968084,28.7985354 C43.3165903,27.7207785 43.3294976,26.7567669 43.2339031,26.2110315 C43.1316534,25.5344083 42.8499119,24.9578164 42.2821938,24.361662 C41.714274,23.7657092 40.5532249,23.1552357 38.9212621,22.6970277 C38.7345101,22.6447936 38.1189948,22.4757891 38.0649456,22.4592516 C38.0607104,22.4239583 38.0199718,20.4406759 37.9828634,19.5891996 C37.9556371,18.9736842 37.9029997,18.0128994 37.6049225,17.0664337 C37.2493676,15.7853873 36.6304237,14.6642701 35.857601,13.9473116 C37.9901237,11.7367403 39.3213875,9.30170348 39.3181606,7.21274279 C39.3121104,3.19535558 34.3783071,1.97965226 28.2983788,4.49737625 C28.2917234,4.50019972 27.0191475,5.03968319 27.0100721,5.04432174 C27.0044251,5.03867481 24.6811169,2.75933192 24.6462269,2.72867716 Z M34.1232868,15.8607254 L34.2449992,15.8630326 C34.5567904,15.87957 34.8536576,15.9652823 35.120475,16.1427573 C36.1441827,16.824019 36.2895912,18.4741326 36.342632,19.6813655 C36.3726817,20.370291 36.4561756,22.037547 36.4846119,22.5161243 C36.5497533,23.6104186 36.8373434,23.7647008 37.4193805,23.9562931 C37.7467007,24.0639881 38.0504249,24.1444568 38.4981458,24.270101 C39.8536106,24.6506638 40.657088,25.0366718 41.1636983,25.5325932 C41.4658091,25.8423676 41.6061756,26.1717047 41.6495359,26.485916 C41.8094651,27.6516036 40.7444138,29.0919741 37.9249824,30.4004484 C34.8433721,31.8309367 31.1047012,32.1931469 28.5214325,31.9053552 C28.3233866,31.8831708 27.6189321,31.8035088 27.616512,31.8031054 C25.550139,31.5247924 24.3715441,34.1951852 25.6116502,36.0247905 C26.4108925,37.2035871 28.5877839,37.9711662 30.7658854,37.9713679 C35.7597881,37.9721746 39.5982887,35.8396519 41.0261552,33.9977444 C41.0689106,33.9424851 41.0731458,33.9366365 41.1405056,33.8347901 C41.2104872,33.7289102 41.1526061,33.6708275 41.0652804,33.7307253 C39.898786,34.5287574 34.7171229,37.6974918 29.1746613,36.7443707 C29.1746613,36.7443707 28.5010632,36.6336505 27.8863546,36.3944627 C27.3978951,36.2042822 26.3753975,35.7339736 26.251165,34.6850564 C30.7239368,36.0681508 33.540343,34.7606849 33.540343,34.7606849 C33.5911654,34.7393073 33.626257,34.6810229 33.6204084,34.6231418 C33.6131481,34.5523535 33.5498218,34.5007245 33.4790335,34.5079848 C33.4790335,34.5079848 29.812361,35.0506951 26.3487762,33.782556 C26.7259105,32.5563655 27.7292489,32.9994478 29.2454496,33.1216635 C31.9785636,33.2846178 34.4279194,32.8852992 36.2381638,32.3657816 C37.8068002,31.9156407 39.8673246,31.0278626 41.4674225,29.7649671 C42.0073093,30.950419 42.1978932,32.2554648 42.1978932,32.2554648 C42.1978932,32.2554648 42.615766,32.180643 42.9648672,32.395428 C43.2946076,32.5985158 43.5368206,33.0208255 43.3714462,34.111893 C43.0350505,36.150838 42.1682468,37.8055901 40.7119439,39.3276394 C39.8253759,40.2819706 38.7490308,41.1116659 37.5175967,41.714879 C36.8635612,42.0587367 36.1671738,42.3558055 35.4316612,42.5962034 C29.9410303,44.3893053 24.3209234,42.4177201 22.5092673,38.1841361 C22.3646656,37.8656896 22.2424499,37.5327224 22.1460487,37.1842262 C21.3740327,34.3944412 22.0294799,31.0470219 24.0783071,28.9403137 L24.0783071,28.9403137 C24.2045563,28.8051907 24.3332256,28.6472784 24.3332256,28.4482241 C24.3332256,28.2818413 24.2275474,28.1065848 24.1359865,27.9821507 C23.4192297,26.9425106 20.9363957,25.1707863 21.4347372,21.7422932 C21.7927122,19.2792234 23.9466126,17.5446076 25.9551046,17.6472607 L25.9551046,17.6472607 L26.4639333,17.6765038 C27.3343672,17.7281328 28.0936776,17.8396597 28.8102326,17.8697094 C30.0091968,17.9215402 31.0875587,17.7472921 32.3645716,16.6830475 C32.7955533,16.3238624 33.1408228,16.0126762 33.7254817,15.9138549 C33.7865895,15.9033678 33.9396617,15.8485119 34.2449992,15.8630326 Z M177.900474,18.9882049 C181.459048,18.9882049 183.795264,21.6922776 183.795264,26.71623 C183.795264,31.1486666 181.843644,34.4295328 177.966422,34.4295328 C176.154362,34.4295328 174.978994,33.2793742 174.34432,32.2030291 L174.34432,32.2030291 L174.34432,38.1799009 L168.982157,38.1799009 L168.982157,19.3282307 L172.910605,19.3282307 C172.910605,19.3282307 173.169153,20.4332139 172.829329,21.8796346 C172.656694,22.6139372 172.339055,23.2387296 172.722441,23.2387296 C172.987242,23.2387296 172.968486,23.0104323 173.331503,22.2323661 C173.880868,21.0551829 175.143965,18.9882049 177.900474,18.9882049 Z M10.2004027,25.7027029 L10.4302827,25.7084547 C11.8305197,25.7850916 13.8934641,26.8602267 14.3649828,29.9101739 C14.7824522,32.6114231 14.1193413,35.3614779 11.5866933,35.793468 C11.3513373,35.8336016 11.1111411,35.849534 10.8689282,35.8436854 C8.52847744,35.7809641 6.00026629,33.6738526 5.74897791,31.1750862 C5.47126997,28.4129308 6.88259908,26.2870634 9.38136552,25.7832766 C9.68004778,25.7229754 10.0410479,25.6882871 10.4302827,25.7084547 Z M114.932769,18.9914317 C118.787807,18.9914317 120.35604,20.5013804 120.35604,20.5013804 L120.35604,20.5013804 L120.35604,25.6390782 C119.91074,25.3692356 117.925642,24.1809602 115.457127,24.1809602 C113.191902,24.1809602 111.957846,25.3892015 111.957846,26.7174401 C111.957846,28.1011396 112.889791,29.2936501 115.481933,29.2936501 C117.929676,29.2936501 119.721568,28.0501155 120.364713,27.6901237 L120.364713,27.6901237 L120.364713,32.5698778 C120.364713,32.5698778 118.33202,34.4434485 114.921879,34.4434485 C110.555995,34.4434485 107.484872,31.6056646 107.484872,26.487731 C107.484872,21.3693942 110.868997,18.9914317 114.932769,18.9914317 Z M85.3878309,18.9914317 C90.2548794,18.9914317 91.8608259,22.294684 91.8608259,26.8334038 L91.8608259,26.8334038 L91.8608259,34.1032209 L87.8192375,34.1032209 C87.6328889,33.3550027 87.5776296,32.4666197 87.6022341,31.2914532 C87.6163514,30.6206786 87.714971,30.2947701 87.4225407,30.2947701 C87.1658071,30.2947701 87.113573,30.7489446 86.8279997,31.4233494 C86.4161772,32.3952263 85.0762414,34.4434485 82.0279077,34.4434485 C79.9387453,34.4434485 77.4593398,33.1807546 77.4593398,30.1596472 C77.4593398,26.9745771 79.6656759,24.9882695 84.0359962,24.9882695 C85.8910127,24.9882695 86.498461,25.149207 86.498461,25.149207 C86.5946605,24.2057664 86.3357084,23.0691201 84.2281935,23.0691201 C81.5878505,23.0691201 78.3330005,24.9402706 78.3330005,24.9402706 L78.3330005,24.9402706 L78.3330005,20.5013804 C78.3330005,20.5013804 81.2802945,18.9914317 85.3878309,18.9914317 Z M71.3144717,18.9882049 C74.8730459,18.9882049 76.2319392,21.5583647 76.2319392,25.4134026 L76.2319392,25.4134026 L76.2319392,34.1001958 L70.9450012,34.1001958 L70.9450012,34.1001958 L70.9450012,26.0916393 C70.9450012,24.7571487 70.7294095,23.46138 69.5116894,23.46138 C68.3845219,23.46138 67.857744,25.4599898 67.857744,26.750515 L67.857744,26.750515 L67.857744,34.1032209 L62.4740014,34.1032209 L62.4740014,34.1032209 L62.4740014,26.0916393 C62.4740014,24.3836447 62.2336035,23.46138 61.0328242,23.46138 C59.9933858,23.46138 59.3869459,25.3008674 59.3869459,26.750515 L59.3869459,26.750515 L59.3869459,34.1001958 L54.024581,34.1001958 L54.024581,19.3282307 L57.9532307,19.3282307 C57.9532307,19.3282307 58.2115778,20.4332139 57.8717536,21.8796346 C57.6993206,22.6139372 57.3816808,23.2387296 57.7648653,23.2387296 C58.029666,23.2387296 58.0300693,23.0191044 58.3741287,22.2323661 C58.8771088,21.0818041 59.9383282,18.9882049 62.4165237,18.9882049 C64.7735119,18.9882049 65.8831336,20.4201049 66.2511924,21.7606458 C66.5309171,22.7795132 66.2858807,23.2387296 66.6279233,23.2387296 C66.8705396,23.2387296 66.9540335,22.7103383 67.2531191,22.0415805 C67.7885691,20.8444314 68.9556685,18.9882049 71.3144717,18.9882049 Z M98.95821,19.3483983 L98.95821,34.1032209 L93.5958451,34.1032209 L93.5958451,19.3483983 C93.5958451,19.3483983 94.5084293,19.8755796 96.2825736,19.8755796 C98.0569196,19.8755796 98.95821,19.3483983 98.95821,19.3483983 L98.95821,19.3483983 Z M106.055796,14.8562657 L106.055796,34.1032209 L100.693431,34.1032209 L100.693431,14.8562657 L106.055796,14.8562657 Z M143.227518,19.3483983 L143.227518,34.1032209 L137.865153,34.1032209 L137.865153,19.3483983 C137.865153,19.3483983 138.777737,19.8755796 140.551882,19.8755796 C142.326026,19.8755796 143.227518,19.3483983 143.227518,19.3483983 L143.227518,19.3483983 Z M126.729004,14.8562657 C126.729004,14.8562657 126.951856,15.407648 126.951856,17.0559465 C126.951856,19.4857397 126.422658,21.4627702 126.173185,22.216232 C126.040885,22.6149456 125.804723,23.2308643 126.14374,23.2419565 C126.338963,23.2484101 126.456741,22.9543664 126.695123,22.4437226 C126.933705,21.9330788 128.114317,18.9914317 131.218515,18.9914317 C135.493644,18.9914317 136.12247,22.4923265 136.12247,26.2844416 L136.12247,26.2844416 L136.12247,34.1032209 L130.760105,34.1032209 L130.760105,34.1032209 L130.760105,25.9629699 C130.760105,24.2934955 130.409794,23.4646068 129.290895,23.4646068 C127.939867,23.4646068 127.462298,25.5565927 127.462298,26.7537418 L127.462298,26.7537418 L127.462298,34.1032209 L122.099933,34.1032209 L122.099933,14.8562657 Z M162.329267,18.9882049 C165.888042,18.9882049 167.246936,21.5583647 167.246936,25.4134026 L167.246936,25.4134026 L167.246936,34.1001958 L161.959796,34.1001958 L161.959796,34.1001958 L161.959796,26.0916393 C161.959796,24.7571487 161.744406,23.46138 160.526686,23.46138 C159.399518,23.46138 158.87274,25.4599898 158.87274,26.750515 L158.87274,26.750515 L158.87274,34.1032209 L153.488998,34.1032209 L153.488998,34.1032209 L153.488998,26.0916393 C153.488998,24.3836447 153.2486,23.46138 152.047619,23.46138 C151.008181,23.46138 150.401741,25.3008674 150.401741,26.750515 L150.401741,26.750515 L150.401741,34.1001958 L145.039577,34.1001958 L145.039577,19.3282307 L148.968227,19.3282307 C148.968227,19.3282307 149.226574,20.4332139 148.88675,21.8796346 C148.714115,22.6139372 148.396677,23.2387296 148.779862,23.2387296 C149.044461,23.2387296 149.045066,23.0191044 149.388923,22.2323661 C149.892105,21.0818041 150.953325,18.9882049 153.43152,18.9882049 C155.8958,18.9882049 156.873324,20.4269619 157.266189,21.7606458 C157.529578,22.6550791 157.300877,23.2387296 157.642718,23.2387296 C157.885536,23.2387296 157.96903,22.7103383 158.268116,22.0415805 C158.803566,20.8444314 159.970463,18.9882049 162.329267,18.9882049 Z M10.2727737,27.4973214 C9.57013432,27.4083823 8.84672227,27.6689478 8.38548911,28.1779781 C7.65764019,28.9810522 7.54369322,30.0737332 7.68466479,30.4597411 C7.73629386,30.6011161 7.81676261,30.6402412 7.87545034,30.6481066 C7.99927945,30.6648457 8.18240132,30.5746965 8.297155,30.2663338 C8.30542372,30.2439478 8.31631422,30.2096628 8.3300282,30.1658991 C8.38105224,30.0025415 8.47624334,29.6988174 8.63213894,29.4553943 C8.82010103,29.161754 9.11293468,28.9594729 9.4565907,28.8858611 C9.80670034,28.8110393 10.1644737,28.8775924 10.4639626,29.0738232 C10.9740014,29.4075971 11.1702322,30.0323896 10.9526237,30.628544 C10.8400885,30.936705 10.6571683,31.5262042 10.6977052,32.0106301 C10.7789807,32.9911791 11.3821938,33.3848508 11.9238957,33.4265977 C12.4506736,33.446362 12.8189341,33.1509066 12.9119067,32.9345081 C12.9669643,32.8068472 12.9205788,32.7290002 12.8907307,32.6957237 C12.8088503,32.5930706 12.6743323,32.6243304 12.5442513,32.6545818 C12.4532953,32.6757578 12.3502389,32.6997572 12.2373003,32.6977404 C11.995289,32.6931019 11.7903861,32.5896421 11.6752291,32.4127722 C11.5253838,32.1828615 11.5340558,31.8398105 11.6994302,31.4465421 C11.7218163,31.3939047 11.7480341,31.3350153 11.7766721,31.2706806 C12.0406661,30.6787614 12.4823367,29.6879268 11.9864153,28.7436795 C11.6131129,28.0329731 11.0044545,27.5902941 10.2727737,27.4973214 Z M176.38629,23.4646068 C175.223426,23.4646068 174.294102,25.0858807 174.294102,27.1964207 C174.294102,29.3694803 175.19862,30.9290414 176.428844,30.9290414 C177.928305,30.9290414 178.514577,29.6550536 178.514577,27.1964207 C178.514577,24.8329789 177.878491,23.4646068 176.38629,23.4646068 Z M85.2090692,28.0693006 L85.0582922,28.068468 C83.3394071,28.068468 82.135401,28.5347431 82.135401,29.6988174 C82.135401,30.548882 82.8001253,30.9437637 84.0823817,30.6477032 C85.446922,30.3328869 86.5287124,28.6323543 86.5287124,28.1338111 C86.5287124,28.1338111 85.8161909,28.068468 85.0582922,28.068468 Z M32.9121221,25.7655291 C32.5069549,25.5666765 32.0610491,25.6447251 31.916044,25.9401805 C31.7708372,26.2354343 31.9815887,26.6361646 32.3865543,26.8350172 C32.7915198,27.0340715 33.2374256,26.9560229 33.3826324,26.6607691 C33.5276375,26.3653137 33.3170876,25.9645833 32.9121221,25.7655291 Z M7.02457903,14.7171092 C11.8573426,7.82059445 19.4262453,2.60061286 22.9301653,3.54748199 C23.4996985,3.70882284 25.3863781,5.89620144 25.3863781,5.89620144 C25.3863781,5.89620144 21.8838698,7.83955201 18.6358768,10.5484649 C14.2593045,13.9182703 10.9534305,18.8159735 8.97276982,24.1307429 C7.41724232,24.433257 6.04624843,25.3147831 5.20788103,26.5327048 C4.70691768,26.114832 3.77335918,25.3057076 3.60838816,24.9904879 C2.26986411,22.4489662 5.0691279,17.5074992 7.02457903,14.7171092 Z M34.990394,24.5599095 C34.6612586,24.5544643 34.3883909,24.9156661 34.3807272,25.3668155 C34.3730635,25.8179648 34.633629,26.1882421 34.9625627,26.193889 C35.291698,26.1995359 35.5645657,25.8383341 35.5722294,25.3869831 C35.5798931,24.9358337 35.3193276,24.5655565 34.990394,24.5599095 Z M29.3892446,25.4178395 C29.2494831,25.1911556 28.6472784,24.8079711 27.8258517,24.9053806 C27.2294956,24.999765 26.9003603,25.1961975 26.6892054,25.3791177 C26.508907,25.5368284 26.3973802,25.7108748 26.3983818,25.8332922 C26.3989936,25.8915766 26.4242031,25.9250548 26.4439673,25.9419956 C26.4711936,25.9659951 26.5034618,25.9793057 26.5421836,25.9793057 C26.6769032,25.9793057 26.9786106,25.8583 26.9786106,25.8583 C27.8087093,25.5612312 28.3562598,25.5969279 28.8991718,25.6588424 C29.1988624,25.6925223 29.340439,25.7112782 29.4061854,25.6084234 C29.425748,25.5789787 29.4493441,25.5150474 29.3892446,25.4178395 Z M28.3526296,23.254662 C27.3438459,22.8202518 26.1408482,22.9646519 25.212735,23.6315946 C24.906389,23.8560601 24.6157738,24.1670446 24.6575208,24.356015 C24.6710331,24.4169212 24.7168135,24.4629034 24.8243069,24.4780291 C25.0768053,24.5070781 25.9597431,24.0607613 26.9763922,23.9984434 C27.6943589,23.954478 28.2891017,24.1789435 28.747108,24.3798128 C29.2051143,24.5806822 29.4864525,24.7139901 29.5967693,24.597623 C29.6675576,24.5250196 29.6463816,24.3864681 29.5368715,24.2077831 C29.3109943,23.8389176 28.8459293,23.4646068 28.3526296,23.254662 Z M34.1730747,20.0413396 L34.0634908,20.0516428 C33.4235726,20.1549009 33.3999765,20.9484962 33.6286772,22.043799 C33.7573465,22.6599193 33.9868539,23.1866972 34.2419741,23.5130091 C34.5779664,23.4728755 34.8998414,23.4712621 35.1957002,23.5130091 C35.3667215,23.1205475 35.3961662,22.4437226 35.2422874,21.7067982 C35.013385,20.6114955 34.7036106,19.9485863 34.0634908,20.0516428 Z M96.261196,14.7068237 C98.0740621,14.7068237 99.5436756,15.6659951 99.5436756,16.8492285 C99.5436756,18.0322603 98.0740621,18.9914317 96.261196,18.9914317 C94.4483298,18.9914317 92.9787163,18.0322603 92.9787163,16.8492285 C92.9787163,15.6659951 94.4483298,14.7068237 96.261196,14.7068237 Z M140.530504,14.7068237 C142.343168,14.7068237 143.812782,15.6659951 143.812782,16.8492285 C143.812782,18.0322603 142.343168,18.9914317 140.530504,18.9914317 C138.717638,18.9914317 137.248024,18.0322603 137.248024,16.8492285 C137.248024,15.6659951 138.717638,14.7068237 140.530504,14.7068237 Z M28.3403274,9.71493773 C28.4175693,9.71009751 28.4548794,9.80912046 28.3933682,9.85631266 C28.1198954,10.0660558 27.8208098,10.3564693 27.6023947,10.6501096 C27.5650846,10.7001253 27.6001762,10.771922 27.6624941,10.772527 C28.925188,10.7814008 30.7055843,11.223273 31.8658267,11.8740817 C31.9444803,11.9182487 31.8886161,12.0703125 31.8006853,12.0501449 C30.0450952,11.6478011 27.1712112,11.3424636 24.1860021,12.0705142 C21.5210546,12.7205161 19.4867481,13.7242579 18.0028156,14.8036282 C17.9279938,14.8580807 17.8378446,14.7590578 17.8985491,14.6888745 C19.6164258,12.7035753 21.7316044,10.9774299 23.6261494,10.0083764 C23.6916941,9.97489818 23.7612723,10.0458882 23.7257773,10.1102228 C23.575327,10.3826872 23.2857202,10.966136 23.1937559,11.4086133 C23.1794369,11.4775865 23.254662,11.5294173 23.3127448,11.4898888 C24.4915414,10.6864113 26.5417802,9.82545622 28.3403274,9.71493773 Z" id="Combined-Shape"></path>
        </g>
    </g>
</svg>