<?xml version="1.0" encoding="UTF-8"?>
<svg width="206px" height="30px" viewBox="0 0 206 30" version="1.1" xmlns="http://www.w3.org/2000/svg" xmlns:xlink="http://www.w3.org/1999/xlink">
    <!-- Generator: Sketch 63.1 (92452) - https://sketch.com -->
    <title>Comparisons/Logos/Squarespace</title>
    <desc>Created with Sketch.</desc>
    <g id="Comparisons" stroke="none" stroke-width="1" fill="none" fill-rule="evenodd">
        <g id="Comparisons/Logos/Squarespace" fill="#FFFFFF" fill-rule="nonzero">
            <path d="M29.7964387,8.18156028 C31.5971472,8.18156028 33.2871885,8.88472726 34.5559536,10.1615196 C37.1811124,12.8020171 37.1811124,17.0988268 34.5559536,19.7393243 L34.5559536,19.7393243 L24.5510576,29.8042553 L22.7437667,27.9865335 L32.7490738,17.9211886 C33.5364982,17.1290393 33.9701165,16.0740819 33.9701165,14.9500081 C33.9701165,13.8263481 33.5364982,12.7718045 32.7490738,11.9796553 C31.1211546,10.3423812 28.4721342,10.3419674 26.843392,11.9800691 L26.843392,11.9800691 L15.2476029,23.6454397 L13.4411348,21.827304 L25.0361011,10.1623473 C26.3052776,8.88514113 27.9961416,8.18197415 29.7964387,8.18156028 Z M28.8825212,14.0255319 L30.6808511,15.8463301 L19.1399297,27.528369 C17.8763491,28.8074455 16.1943047,29.5116424 14.4029355,29.5120567 C12.610338,29.5120567 10.9282935,28.80786 9.6651224,27.529198 L9.6651224,27.529198 L8.76595745,26.6190061 L10.5646968,24.7982079 L11.4638618,25.7083998 C13.0840784,27.3489004 15.7205643,27.3480714 17.3415998,25.7079853 L17.3415998,25.7079853 L28.8825212,14.0255319 Z M66.3088403,7.30496454 C67.4045339,7.30496454 68.4057853,7.49389114 69.3121856,7.87174438 C70.2181769,8.24959758 70.9892509,8.77817687 71.6254073,9.45831266 C72.260746,10.1388637 72.7542168,10.9527014 73.1066378,11.9006562 C73.458241,12.8486111 73.6340426,13.8858389 73.6340426,15.0123398 C73.6340426,16.1807782 73.4480199,17.2350302 73.0763836,18.1759263 C72.7035207,19.1172375 72.1732542,19.9310752 71.4831305,20.6178546 L73.4312576,22.9468422 L73.4312576,23.6680851 L70.9557258,23.6680851 L69.595921,21.9785414 C69.1224833,22.1981945 68.6147029,22.3696818 68.0742153,22.4934183 C67.5329099,22.6171549 66.9511293,22.6790232 66.3292826,22.6790232 C65.2061966,22.6790232 64.1951331,22.4896813 63.295683,22.1122433 C62.3958242,21.7343901 61.6312918,21.2053956 61.0024945,20.5252598 C60.3732884,19.845124 59.8863588,19.0350233 59.5417062,18.0932968 C59.1966445,17.1524008 59.0241135,16.1255535 59.0241135,15.0123398 C59.0241135,13.8858389 59.1966445,12.8523481 59.5417062,11.9106216 C59.8863588,10.9701408 60.376559,10.1592096 61.0127156,9.47907384 C61.6480544,8.79893805 62.4158576,8.26662175 63.3157161,7.88170972 C64.215575,7.49762816 65.2131468,7.30496454 66.3088403,7.30496454 Z M80.2728008,7.30496454 L80.2728008,16.3717592 C80.2728008,17.7243959 80.5624736,18.7283417 81.1422259,19.3840139 C81.7219786,20.039686 82.530699,20.367105 83.5687943,20.367105 C84.6068897,20.367105 85.41561,20.039686 85.9953627,19.3840139 C86.5747078,18.7283417 86.8647879,17.7243959 86.8647879,16.3717592 L86.8647879,7.30496454 L89.412766,7.30496454 L89.412766,16.4339063 C89.412766,17.5104265 89.2779113,18.4313706 89.0082021,19.1975727 C88.7380856,19.9633578 88.3542997,20.5915017 87.8556231,21.0815874 C87.3569461,21.5716732 86.7433779,21.9303742 86.0157333,22.1581077 C85.2876814,22.3858411 84.4720351,22.4992908 83.5687943,22.4992908 C82.6517013,22.4992908 81.8327958,22.3858411 81.1120772,22.1581077 C80.3905439,21.9303742 79.7806425,21.5716732 79.2819656,21.0815874 C78.783289,20.5915017 78.3990958,19.9633578 78.1289792,19.1975727 C77.85927,18.4313706 77.7248227,17.5104265 77.7248227,16.4339063 L77.7248227,7.30496454 L80.2728008,7.30496454 Z M50.329115,7.01276596 C51.8313187,7.01276596 53.0218751,7.37484821 53.902012,8.09942987 C54.7813308,8.82442863 55.2954252,9.79387468 55.4447051,11.0086022 L53.0087878,11.2155064 C52.859508,10.5943768 52.5621754,10.1113224 52.1155634,9.76634306 C51.6689513,9.42136377 51.0464754,9.24866556 50.248136,9.24866556 C49.5037823,9.24866556 48.921796,9.42470094 48.502586,9.77677172 C48.0825579,10.1288425 47.8727485,10.5810281 47.8727485,11.1329116 C47.8727485,11.4503593 47.9340962,11.7156638 48.055974,11.9296594 C48.1778514,12.1440721 48.3533062,12.330119 48.5835651,12.4886343 C48.8134149,12.6475667 49.0943878,12.788979 49.4256662,12.9128712 C49.7573534,13.0371806 50.132802,13.1689985 50.552421,13.3066565 L51.5879722,13.63787 C52.2370321,13.8447741 52.8226994,14.0621069 53.3433377,14.2898683 C53.8643853,14.5176297 54.3077254,14.7904429 54.6729496,15.1078906 C55.0385824,15.4253382 55.3195556,15.8049406 55.5154595,16.2466976 C55.7117726,16.6884547 55.8099291,17.2336638 55.8099291,17.882325 C55.8099291,18.5727007 55.6745549,19.2042589 55.4042154,19.7765824 C55.1330581,20.3497403 54.7547465,20.8361319 54.267236,21.2361744 C53.7801342,21.636634 53.2018288,21.9474073 52.5315016,22.1676601 C51.8615835,22.3883301 51.1209109,22.4992908 50.3090748,22.4992908 C48.8068711,22.4992908 47.5549668,22.1405457 46.5537702,21.4226384 C45.5521649,20.704731 44.9366419,19.6214043 44.706383,18.1718239 L47.1827899,17.9440625 C47.3316607,18.6895014 47.6805251,19.2730879 48.2285657,19.6935705 C48.7761973,20.1148874 49.4968297,20.3251287 50.390463,20.3251287 C51.2697814,20.3251287 51.9495154,20.1182246 52.4300733,19.7039991 C52.9106313,19.2901908 53.1507058,18.7449817 53.1507058,18.0683718 C53.1507058,17.7371583 53.0864948,17.4576709 52.9580736,17.2299095 C52.8292432,17.0021481 52.6501073,16.8090097 52.4202575,16.6500773 C52.1895898,16.4919791 51.905754,16.356824 51.567523,16.2466976 C51.229292,16.1361541 50.8501623,16.0189362 50.4305433,15.8946269 L49.3348713,15.5842707 C48.6849933,15.4048981 48.1030071,15.1875654 47.5889123,14.9318552 C47.0744088,14.6765622 46.6347493,14.3762174 46.2695253,14.0312381 C45.9043013,13.6862589 45.6266002,13.2895536 45.43724,12.840705 C45.2478798,12.3922737 45.1529951,11.8708419 45.1529951,11.277661 C45.1529951,10.6565315 45.2748729,10.0837908 45.5186281,9.55902177 C45.7619743,9.0350871 46.1071581,8.58582146 46.5537702,8.21331055 C47.0003823,7.84079967 47.5414701,7.54754643 48.1778514,7.33313365 C48.8134149,7.11997233 49.5303665,7.01276596 50.329115,7.01276596 Z M186.414945,7.30496454 C188.026866,7.30496454 189.376947,7.6788108 190.463125,8.42527219 C191.549716,9.17173356 192.3183,10.1631853 192.769291,11.3988067 L190.166181,11.9076644 C189.810592,11.161203 189.314998,10.5735544 188.679811,10.1459498 C188.044211,9.71834521 187.275627,9.50454289 186.373645,9.50454289 C185.649664,9.50454289 185.00374,9.64324766 184.436697,9.92065717 C183.869655,10.1980667 183.391406,10.5801203 183.001951,11.0672284 C182.612497,11.5539262 182.31514,12.1288533 182.110295,12.7920098 C181.905449,13.4547559 181.803026,14.1646944 181.803026,14.9222357 C181.803026,15.6933193 181.908753,16.4069511 182.120619,17.0631313 C182.332073,17.7197219 182.639755,18.2872623 183.042838,18.7678046 C183.445921,19.2479364 183.934495,19.6230138 184.508559,19.893447 C185.082209,20.1642906 185.738459,20.2997124 186.476068,20.2997124 C187.432978,20.2997124 188.221799,20.0686746 188.84377,19.6070094 C189.465741,19.1453441 189.947294,18.5819074 190.288841,17.9162887 L192.851064,18.3443037 C192.618961,18.9147167 192.314583,19.4514795 191.93917,19.9550024 C191.562932,20.4585252 191.108637,20.899672 190.575873,21.2763909 C190.043109,21.6531097 189.424442,21.9510377 188.720698,22.1701747 C188.016954,22.3893119 187.234741,22.4992908 186.373645,22.4992908 C185.280447,22.4992908 184.286367,22.3088795 183.391406,21.9284674 C182.496445,21.5488759 181.732404,21.0223724 181.099695,20.3505982 C180.466986,19.6780032 179.978413,18.8773731 179.633975,17.9470664 C179.289537,17.01717 179.11773,16.0088931 179.11773,14.9222357 C179.11773,13.8363991 179.289537,12.8281222 179.633975,11.8978155 C179.978413,10.9679191 180.469877,10.1631853 181.109607,9.48402445 C181.749337,8.80568433 182.517095,8.27220449 183.412056,7.88563681 C184.307017,7.49824838 185.307704,7.30496454 186.414945,7.30496454 Z M142.371461,7.01276596 C143.873609,7.01276596 145.064122,7.37484821 145.944227,8.09942987 C146.823513,8.82442863 147.337997,9.79387468 147.486863,11.0086022 L145.051035,11.2155064 C144.90217,10.5943768 144.604439,10.1113224 144.158253,9.76634306 C143.711657,9.42136377 143.088795,9.24866556 142.290485,9.24866556 C141.546159,9.24866556 140.964194,9.42470094 140.544999,9.77677172 C140.125396,10.1288425 139.915594,10.5810281 139.915594,11.1329116 C139.915594,11.4503593 139.97653,11.7156638 140.098404,11.9296594 C140.220277,12.1440721 140.395725,12.330119 140.625975,12.4886343 C140.855817,12.6475667 141.136779,12.788979 141.468455,12.9128712 C141.80013,13.0371806 142.175564,13.1689985 142.594759,13.3066565 L143.630272,13.63787 C144.279717,13.8447741 144.864954,14.0621069 145.385982,14.2898683 C145.906601,14.5176297 146.350334,14.7904429 146.715136,15.1078906 C147.080755,15.4253382 147.361718,15.8049406 147.558024,16.2466976 C147.75392,16.6884547 147.852482,17.2336638 147.852482,17.882325 C147.852482,18.5727007 147.717113,19.2042589 147.446375,19.7765824 C147.175227,20.3497403 146.79693,20.8361319 146.309437,21.2361744 C145.822353,21.636634 145.244069,21.9474073 144.574175,22.1676601 C143.903873,22.3883301 143.163228,22.4992908 142.351421,22.4992908 C140.849682,22.4992908 139.597415,22.1405457 138.596255,21.4226384 C137.594687,20.704731 136.979187,19.6214043 136.748936,18.1718239 L139.225661,17.9440625 C139.374117,18.6895014 139.722969,19.2730879 140.270989,19.6935705 C140.819009,20.1148874 141.539615,20.3251287 142.432807,20.3251287 C143.312093,20.3251287 143.991802,20.1182246 144.472751,19.7039991 C144.952882,19.2901908 145.193357,18.7449817 145.193357,18.0683718 C145.193357,17.7371583 145.129149,17.4576709 145.000323,17.2299095 C144.871906,17.0021481 144.692368,16.8090097 144.462527,16.6500773 C144.232276,16.4919791 143.948042,16.356824 143.610233,16.2466976 C143.271605,16.1361541 142.892489,16.0189362 142.472886,15.8946269 L141.377254,15.5842707 C140.727809,15.4048981 140.145435,15.1875654 139.631359,14.9318552 C139.116875,14.6765622 138.677231,14.3762174 138.31243,14.0312381 C137.94681,13.6862589 137.669119,13.2895536 137.479766,12.840705 C137.290413,12.3922737 137.195532,11.8708419 137.195532,11.277661 C137.195532,10.6565315 137.317405,10.0837908 137.561152,9.55902177 C137.804489,9.0350871 138.14966,8.58582146 138.596255,8.21331055 C139.042851,7.84079967 139.583919,7.54754643 140.220277,7.33313365 C140.855817,7.11997233 141.573151,7.01276596 142.371461,7.01276596 Z M101.176821,7.59716312 L106.360284,21.4949627 L106.360284,22.2070922 L103.809586,22.2070922 L102.328655,18.0355795 L95.9307719,18.0355795 L94.4498417,22.2070922 L92.0425532,22.2070922 L92.0425532,21.4949627 L97.2886021,7.59716312 L101.176821,7.59716312 Z M114.321461,7.59716312 C115.068156,7.59716312 115.778316,7.64800164 116.450301,7.74967871 C117.122696,7.85135578 117.730642,8.08545906 118.274141,8.45157851 C119.428049,9.21087663 120.00603,10.3572036 120.00603,11.8893294 C120.00603,12.5543303 119.90751,13.1340536 119.710061,13.6293193 C119.513022,14.1241751 119.251535,14.544413 118.926011,14.890443 C118.599666,15.236473 118.222829,15.5177249 117.795501,15.7341987 C117.367352,15.9514924 116.922373,16.1142577 116.460563,16.2224946 L120.678014,21.4945327 L120.678014,22.2070922 L118.212566,22.2070922 L113.750869,16.4688975 L112.100669,16.4688975 L112.100669,22.2070922 L109.574468,22.2070922 L109.574468,7.59716312 L114.321461,7.59716312 Z M133.391515,7.59716312 L133.391515,9.83522584 L126.405017,9.83522584 L126.405017,13.6607183 L132.901299,13.6607183 L132.901299,15.8581933 L126.405017,15.8581933 L126.405017,19.9686195 L133.534752,19.9686195 L133.534752,22.2070922 L123.892199,22.2070922 L123.892199,7.59716312 L133.391515,7.59716312 Z M157.077603,7.59716312 C158.085376,7.59716312 158.931239,7.71236656 159.614772,7.94318345 C160.298306,8.17359033 160.850391,8.49214222 161.271861,8.89965904 C161.692497,9.3063559 161.996707,9.78438872 162.182822,10.3341675 C162.368937,10.8831262 162.462411,11.4767725 162.462411,12.1142862 C162.462411,12.874383 162.334718,13.5352654 162.079332,14.0981634 C161.823946,14.6610614 161.454637,15.125565 160.971407,15.4920841 C160.487759,15.8581933 159.901038,16.1328777 159.210828,16.3161372 C158.5202,16.4993968 157.740271,16.5908216 156.870623,16.5908216 L154.239978,16.5908216 L154.239978,22.2070922 L151.651064,22.2070922 L151.651064,7.59716312 L157.077603,7.59716312 Z M172.180662,7.59716312 L177.364539,21.4949627 L177.364539,22.2070922 L174.813841,22.2070922 L173.332911,18.0355795 L166.935027,18.0355795 L165.453683,22.2070922 L163.046809,22.2070922 L163.046809,21.4949627 L168.292857,7.59716312 L172.180662,7.59716312 Z M205.747616,7.42078719 L205.747616,9.68052927 L198.721263,9.68052927 L198.721263,13.543078 L205.254604,13.543078 L205.254604,15.7618392 L198.721263,15.7618392 L198.721263,19.9120818 L205.89167,19.9120818 L205.89167,22.1722378 L196.19411,22.1722378 L196.19411,7.42078719 L205.747616,7.42078719 Z M11.9738146,4.54747351e-13 L13.7810975,1.81768703 L3.77542336,11.8828392 C2.14709976,13.5209097 2.14709976,16.1866023 3.77542336,17.8246727 C5.40333556,19.4623293 8.05275544,19.4619155 9.68107905,17.823845 L9.68107905,17.823845 L21.2764051,6.15869779 L23.0836879,7.97679868 L11.4879505,19.6419459 C10.2187796,20.9187138 8.52792313,21.622695 6.72763408,21.622695 C4.92775645,21.622695 3.23772277,20.9191277 1.96855189,19.6423598 C-0.656183965,17.0023266 -0.656183965,12.7055992 1.96855189,10.0651522 L1.96855189,10.0651522 L11.9738146,4.54747351e-13 Z M66.2883984,9.53056154 C65.5582085,9.53056154 64.9052896,9.66800044 64.3304593,9.94204783 C63.7552202,10.2165104 63.2682909,10.596855 62.8696709,11.0834967 C62.4702334,11.5705537 62.1656468,12.1468837 61.9559116,12.811241 C61.7465849,13.476844 61.6419217,14.200163 61.6419217,14.9816133 C61.6419217,15.7634788 61.7498558,16.4901196 61.9665412,17.1623661 C62.1824093,17.8341975 62.4906753,18.4167558 62.8897041,18.9108715 C63.288324,19.4041569 63.7756621,19.7915602 64.3509015,20.0730816 C64.9253227,20.3537726 65.5782416,20.494118 66.3088403,20.494118 C67.0394391,20.494118 67.6919492,20.3608314 68.2671883,20.0934276 C68.8416098,19.8260237 69.3289479,19.4523227 69.7279766,18.9719094 C70.1270053,18.4923264 70.4348626,17.9126747 70.6511395,17.2341998 C70.8674164,16.5553097 70.9757592,15.8112294 70.9757592,15.0023744 C70.9757592,14.2068065 70.8674164,13.4731069 70.6511395,12.8012756 C70.4348626,12.1298595 70.1270053,11.5535295 69.7279766,11.0735314 C69.3289479,10.5939484 68.8383389,10.2165104 68.2565584,9.94204783 C67.6751866,9.66800044 67.0189971,9.53056154 66.2883984,9.53056154 Z M99.5102045,9.79504812 L98.8727374,9.79504812 C98.7902562,10.025455 98.7077749,10.2562719 98.6257083,10.4866788 C98.5432274,10.7174956 98.4507986,10.975371 98.3480081,11.2598948 C98.2448029,11.5448286 98.1320651,11.8703501 98.0085505,12.2368692 C97.8850361,12.6025684 97.7341661,13.0301741 97.5559404,13.5184563 L96.7124776,15.8381044 L101.587983,15.8381044 L100.785554,13.5184563 C100.469721,12.609948 100.216475,11.8703501 100.024572,11.3008925 C99.8322541,10.7310249 99.6606602,10.2292134 99.5102045,9.79504812 Z M170.51446,9.79504812 L169.876578,9.79504812 C169.794511,10.025455 169.71203,10.2562719 169.629549,10.4866788 C169.547483,10.7174956 169.45464,10.975371 169.351849,11.2598948 C169.249058,11.5448286 169.13632,11.8703501 169.012806,12.2368692 C168.889291,12.6025684 168.738421,13.0301741 168.560196,13.5184563 L167.716733,15.8381044 L172.592238,15.8381044 L171.789809,13.5184563 C171.473977,12.609948 171.220316,11.8703501 171.028413,11.3008925 C170.836509,10.7310249 170.664916,10.2292134 170.51446,9.79504812 Z M22.1221913,0.292198582 C23.9144129,0.292198582 25.5964887,0.996395287 26.8596835,2.27505734 L26.8596835,2.27505734 L27.7588652,3.1852492 L25.9600923,5.00604738 L25.0609105,4.09585554 C24.2776069,3.30213176 23.2342941,2.86610178 22.1230102,2.86610178 C21.0109075,2.86610178 19.9675946,3.30254624 19.1834721,4.09627 L19.1834721,4.09627 L7.64233512,15.7787234 L5.84397163,13.9579252 L17.3851086,2.2758863 C18.6483033,0.996809762 20.3307887,0.292613059 22.1221913,0.292198582 Z M156.767133,9.79463814 L154.239978,9.79463814 L154.239978,14.3933466 L156.725403,14.3933466 C157.181092,14.3933466 157.598807,14.3564487 157.978548,14.2822429 C158.357872,14.2084471 158.689623,14.0842242 158.972551,13.9091641 C159.255896,13.7345141 159.476647,13.4991875 159.635637,13.2031843 C159.79421,12.9075911 159.873497,12.5443518 159.873497,12.1138762 C159.873497,11.6702815 159.79421,11.2976127 159.635637,10.9950499 C159.476647,10.6924871 159.258817,10.4538807 158.982983,10.2788206 C158.706732,10.1037606 158.378737,9.97953763 157.999413,9.90574183 C157.619255,9.83194603 157.208634,9.79463814 156.767133,9.79463814 Z M114.321461,9.79469979 L112.100669,9.79469979 L112.100669,14.2713608 L114.321461,14.2713608 C115.299676,14.2713608 116.07018,14.093016 116.633793,13.7371462 C117.197406,13.3808665 117.479828,12.7995032 117.479828,11.9922365 C117.479828,11.1722601 117.194122,10.6011466 116.623531,10.2784859 C116.05335,9.95623515 115.28613,9.79469979 114.321461,9.79469979 Z" id="Combined-Shape"></path>
        </g>
    </g>
</svg>