<?xml version="1.0" encoding="UTF-8"?>
<svg width="206px" height="41px" viewBox="0 0 206 41" version="1.1" xmlns="http://www.w3.org/2000/svg" xmlns:xlink="http://www.w3.org/1999/xlink">
    <!-- Generator: Sketch 63.1 (92452) - https://sketch.com -->
    <title>Comparisons/Logos/unbounce</title>
    <desc>Created with Sketch.</desc>
    <g id="Comparisons" stroke="none" stroke-width="1" fill="none" fill-rule="evenodd">
        <g id="Comparisons/Logos/unbounce" fill="#FFFFFF" fill-rule="nonzero">
            <path d="M197.350132,28.9643912 C191.157793,28.9643912 187.156088,25.4340845 187.156088,19.9705148 C187.156088,17.4582067 188.069756,15.1820528 189.731711,13.5649963 C191.445178,11.8932374 193.893375,10.9753043 196.634379,10.9753043 C196.672336,10.9753043 196.711648,10.9753043 196.752316,10.9766385 C201.803247,11.0246699 205.913399,15.1620397 205.913399,20.1999981 L205.913399,21.1192654 L191.98877,21.1192654 L192.040282,21.4314693 C192.494405,24.1132215 194.363765,25.5301473 197.446378,25.5301473 C199.51501,25.5301473 201.468416,24.8923973 203.253729,23.6342419 C203.283553,23.6142288 203.32151,23.6168973 203.343199,23.6435814 L205.468766,26.2092577 C205.486388,26.2292708 205.486388,26.2519522 205.463343,26.302652 C203.267286,27.9930898 200.310742,28.9643912 197.350132,28.9643912 Z M192.319534,17.5689457 C192.259888,17.7490634 192.291066,17.9411889 192.403581,18.0959567 C192.520162,18.2533929 192.707233,18.3481214 192.905149,18.3481214 L200.260585,18.3467872 C200.458501,18.3467872 200.645573,18.2533929 200.762154,18.0972909 C200.876023,17.9425231 200.905847,17.7503976 200.847556,17.5702799 C200.19145,15.592988 198.675899,14.5029424 196.582867,14.5029424 C194.495257,14.5029424 192.981062,15.592988 192.319534,17.5689457 Z" id="e"></path>
            <path d="M169.205625,20.0511008 C169.205625,25.1784508 173.422869,29.0449771 179.016037,29.0449771 C181.773308,29.0449771 184.294707,28.0950231 186.130177,26.3685618 L186.131533,26.2538201 L183.547777,23.4786736 C182.548706,24.7368289 181.003332,25.4572997 179.359001,25.4572997 C178.528024,25.4572997 177.721447,25.2731794 176.963672,24.9116099 C176.928426,24.8969336 176.885048,24.8742521 176.840313,24.8529048 L176.790156,24.8275549 L176.731865,24.7982024 C175.647393,24.2658546 174.792015,23.3439189 174.320269,22.2005051 C174.209111,21.9510088 174.112864,21.6681573 174.035595,21.3652928 C174.00035,21.2225328 173.974594,21.1011202 173.952905,20.9783733 L173.923082,20.794253 C173.912236,20.7061954 173.898681,20.6181379 173.890547,20.5300804 C173.879703,20.4126703 173.87428,20.2939261 173.871569,20.1738476 C173.867502,20.104469 173.866146,20.0777849 173.866146,20.0511008 C173.866146,19.9310223 173.87428,19.8149465 173.882414,19.6975364 L173.887836,19.6254894 C173.887836,19.597471 173.889191,19.5707869 173.891903,19.5427687 C173.950193,18.9250317 174.119642,18.3193026 174.394827,17.7455945 C174.434139,17.6615395 174.477518,17.573482 174.522253,17.4880928 C175.031954,16.5274652 175.780241,15.7856472 176.699332,15.3213438 C177.505908,14.8797219 178.429065,14.6435677 179.359001,14.6435677 C181.004688,14.6435677 182.550062,15.3640384 183.597934,16.6195253 L186.207445,13.7683292 C184.369264,12.0338626 181.813975,11.0558903 179.016037,11.0558903 C173.422869,11.0558903 169.205625,14.9224165 169.205625,20.0511008" id="c"></path>
            <path d="M166.614955,28.2204384 L166.614955,19.434698 C166.45364,15.4627696 165.369167,11.7790294 158.603414,11.7790294 C157.171909,11.7790294 155.915277,11.9804944 154.868761,12.3767533 L154.498684,12.5168448 L154.498684,11.8524107 C154.498684,11.8203897 154.472928,11.7963741 154.44175,11.7963741 L150.646095,11.7963741 C150.613561,11.7963741 150.58916,11.8203897 150.58916,11.8524107 L150.593227,28.2204384 C150.593227,28.2564619 150.621695,28.2858144 150.658295,28.2858144 L155.021943,28.2858144 C155.06261,28.2858144 155.091078,28.2564619 155.091078,28.2204384 L155.091078,19.0090866 C155.091078,18.4754046 155.158857,17.983083 155.291705,17.5441294 C155.78514,16.2486164 157.143442,15.3493622 158.600703,15.3386885 C160.063384,15.3493622 161.421687,16.2486164 161.908344,17.5267848 C162.049325,17.983083 162.117105,18.4754046 162.117105,19.0090866 L162.117105,28.2204384 C162.117105,28.2564619 162.145572,28.2858144 162.180818,28.2858144 L166.547176,28.2858144 C166.585132,28.2858144 166.614955,28.2564619 166.614955,28.2204384" id="n"></path>
            <path d="M130.814886,11.8438718 L130.814886,20.6296121 C130.976201,24.6015406 132.060673,28.2852808 138.825071,28.2852808 C145.708762,28.2852808 146.694277,23.7916781 146.836614,20.4108025 L146.836614,11.8438718 C146.836614,11.8078482 146.808146,11.7784957 146.771546,11.7784957 L142.407898,11.7784957 C142.367231,11.7784957 142.338763,11.8078482 142.338763,11.8438718 L142.338763,21.0565577 C142.338763,21.591574 142.270984,22.0838956 142.13678,22.5201807 C141.6447,23.8156938 140.286399,24.7162822 138.827783,24.7269559 C137.3651,24.7162822 136.006798,23.8156938 135.521497,22.5375254 C135.380515,22.0838956 135.312735,21.591574 135.312735,21.0565577 L135.312735,11.8438718 C135.312735,11.8078482 135.284269,11.7784957 135.247667,11.7784957 L130.882665,11.7784957 C130.844708,11.7784957 130.814886,11.8078482 130.814886,11.8438718" id="u"></path>
            <path d="M118.1618,10.9751708 C123.78208,10.9751708 128.019657,14.8430313 128.019657,19.9703814 C128.019657,25.0977314 123.78208,28.9642577 118.1618,28.9642577 C112.568633,28.9642577 108.351389,25.0977314 108.351389,19.9703814 C108.351389,14.8430313 112.568633,10.9751708 118.1618,10.9751708 Z M118.1618,25.2471624 C121.060053,25.2471624 123.330668,22.9296482 123.330668,19.9703814 C123.330668,17.0111145 121.060053,14.6922662 118.1618,14.6922662 C115.289303,14.6922662 113.039022,17.0111145 113.039022,19.9703814 C113.039022,22.9790138 115.241858,25.2471624 118.1618,25.2471624 Z" id="o"></path>
            <path d="M98.1145094,28.6613931 C95.4887299,28.6613931 93.1760912,27.6220474 91.6036059,25.7354814 L91.1196598,25.1551022 L91.1196598,28.2224397 C91.1196598,28.257129 91.0911931,28.2864815 91.0545916,28.2864815 L86.9783301,28.2864815 C86.9417291,28.2864815 86.9119062,28.257129 86.9119062,28.2224397 L86.9119062,3.4782726 C86.9119062,3.44358327 86.9417291,3.41423076 86.9783301,3.41423076 L91.3419769,3.41423076 C91.3785784,3.41423076 91.4084007,3.44358327 91.4084007,3.4782726 L91.4084007,14.4801275 L91.8869243,13.9357719 C93.4675434,12.1359292 95.6798683,11.1459491 98.1145094,11.1459491 C102.673361,11.1459491 106.245343,15.0138096 106.245343,19.9503683 C106.245343,24.9162795 102.749275,28.6613931 98.1145094,28.6613931 Z M97.1832185,14.9097416 C94.2632755,14.9097416 92.0617958,17.0764906 92.0617958,19.9503683 C92.0617958,22.7241806 94.3107212,24.8976007 97.1832185,24.8976007 C100.047582,24.8976007 102.209749,22.7508647 102.209749,19.9036712 C102.209749,17.0097804 100.095028,14.9097416 97.1832185,14.9097416 Z" id="b"></path>
            <path d="M83.3639182,28.2855476 C83.4005192,28.2855476 83.4316977,28.2561951 83.4316977,28.2201715 L83.4316977,19.4344312 C83.2703824,15.4638369 82.1872653,11.7787625 75.4215113,11.7787625 C73.9900074,11.7787625 72.7347303,11.9788933 71.6922808,12.373818 L71.320849,12.5139095 L71.320849,11.8521438 C71.320849,11.8214571 71.2964483,11.7961072 71.2639142,11.7961072 L67.4669041,11.7961072 C67.4370812,11.7961072 67.4099693,11.8214571 67.4099693,11.8521438 L67.4086138,28.2201715 C67.4086138,28.2561951 67.4397923,28.2855476 67.4750377,28.2855476 L71.8386847,28.2855476 C71.8779968,28.2855476 71.9078198,28.2575292 71.9078198,28.2215058 L71.9078198,19.0088197 C71.9078198,18.4738036 71.9755994,17.9801477 72.1098028,17.5438626 C72.6032379,16.2483495 73.9601844,15.3490953 75.4188002,15.3384217 C76.8814827,15.3490953 78.2397848,16.2483495 78.7250863,17.526518 C78.8660678,17.9814819 78.9324917,18.4738036 78.9324917,19.0088197 L78.9324917,28.2215058 C78.9324917,28.2575292 78.9623146,28.2855476 78.9989156,28.2855476 L83.3639182,28.2855476 Z" id="n"></path>
            <path d="M47.9068124,11.8438718 L47.9068124,20.6296121 C48.0694833,24.6015406 49.1526005,28.2852808 55.9183545,28.2852808 C62.8006893,28.2852808 63.7875594,23.7916781 63.9285409,20.4108025 L63.9285409,11.8438718 C63.9285409,11.8078482 63.9000735,11.7784957 63.8634725,11.7784957 L59.4998255,11.7784957 C59.4591578,11.7784957 59.4306904,11.8078482 59.4306904,11.8438718 L59.4306904,21.0565577 C59.4306904,21.591574 59.3629109,22.0838956 59.2300629,22.5201807 C58.7366279,23.8156938 57.3783259,24.7162822 55.91971,24.7269559 C54.4583831,24.7162822 53.1000811,23.8156938 52.613424,22.5375254 C52.4737981,22.0838956 52.4060185,21.591574 52.4060185,21.0565577 L52.4060185,11.8438718 C52.4060185,11.8078482 52.3761955,11.7784957 52.3409502,11.7784957 L47.974592,11.7784957 C47.9366355,11.7784957 47.9068124,11.8078482 47.9068124,11.8438718" id="u"></path>
            <path d="M21.4065022,32.7807513 C28.1600559,32.3137795 33.4929503,26.7781627 33.4929503,20.0137431 C33.4929503,16.1138616 31.7198375,12.6249154 28.9273203,10.2767145 L27.146074,15.6055296 C28.0082298,16.8650191 28.5111539,18.3820102 28.5111539,20.0137431 C28.5111539,23.4399817 26.2906961,26.3485487 23.1904598,27.4439311 L21.4065022,32.7807513 Z M19.7567482,27.8775477 L24.8185244,13.3694018 L26.3259415,9.04524321 C26.3747428,8.90381749 26.4018545,8.76239175 26.4154105,8.6196318 C26.4560782,8.21536767 26.3571201,7.82044298 26.1551371,7.48288909 C25.9314645,7.11331429 25.5871444,6.81311815 25.1425107,6.66235298 C24.289844,6.37416469 23.3761757,6.71838959 22.9152748,7.43619191 C22.1276766,7.28942936 21.3156776,7.20937705 20.4833448,7.20937705 C13.3000689,7.20937705 7.47645051,12.941122 7.47645051,20.0137431 C7.47645051,24.9809885 10.3516588,29.2837998 14.5526349,31.4065201 C14.4685882,32.2524061 14.9742236,33.0756106 15.8268902,33.3637989 C16.0315844,33.4331776 16.2403454,33.4665327 16.4463953,33.4665327 C16.7527588,33.4665327 17.0509888,33.390483 17.3180402,33.2543941 C17.6149145,33.1049631 17.86841,32.8768141 18.0514149,32.58996 C18.1300391,32.4685473 18.1991743,32.3404636 18.2493311,32.1990379 L19.7567482,27.8775477 Z M20.4833448,0.000667102532 C31.7144152,0.000667102532 40.8172078,8.9598541 40.8172078,20.0137431 C40.8172078,31.0662978 31.7144152,40.0268189 20.4833448,40.0268189 C9.25363011,40.0268189 0.149481898,31.0662978 0.149481898,20.0137431 C0.149481898,8.9598541 9.25363011,0.000667102532 20.4833448,0.000667102532 Z M12.4575692,20.0133428 C12.4575692,15.649158 16.0512405,12.1135146 20.4840226,12.1135146 C20.7307402,12.1135146 20.9720354,12.1281909 21.2119749,12.1482039 L16.1515542,26.6563498 C13.9310964,25.2514319 12.4575692,22.8031656 12.4575692,20.0133428 Z" id="SYMBOL"></path>
        </g>
    </g>
</svg>