<?xml version="1.0" encoding="UTF-8"?>
<svg width="100px" height="40px" viewBox="0 0 100 40" version="1.1" xmlns="http://www.w3.org/2000/svg" xmlns:xlink="http://www.w3.org/1999/xlink">
    <!-- Generator: Sketch 63.1 (92452) - https://sketch.com -->
    <title>Comparisons/Logos/Wix</title>
    <desc>Created with Sketch.</desc>
    <g id="Comparisons" stroke="none" stroke-width="1" fill="none" fill-rule="evenodd">
        <g id="Comparisons/Logos/Wix" fill="#FFFFFF">
            <path d="M57.1831944,1.22027778 C55.2026389,2.25777778 54.4651389,4.01055556 54.4651389,8.85083333 C54.4651389,8.85083333 55.4679167,7.88138889 56.9554167,7.34111111 C58.0401389,6.94944444 58.9665278,6.35083333 59.50125,5.95916667 C61.1748611,4.73277778 61.4345833,3.155 61.4345833,0.496666667 C61.4345833,0.496666667 58.7054167,0.423055556 57.1831944,1.22027778 M45.4373611,2.35416667 C43.8220833,3.77777778 43.3498611,6.04722222 43.3498611,6.04722222 L38.0026389,26.7652778 L33.5554167,9.80833333 C33.1220833,8.00555556 32.3415278,5.77777778 31.1054167,4.27083333 C29.5318056,2.35138889 26.3331944,2.23055556 25.9929167,2.23055556 C25.65125,2.23055556 22.4526389,2.35138889 20.8776389,4.27083333 C19.6429167,5.77777778 18.8623611,8.00555556 18.4290278,9.80833333 L13.9818056,26.7652778 L8.63319444,6.04722222 C8.63319444,6.04722222 8.16236111,3.77777778 6.54708333,2.35416667 C3.92763889,0.0458333333 -0.000138888889,0.538888889 -0.000138888889,0.538888889 L10.2401389,39.2569444 C10.2401389,39.2569444 13.6179167,39.5013889 15.3095833,38.6388889 C17.5290278,37.5083333 18.5859722,36.6347222 19.9304167,31.3666667 C21.1276389,26.6694444 24.47625,12.8736111 24.78875,11.8916667 C24.9443056,11.4069444 25.1401389,10.2472222 25.9929167,10.2472222 C26.8623611,10.2472222 27.0429167,11.4055556 27.1943056,11.8916667 C27.50125,12.875 30.8554167,26.6694444 32.0540278,31.3666667 C33.3984722,36.6347222 34.4540278,37.5083333 36.6748611,38.6388889 C38.3651389,39.5013889 41.7429167,39.2569444 41.7429167,39.2569444 L51.9831944,0.538888889 C51.9831944,0.538888889 48.0568056,0.0458333333 45.4373611,2.35416667 M61.43125,6.85986111 C61.43125,6.85986111 60.7909722,7.85152778 59.3284722,8.66819444 C58.3909722,9.19319444 57.4895833,9.54875 56.5229167,10.0126389 C54.9034722,10.7890278 54.4645833,11.6543056 54.4645833,12.97375 L54.4645833,13.4154167 L54.4645833,15.4543056 L54.4645833,15.5098611 L54.4645833,15.9695833 L54.4645833,39.2570833 C54.4645833,39.2570833 57.0493056,39.5848611 58.7395833,38.7223611 C60.9145833,37.6140278 61.4145833,36.5445833 61.4340278,31.7293056 L61.4340278,8.26263889 L61.43125,8.26402778 L61.43125,6.85986111 Z M86.9561111,19.9919444 L99.9491667,0.666944444 C99.9491667,0.666944444 94.4658333,-0.266388889 91.7505556,2.20444444 C90.0130556,3.78638889 88.07,6.63083333 88.07,6.63083333 L83.2894444,13.5225 C83.0575,13.8808333 82.7533333,14.2711111 82.2686111,14.2711111 C81.7838889,14.2711111 81.4811111,13.8808333 81.2491667,13.5225 L76.4686111,6.63083333 C76.4686111,6.63083333 74.5255556,3.78638889 72.7880556,2.20444444 C70.0727778,-0.266388889 64.5894444,0.666944444 64.5894444,0.666944444 L77.5811111,19.9919444 L64.6227778,39.2572222 C64.6227778,39.2572222 70.3338889,39.9794444 73.0491667,37.5058333 C74.7866667,35.9252778 76.4686111,33.3530556 76.4686111,33.3530556 L81.2491667,26.4627778 C81.4811111,26.1030556 81.7838889,25.7141667 82.2686111,25.7141667 C82.7533333,25.7141667 83.0575,26.1030556 83.2894444,26.4627778 L88.07,33.3530556 C88.07,33.3530556 89.8491667,35.9252778 91.5866667,37.5058333 C94.3033333,39.9794444 99.9144444,39.2572222 99.9144444,39.2572222 L86.9561111,19.9919444 Z" id="Shape"></path>
        </g>
    </g>
</svg>