<?xml version="1.0" encoding="UTF-8"?>
<svg width="206px" height="42px" viewBox="0 0 206 42" version="1.1" xmlns="http://www.w3.org/2000/svg" xmlns:xlink="http://www.w3.org/1999/xlink">
    <!-- Generator: Sketch 63.1 (92452) - https://sketch.com -->
    <title>Comparisons/Logos/WordPress@2x</title>
    <desc>Created with Sketch.</desc>
    <g id="Comparisons" stroke="none" stroke-width="1" fill="none" fill-rule="evenodd">
        <g id="/comparisons-HOVER" transform="translate(-238.000000, -2027.000000)" fill="#FFFFFF">
            <g id="Text-1" transform="translate(0.000000, 396.000000)">
                <g id="Comparison-card" transform="translate(165.000000, 1560.000000)">
                    <g id="Comparisons/Logos/WordPress" transform="translate(73.000000, 71.000000)">
                        <path d="M21.0049567,0 C32.6056259,0 42.0099135,9.40206837 42.0099135,21 C42.0099135,32.5979316 32.6056259,42 21.0049567,42 C9.40428759,42 3.55271368e-15,32.5979316 3.55271368e-15,21 C3.55271368e-15,9.40206837 9.40428759,0 21.0049567,0 Z M21.0049567,1.26006372 C18.3388831,1.26006372 15.7531864,1.78168302 13.3199228,2.81076161 C12.1502071,3.30529989 11.0219192,3.91754324 9.96639556,4.63049965 C8.92060918,5.33690705 7.93714154,6.14809851 7.04343413,7.04177202 C6.14954968,7.93526853 5.33816675,8.9185041 4.63159261,9.96404369 C3.91864496,11.0193183 3.30608006,12.1473399 2.81142505,13.3166026 C1.78210356,15.749469 1.26036114,18.3345555 1.26036114,21 C1.26036114,23.6654445 1.78210356,26.250531 2.81142505,28.6833974 C3.30608006,29.8526601 3.91864496,30.9806817 4.63159261,32.0359563 C5.33816675,33.0814959 6.14954968,34.0647315 7.04343413,34.958228 C7.93714154,35.8519015 8.92060918,36.663093 9.96639556,37.3695004 C11.0219192,38.0824568 12.1502071,38.6947001 13.3199228,39.1892384 C15.7531864,40.218317 18.3388831,40.7399363 21.0049567,40.7399363 C23.6710304,40.7399363 26.2567271,40.218317 28.6901677,39.1892384 C29.8597063,38.6947001 30.9879942,38.0824568 32.0435179,37.3695004 C33.0893043,36.663093 34.0727719,35.8519015 34.9664794,34.958228 C35.8603638,34.0647315 36.6717467,33.0814959 37.3783209,32.0359563 C38.0914456,30.9806817 38.7038334,29.8526601 39.1984884,28.6833974 C40.2278099,26.250531 40.7495523,23.6654445 40.7495523,21 C40.7495523,18.3345555 40.2278099,15.749469 39.1984884,13.3166026 C38.7038334,12.1473399 38.0914456,11.0193183 37.3783209,9.96404369 C36.6717467,8.9185041 35.8603638,7.93526853 34.9664794,7.04177202 C34.0727719,6.14809851 33.0893043,5.33690705 32.0435179,4.63049965 C30.9879942,3.91754324 29.8597063,3.30529989 28.6901677,2.81076161 C26.2567271,1.78168302 23.6710304,1.26006372 21.0049567,1.26006372 Z M21.3124431,22.5301305 L26.6923917,37.2666279 C26.7279771,37.3535349 26.7711753,37.433008 26.8180914,37.507879 C24.9988091,38.1482654 23.0433815,38.4999646 21.0049213,38.4999646 C19.2869069,38.4999646 17.6285557,38.2482705 16.0597876,37.7870082 L16.0597876,37.7870082 L21.3124431,22.5301305 Z M5.01644625,13.8774805 L13.3664494,36.7485486 C7.5269001,33.912299 3.50079072,27.9259786 3.50079072,20.9994336 C3.50079072,18.4621371 4.04519449,16.0536968 5.01644625,13.8774805 L5.01644625,13.8774805 Z M36.3654289,12.6041418 C37.731484,15.0964802 38.509052,17.9568019 38.509052,20.9994336 C38.509052,27.4553353 35.0094651,33.0919035 29.8054961,36.1251542 L29.8054961,36.1251542 L35.1516298,20.6712754 C36.1505,18.174866 36.4831617,16.1786588 36.4831617,14.4035248 C36.4831617,13.7594215 36.4404946,13.1615151 36.3654289,12.6041418 Z M54.4729359,10.9200212 L54.4729359,11.8536968 C51.7186954,11.8536968 50.9717557,12.5068271 51.9523907,15.3997168 L55.0793044,24.9203752 L59.7937526,10.9200212 L60.6809094,10.9200212 L65.3017025,24.9203752 L68.5222713,15.3997168 C69.4561672,12.6468342 69.0360468,11.8536968 66.0486422,11.8536968 L66.0486422,10.9200212 L74.824077,10.9200212 L74.824077,11.8536968 C71.8834114,11.8536968 71.1833878,12.5535552 70.0163277,15.9602761 L64.6948029,31.9200212 L64.0882574,31.9200212 L59.3268931,17.3134419 L54.4729359,31.9200212 L53.8658593,31.9200212 L48.6849058,15.9602761 C47.5647618,12.5535552 46.8178221,11.8536968 44.1104977,11.8536968 L44.1104977,10.9200212 L54.4729359,10.9200212 Z M21.0049213,3.4999646 C25.5619793,3.4999646 29.7111328,5.2418226 32.8252995,8.09453323 C32.7498796,8.08975422 32.6764072,8.08037322 32.5986859,8.08037322 C30.8792551,8.08037322 29.6592595,9.57779407 29.6592595,11.186194 C29.6592595,12.6283908 30.4913564,13.8484525 31.3786903,15.2906493 C32.0443677,16.456018 32.8217586,17.9532619 32.8217586,20.1167341 C32.8217586,21.614155 32.3513583,23.385395 31.5491816,25.8853444 L31.5491816,25.8853444 L29.7433544,31.6059877 L23.4176481,12.7945939 C24.4712243,12.7393699 25.4206999,12.6283908 25.4206999,12.6283908 C26.363802,12.5168808 26.2527967,11.13097 25.3093405,11.186194 L25.2993839,11.1869694 C25.1149957,11.2012735 22.4108964,11.4086831 20.6435789,11.4086831 C18.923617,11.4086831 16.0335854,11.186194 16.0335854,11.186194 L15.9199432,11.1868788 C15.0822075,11.2487027 15.0182649,12.5749589 15.9225801,12.6283908 C15.9225801,12.6283908 16.8154023,12.7393699 17.7585044,12.7945939 L17.7585044,12.7945939 L20.4854805,20.2647062 L16.6542942,31.7502427 L10.2802554,12.7945939 C11.3348939,12.7393699 12.2834843,12.6283908 12.2834843,12.6283908 C13.2262323,12.5168808 13.1146959,11.13097 12.1715938,11.186194 L12.161639,11.1869694 C11.977285,11.2012735 9.27368075,11.4086831 7.50636324,11.4086831 C7.17795055,11.4086831 6.79075996,11.4003641 6.37966872,11.3874431 C9.50976915,6.63711439 14.8893637,3.4999646 21.0049213,3.4999646 Z M81.1709576,14.9797841 C86.3057032,14.9797841 90.5063759,18.7601522 90.5063759,23.3331268 C90.5063759,27.9533605 86.3057032,31.7331976 81.1709576,31.7331976 C76.0369201,31.7331976 71.8355393,27.9533605 71.8355393,23.3331268 C71.8355393,18.7601522 76.0369201,14.9797841 81.1709576,14.9797841 Z M204.599776,14.9798018 L204.599776,20.4869829 L203.619495,20.4869829 C203.292676,18.2934207 202.079231,16.4735056 199.605601,16.4735056 C198.298678,16.4735056 197.084702,17.220269 197.084702,18.3870537 C197.084702,19.6000354 198.064806,20.2533428 200.305802,21.2801204 L202.872555,22.5400071 C205.113551,23.6129817 206,25.3403257 206,26.7402195 C206,29.6801912 203.432716,31.7332153 200.305802,31.7332153 C198.438541,31.7332153 196.804622,30.7531658 196.104598,30.1464094 C195.871257,30.3800496 195.451137,31.080085 195.358013,31.7332153 L194.471033,31.7332153 L194.471033,25.2935977 L195.404398,25.2935977 C195.778133,28.3733994 197.924766,30.1933145 200.679006,30.1933145 C202.172532,30.1933145 203.386331,29.353272 203.386331,27.9533782 C203.386331,26.7402195 202.312395,25.8065439 200.398926,24.9203044 L197.738518,23.6604177 C195.871257,22.7731162 194.471033,21.2332153 194.471033,19.1801912 C194.471033,16.9402549 196.571458,15.0272378 199.465738,15.0272378 C201.006003,15.0272378 202.312395,15.5872661 203.10625,16.2402195 C203.339592,16.0534844 203.572756,15.5398301 203.712796,14.9798018 L204.599776,14.9798018 Z M190.485944,14.9798018 L190.485944,20.4869829 L189.50584,20.4869829 C189.178844,18.2934207 187.965576,16.4735056 185.491947,16.4735056 C184.184847,16.4735056 182.97087,17.220269 182.97087,18.3870537 C182.97087,19.6000354 183.951151,20.2533428 186.19197,21.2801204 L188.758723,22.5400071 C190.99972,23.6129817 191.886168,25.3403257 191.886168,26.7402195 C191.886168,29.6801912 189.318884,31.7332153 186.19197,31.7332153 C184.32471,31.7332153 182.69079,30.7531658 181.990766,30.1464094 C181.757425,30.3800496 181.337482,31.080085 181.244181,31.7332153 L180.357201,31.7332153 L180.357201,25.2935977 L181.290566,25.2935977 C181.664301,28.3733994 183.811111,30.1933145 186.565175,30.1933145 C188.0587,30.1933145 189.272676,29.353272 189.272676,27.9533782 C189.272676,26.7402195 188.19874,25.8065439 186.285094,24.9203044 L183.624686,23.6604177 C181.757425,22.7731162 180.357201,21.2332153 180.357201,19.1801912 C180.357201,16.9402549 182.457626,15.0272378 185.351907,15.0272378 C186.892171,15.0272378 188.19874,15.5872661 188.992596,16.2402195 C189.22576,16.0534844 189.458924,15.5398301 189.599495,14.9798018 L190.485944,14.9798018 Z M137.181856,10.9200212 C141.989606,10.9200212 144.650722,13.3935977 144.650722,16.7070395 C144.650722,19.9270254 141.989606,22.4467988 137.181856,22.4467988 L134.521448,22.4467988 L134.521448,24.7331091 C134.521448,29.4000708 135.081431,30.1932083 138.208876,30.1932083 L138.208876,31.1263528 L127.52015,31.1263528 L127.52015,30.1932083 C130.647595,30.1932083 131.207578,29.4000708 131.207578,24.7331091 L131.207578,17.2670679 C131.207578,12.5999292 130.647595,11.8536968 127.52015,11.8536968 L127.52015,10.9200212 L137.181856,10.9200212 Z M99.514904,15.587213 C103.622453,15.587213 105.816002,17.5471351 105.816002,20.1132826 C105.816002,22.1668378 104.275737,23.9867528 101.382165,24.5004071 L101.382165,24.5004071 L103.528798,26.8334454 C105.396058,28.8864696 106.749897,29.9601522 108.756667,30.2401664 C111.370336,30.2401664 111.79028,29.63341 111.79028,26.3203221 L111.79028,26.3203221 L111.79028,20.3469227 C111.79028,17.0334808 111.370336,16.4734525 108.756667,16.4734525 L108.756667,16.4734525 L108.756667,15.587213 L117.111805,15.587213 C123.786815,15.587213 126.680387,19.087036 126.680387,23.3330914 C126.680387,27.5802089 123.786815,31.1264059 117.111805,31.1264059 L117.111805,31.1264059 L103.528798,31.1264059 L98.347844,24.6404142 L97.5545193,24.6404142 L97.5545193,26.3203221 C97.5545193,29.63341 97.9746397,30.2401664 100.588309,30.2401664 L100.588309,30.2401664 L100.588309,31.1264059 L91.2996297,31.1264059 L91.2996297,30.2401664 C93.913299,30.2401664 94.3334194,29.63341 94.3334194,26.3203221 L94.3334194,26.3203221 L94.3334194,20.3469227 C94.3334194,17.0334808 93.913299,16.4734525 91.2996297,16.4734525 L91.2996297,16.4734525 L91.2996297,15.587213 Z M153.939242,15.587213 C158.046791,15.587213 160.24034,17.5471351 160.24034,20.1132826 C160.24034,22.1668378 158.700075,23.9867528 155.805795,24.5004071 L155.805795,24.5004071 L157.953135,26.8334454 C159.792778,28.8563796 161.137588,29.9245752 163.096379,30.2233514 C165.15697,30.1146733 165.513886,29.3510949 165.513886,26.3203221 L165.513886,26.3203221 L165.513111,20.1093455 C165.492096,17.0063271 165.030195,16.4734525 162.480273,16.4734525 L162.480273,16.4734525 L162.480273,15.587213 L176.203321,15.587213 L176.529609,19.9732755 L175.7832,19.9732755 L175.549505,19.087036 C175.129385,17.5471351 174.61614,16.9871068 171.301916,16.9871068 L171.301916,16.9871068 L168.735163,16.9871068 L168.735163,22.2130348 C172.375675,22.2130348 172.655755,21.8868236 172.655755,19.4601522 L172.655755,19.4601522 L173.542912,19.4601522 L173.542912,26.4134242 L172.655755,26.4134242 C172.655755,23.9867528 172.375675,23.6603646 168.735163,23.6603646 L168.735163,23.6603646 L168.735975,26.0500476 C168.757414,29.1477611 169.215779,29.6801381 171.581996,29.6801381 L171.581996,29.6801381 L172.235812,29.6801381 C175.549505,29.6801381 176.06328,29.1201097 176.483401,27.5802089 L176.483401,27.5802089 L176.716565,26.7403434 L177.416589,26.7403434 L177.136685,31.1264059 L157.953135,31.1264059 L152.772182,24.6404142 L151.978857,24.6404142 L151.978857,26.3203221 C151.978857,29.633233 152.398978,30.2401664 155.01247,30.2401664 L155.01247,30.2401664 L155.01247,31.1264059 L145.723968,31.1264059 L145.723968,30.2401664 C148.337637,30.2401664 148.757757,29.633233 148.757757,26.3203221 L148.757757,26.3203221 L148.757757,20.3469227 C148.757757,17.0333038 148.337637,16.4734525 145.723968,16.4734525 L145.723968,16.4734525 L145.723968,15.587213 Z M81.1709576,16.4271139 C76.8769838,16.4271139 75.3831044,20.3000531 75.3831044,23.3331268 C75.3831044,26.4134596 76.8769838,30.2400248 81.1709576,30.2400248 C85.5123785,30.2400248 87.0057268,26.4134596 87.0057268,23.3331268 C87.0057268,20.3000531 85.5123785,16.4271139 81.1709576,16.4271139 Z M117.251845,16.9871068 L115.01138,16.9871068 L115.01138,27.1134596 C115.01138,29.2601168 115.244721,29.6801381 116.925025,29.6801381 L116.925025,29.6801381 L117.251845,29.6801381 C122.105979,29.6801381 122.992959,26.13341 122.992959,23.2867174 C122.992959,20.5333038 122.105979,16.9871068 117.251845,16.9871068 L117.251845,16.9871068 Z M99.4679879,16.9871068 L97.5545193,16.9871068 L97.5545193,23.1930844 L99.4679879,23.1930844 C101.568413,23.1930844 102.502309,21.7468165 102.502309,20.1132826 C102.502309,18.4333746 101.568413,16.9871068 99.4679879,16.9871068 L99.4679879,16.9871068 Z M153.892326,16.9871068 L151.978857,16.9871068 L151.978857,23.1930844 L153.892326,23.1930844 C155.992751,23.1930844 156.926647,21.7468165 156.926647,20.1132826 C156.926647,18.4333746 155.992751,16.9871068 153.892326,16.9871068 L153.892326,16.9871068 Z M137.181856,12.5999292 L134.521448,12.5999292 L134.521448,20.7199858 L137.181856,20.7199858 C139.796057,20.7199858 141.009325,18.9002478 141.009325,16.7070395 C141.009325,14.4672803 139.796057,12.5999292 137.181856,12.5999292 Z" id="Combined-Shape"></path>
                    </g>
                </g>
            </g>
        </g>
    </g>
</svg>