<svg height="18" viewBox="0 0 18 18" width="18" xmlns="http://www.w3.org/2000/svg"><path d="m10 19.5c4.1421356 0 7.5-3.3578644 7.5-7.5 0-4.14213562-3.3578644-7.5-7.5-7.5-4.14213562 0-7.5 3.35786438-7.5 7.5 0 4.1421356 3.35786438 7.5 7.5 7.5zm0 1.5c-4.97056275 0-9-4.0294373-9-9 0-4.97056275 4.02943725-9 9-9 4.9705627 0 9 4.02943725 9 9 0 4.9705627-4.0294373 9-9 9zm-1.07478402-7.0190497-2.89504781-2.8932808-1.06033634 1.0609839 3.95688203 3.954467 6.35929024-6.37337738-1.061833-1.05948604z" fill="#D1C6F9" fill-rule="evenodd" transform="translate(-1 -3)"/></svg>