<?xml version="1.0" encoding="UTF-8"?>
<svg width="231px" height="39px" viewBox="0 0 231 39" version="1.1" xmlns="http://www.w3.org/2000/svg" xmlns:xlink="http://www.w3.org/1999/xlink">
    <!-- Generator: Sketch 55.2 (78181) - https://sketchapp.com -->
    <title>Logo</title>
    <desc>Created with Sketch.</desc>
    <g id="Page-1" stroke="none" stroke-width="1" fill="none" fill-rule="evenodd">
        <g id="/brand-copy-2" transform="translate(-605.000000, -1853.000000)" fill="#FFFFFF">
            <g id="Group-8" transform="translate(450.000000, 1632.000000)">
                <g id="-Badges-&amp;-Logos-/-Leadpages-Logo-/-White" transform="translate(155.000000, 221.000000)">
                    <g id="Logo">
                        <path d="M51.0936287,24.3872063 L44.6903756,21.0370011 L25.9927533,30.8209133 C25.784409,30.930672 25.5350116,30.930672 25.3266672,30.8209133 L6.63007133,21.0370011 L0.227844557,24.3872063 C-0.0759481856,24.5462026 -0.0759481856,24.9801085 0.227844557,25.1391048 L25.3266672,38.2742479 C25.5350116,38.3829808 25.784409,38.3829808 25.9927533,38.2742479 L51.0936287,25.1391048 C51.3974214,24.9811343 51.3974214,24.5462026 51.0936287,24.3872063 M4.9191845,16.9441295 L25.3266672,27.6235497 C25.5350116,27.7333084 25.784409,27.7333084 25.9927533,27.6235497 L46.4022887,16.9441295 C46.7060815,16.7851332 46.7060815,16.3502015 46.4022887,16.1912052 L40.5501731,13.1292449 L25.9927533,20.7467047 C25.784409,20.8564634 25.5360379,20.8564634 25.3266672,20.7467047 L10.7702738,13.1292449 L4.9191845,16.1912052 C4.61539176,16.3502015 4.61539176,16.7851332 4.9191845,16.9441295 M9.3559954,9.19229219 L25.3266672,17.5493411 C25.5350116,17.6590998 25.784409,17.6590998 25.9927533,17.5493411 L41.9644515,9.19229219 C42.2682442,9.03329592 42.2682442,8.5983642 41.9644515,8.43936793 L25.9927533,0.0823190345 C25.784409,-0.0274396782 25.5350116,-0.0274396782 25.3266672,0.0823190345 L9.3559954,8.43936793 C9.05322898,8.5983642 9.05322898,9.03329592 9.3559954,9.19229219" id="Fill-1"></path>
                        <path d="M146.289548,15.2933892 C145.653225,14.4809696 144.698741,13.8449845 143.320384,13.8449845 C139.855505,13.8449845 139.148366,17.1305654 139.148366,19.7801613 C139.148366,22.4307829 139.855505,25.6804614 143.320384,25.6804614 C144.698741,25.6804614 145.653225,25.0444764 146.289548,24.2320567 C147.20811,23.0308656 147.456481,21.3701239 147.456481,19.7801613 C147.456481,18.1901986 147.20811,16.4945804 146.289548,15.2933892 M148.65831,27.9064091 C147.526271,28.8255101 146.042203,29.3907162 144.16813,29.3907162 C141.976922,29.3907162 140.209587,28.6131732 139.360815,27.5884166 L139.360815,35.9629038 L134.941452,35.9629038 L134.941452,10.5583778 L138.759388,10.5583778 L139.042654,12.5730144 C140.138771,10.8763704 142.188346,10.1347297 144.204051,10.1347297 C146.042203,10.1347297 147.526271,10.7707148 148.65831,11.68879 C150.849518,13.4910896 151.945635,16.2473668 151.945635,19.7093823 C151.945635,23.3139815 150.849518,26.1041095 148.65831,27.9064091" id="Fill-3"></path>
                        <polygon id="Fill-5" points="62.4006714 28.948604 62.4006714 3.89797297 66.9606415 3.89797297 66.9606415 24.6382665 75.6238663 24.6382665 78.1517093 28.948604"></polygon>
                        <path d="M123.273142,13.8470361 C121.896838,13.8470361 120.94338,14.4830212 120.308084,15.294415 C119.390548,16.4925288 119.143203,18.1512189 119.143203,19.73913 C119.143203,21.3270411 119.390548,23.0185562 120.308084,24.2187216 C120.94338,25.0301154 121.896838,25.6661005 123.273142,25.6661005 C126.731864,25.6661005 127.437976,22.3846227 127.437976,19.73913 C127.437976,17.0936373 126.731864,13.8470361 123.273142,13.8470361 L123.273142,13.8470361 Z M127.825928,28.9455267 L127.543688,26.9349932 C126.449624,28.6285599 124.402102,29.3691748 122.390501,29.3691748 C120.555429,29.3691748 119.037491,28.7342155 117.908532,27.8181919 C115.719377,26.0189696 114.661234,23.2657697 114.661234,19.809909 C114.661234,16.2104387 115.755298,13.4244138 117.943427,11.6241657 C119.072386,10.7081421 120.555429,10.1439618 122.425396,10.1439618 C124.755158,10.1439618 126.449624,10.9194532 127.225527,11.8713793 L127.225527,3.89797297 L131.637706,3.89797297 L131.637706,28.9455267 L127.825928,28.9455267 Z" id="Fill-7"></path>
                        <path d="M180.923555,34.0077626 C179.194194,34.0077626 176.299952,33.7964515 176.299952,31.4679255 C176.299952,30.3046883 177.005039,29.4922687 177.958497,29.2101785 L181.417218,29.2101785 C183.076789,29.2101785 185.794502,29.2101785 185.794502,31.4679255 C185.794502,33.902107 182.687811,34.0077626 180.923555,34.0077626 M180.605394,13.4418521 C182.616994,13.4418521 183.852692,14.889231 183.852692,16.8648878 C183.852692,18.8405446 182.616994,20.2499696 180.605394,20.2499696 C178.593793,20.2499696 177.359122,18.8405446 177.359122,16.8648878 C177.359122,14.889231 178.593793,13.4418521 180.605394,13.4418521 M187.735286,26.9524315 C186.005925,25.7543177 183.605347,25.7194411 181.770274,25.7194411 L178.735426,25.7194411 C177.81789,25.7194411 176.722799,25.470176 176.722799,24.3777178 C176.722799,23.7786609 177.216462,23.3201362 177.641362,23.0718969 C178.558898,23.3909152 179.582146,23.5673498 180.605394,23.5673498 C184.558804,23.5673498 187.932341,21.1690706 187.932341,17.2875101 C187.932341,14.3835203 185.651843,13.4787802 185.613868,13.4285169 L189.421541,13.4285169 L191.348983,10.1347297 L180.605394,10.1347297 C176.476481,10.1347297 173.087549,12.489926 173.087549,16.8648878 C173.087549,18.7328375 173.793662,20.2499696 174.922622,21.3803818 C173.440606,22.2964054 172.734493,23.5314474 172.734493,25.0824303 C172.734493,26.2836214 173.405711,27.5873908 174.570592,28.2233759 C172.452253,29.2809575 171.763588,32.0085128 172.982864,34.3708896 C175.032439,37.1989716 178.187368,37.5005516 181.100083,37.5005516 C185.194101,37.5005516 189.959336,36.1947306 189.959336,31.3622699 C189.959336,29.5979243 189.323014,28.0469413 187.735286,26.9524315" id="Fill-9"></path>
                        <path d="M216.252195,29.4491858 C215.231,29.4491858 214.070224,29.3086536 213.083924,28.9916869 C210.761347,28.218247 208.789773,26.4939068 208.262241,24.0310034 L211.852332,22.7292856 C212.239257,24.8403457 214.280621,25.8609991 216.28709,25.8609991 C217.413997,25.8609991 218.258664,25.7204669 218.891908,25.3327212 C219.490256,24.9808778 219.807391,24.4885023 219.807391,23.8555946 C219.807391,22.7292856 219.103331,22.1312544 217.906634,21.9209691 L213.506771,21.1465034 C210.515028,20.6192512 208.860589,18.5081911 208.860589,16.1858199 C208.860589,12.5976332 212.09865,10.1347297 216.252195,10.1347297 C219.807391,10.1347297 222.658527,11.6477587 223.538089,14.954881 L219.913103,16.3622544 C219.526178,14.4973821 217.870713,13.6531632 216.28709,13.6531632 C215.688742,13.6531632 215.090393,13.6880398 214.457149,13.9342276 C213.647378,14.2511943 213.049029,14.8143489 213.049029,15.7283209 C213.049029,17.0300388 214.175936,17.2413499 215.16121,17.4177845 L218.822117,18.1214712 C221.708149,18.6835999 223.926041,20.5135957 223.926041,23.3980957 C223.926041,27.0919379 220.933272,29.4491858 216.252195,29.4491858" id="Fill-11"></path>
                        <path d="M88.0680791,14.7969106 C87.4317565,14.1260489 86.4782988,13.701375 85.2056536,13.701375 C82.8728127,13.701375 81.1054779,15.3621166 80.8940546,17.8701545 L89.1282747,17.8701545 C89.0933796,16.5981844 88.7392969,15.5744536 88.0680791,14.7969106 M93.4398737,21.0839307 L80.9289497,21.0839307 C80.9648711,23.8391821 83.0493409,25.7112349 85.5946314,25.7112349 C88.0680791,25.7112349 89.3756195,24.4402905 90.0119421,22.8154513 L93.4757952,24.263856 C92.5562063,27.0180816 89.7994925,29.4204639 85.6644217,29.4204639 C80.3285485,29.4204639 76.4408224,25.4999237 76.4408224,19.8129863 C76.4408224,14.6553526 79.6214093,10.1347297 85.2405487,10.1347297 C88.3154239,10.1347297 90.824793,11.4764531 92.2739665,13.9844909 C93.2633455,15.6442068 93.5815068,17.5870386 93.5455854,19.5657728 C93.5455854,20.483848 93.4398737,21.0839307 93.4398737,21.0839307" id="Fill-13"></path>
                        <path d="M107.566236,20.7997889 L102.901581,21.1526581 C101.559145,21.2593394 100.251605,22.0707333 100.251605,23.5540146 C100.251605,24.9675427 101.417512,25.8497155 102.866686,25.8497155 C105.622373,25.8497155 107.566236,24.3664342 107.566236,21.6470852 L107.566236,20.7997889 Z M111.876809,24.4023366 C111.876809,25.2496328 112.371498,25.5676254 113.113533,25.5676254 C113.396799,25.5676254 113.644144,25.4968464 113.644144,25.4968464 L113.644144,28.6049669 C113.149454,28.9578361 112.618843,29.2399262 111.558648,29.2399262 C109.650706,29.2399262 108.308271,28.0397608 108.166637,26.6621351 C107.142363,28.180293 105.1985,29.4163608 102.584446,29.4163608 C98.2020302,29.4163608 95.9410322,26.6621351 95.9410322,23.6606959 C95.9410322,20.1638039 98.6618247,18.1512189 102.159547,17.9040053 L107.566236,17.5152338 L107.566236,16.7735932 C107.566236,14.8317872 106.258696,13.701375 104.10341,13.701375 C101.629962,13.701375 100.428133,14.9015404 100.110998,16.7387166 L96.4008267,15.9262969 C96.6830665,12.8540788 99.6163086,10.1347297 104.209121,10.1347297 C108.979488,10.1347297 111.876809,12.4653073 111.876809,17.0915857 L111.876809,24.4023366 Z" id="Fill-15"></path>
                        <path d="M164.506849,20.7997889 L159.842193,21.1526581 C158.499758,21.2593394 157.192218,22.0707333 157.192218,23.5540146 C157.192218,24.9675427 158.358125,25.8497155 159.807298,25.8497155 C162.562986,25.8497155 164.506849,24.3664342 164.506849,21.6470852 L164.506849,20.7997889 Z M168.817422,24.4023366 C168.817422,25.2496328 169.312111,25.5676254 170.054145,25.5676254 C170.337412,25.5676254 170.584756,25.4968464 170.584756,25.4968464 L170.584756,28.6049669 C170.090067,28.9578361 169.559456,29.2399262 168.49926,29.2399262 C166.591319,29.2399262 165.248883,28.0397608 165.10725,26.6621351 C164.082976,28.180293 162.139113,29.4163608 159.525058,29.4163608 C155.142643,29.4163608 152.881645,26.6621351 152.881645,23.6606959 C152.881645,20.1638039 155.602437,18.1512189 159.100159,17.9040053 L164.506849,17.5152338 L164.506849,16.7735932 C164.506849,14.8317872 163.199309,13.701375 161.044022,13.701375 C158.570574,13.701375 157.368746,14.9015404 157.051611,16.7387166 L153.341439,15.9262969 C153.623679,12.8540788 156.556921,10.1347297 161.149734,10.1347297 C165.920101,10.1347297 168.817422,12.4653073 168.817422,17.0915857 L168.817422,24.4023366 Z" id="Fill-17"></path>
                        <path d="M201.949304,14.7969106 C201.312982,14.1260489 200.359524,13.701375 199.086879,13.701375 C196.754038,13.701375 194.986703,15.3621166 194.77528,17.8701545 L203.0095,17.8701545 C202.974605,16.5981844 202.620522,15.5744536 201.949304,14.7969106 M207.321099,21.0839307 L194.810175,21.0839307 C194.846096,23.8391821 196.930566,25.7112349 199.475857,25.7112349 C201.949304,25.7112349 203.256845,24.4402905 203.893167,22.8154513 L207.35702,24.263856 C206.437432,27.0180816 203.680718,29.4204639 199.545647,29.4204639 C194.209774,29.4204639 190.322048,25.4999237 190.322048,19.8129863 C190.322048,14.6553526 193.502635,10.1347297 199.121774,10.1347297 C202.196649,10.1347297 204.706018,11.4764531 206.155192,13.9844909 C207.144571,15.6442068 207.462732,17.5870386 207.426811,19.5657728 C207.426811,20.483848 207.321099,21.0839307 207.321099,21.0839307" id="Fill-19"></path>
                        <g id="Group-23" transform="translate(225.545585, 9.633738)">
                            <path d="M2.367736,1.45661095 L1.89665199,1.45661095 L1.89665199,2.19722582 L2.367736,2.19722582 C2.61918607,2.19722582 2.78237204,2.08438976 2.78237204,1.82076369 C2.78237204,1.57560171 2.5935279,1.45661095 2.367736,1.45661095 L2.367736,1.45661095 Z M2.77621408,3.47227329 L2.37389396,2.58702312 L1.90280995,2.58702312 L1.90280995,3.47227329 L1.48201595,3.47227329 L1.48201595,1.06783944 L2.367736,1.06783944 C2.82650409,1.06783944 3.22163992,1.3314655 3.22163992,1.82076369 C3.22163992,2.13465309 3.08411213,2.38596977 2.78853,2.51726991 L3.23395585,3.47227329 L2.77621408,3.47227329 Z M2.26715597,0.402106686 C1.15564401,0.402106686 0.420794001,1.21144897 0.420794001,2.31006188 C0.420794001,3.40867479 1.15564401,4.21288816 2.26715597,4.21288816 C3.37866793,4.21288816 4.11351794,3.40252009 4.11351794,2.30390718 C4.11351794,1.20529427 3.37866793,0.402106686 2.26715597,0.402106686 L2.26715597,0.402106686 Z M2.26715597,4.61499484 C0.966799876,4.61499484 0,3.59741874 0,2.31006188 C0,1.0237308 0.966799876,0 2.26715597,0 C3.56751207,0 4.53533827,1.0175761 4.53533827,2.30390718 C4.53533827,3.59126405 3.56751207,4.61499484 2.26715597,4.61499484 L2.26715597,4.61499484 Z" id="Fill-21"></path>
                        </g>
                    </g>
                </g>
            </g>
        </g>
    </g>
</svg>