<?xml version="1.0" encoding="UTF-8"?>
<svg width="52px" height="39px" viewBox="0 0 52 39" version="1.1" xmlns="http://www.w3.org/2000/svg" xmlns:xlink="http://www.w3.org/1999/xlink">
    <!-- Generator: Sketch 55.2 (78181) - https://sketchapp.com -->
    <title>Fill 1</title>
    <desc>Created with Sketch.</desc>
    <g id="Page-1" stroke="none" stroke-width="1" fill="none" fill-rule="evenodd">
        <g id="/brand-copy-2" transform="translate(-830.000000, -2035.000000)" fill="#FFFFFF">
            <g id="Group-14" transform="translate(721.000000, 2055.000000) scale(-1, 1) translate(-721.000000, -2055.000000) translate(451.000000, 2002.000000)">
                <path d="M160.164801,57.767274 L153.843247,54.4481462 L135.384186,64.1413004 C135.1785,64.250041 134.932284,64.250041 134.726598,64.1413004 L116.268551,54.4481462 L109.94801,57.767274 C109.648093,57.9247954 109.648093,58.3546763 109.94801,58.5121977 L134.726598,71.5254961 C134.932284,71.6332204 135.1785,71.6332204 135.384186,71.5254961 L160.164801,58.5121977 C160.464718,58.3556926 160.464718,57.9247954 160.164801,57.767274 M114.579493,50.393241 L134.726598,60.9735963 C134.932284,61.0823369 135.1785,61.0823369 135.384186,60.9735963 L155.533318,50.393241 C155.833234,50.2357196 155.833234,49.8048224 155.533318,49.6473011 L149.755869,46.6137442 L135.384186,54.1605426 C135.1785,54.2692832 134.933298,54.2692832 134.726598,54.1605426 L120.355929,46.6137442 L114.579493,49.6473011 C114.279576,49.8048224 114.279576,50.2357196 114.579493,50.393241 M134.726598,50.9928385 C134.932284,51.1015791 135.1785,51.1015791 135.384186,50.9928385 L151.152102,42.7133116 C151.452019,42.5557902 151.452019,42.124893 151.152102,41.9673717 L135.384186,33.6878448 C135.1785,33.5791042 134.932284,33.5791042 134.726598,33.6878448 L118.959695,41.9673717 C118.660792,42.124893 118.660792,42.5557902 118.959695,42.7133116 L134.726598,50.9928385 Z" id="Fill-1"></path>
            </g>
        </g>
    </g>
</svg>