<?xml version="1.0" encoding="UTF-8"?>
<svg width="52px" height="39px" viewBox="0 0 52 39" version="1.1" xmlns="http://www.w3.org/2000/svg" xmlns:xlink="http://www.w3.org/1999/xlink">
    <!-- Generator: Sketch 55.2 (78181) - https://sketchapp.com -->
    <title>Fill 1 Copy</title>
    <desc>Created with Sketch.</desc>
    <g id="Page-1" stroke="none" stroke-width="1" fill="none" fill-rule="evenodd">
        <g id="/brand-copy-2" transform="translate(-561.000000, -2035.000000)" fill="#603EFF">
            <g id="Group-14" transform="translate(721.000000, 2055.000000) scale(-1, 1) translate(-721.000000, -2055.000000) translate(451.000000, 2002.000000)">
                <path d="M429.164801,57.767274 L422.843247,54.4481462 L404.384186,64.1413004 C404.1785,64.250041 403.932284,64.250041 403.726598,64.1413004 L385.268551,54.4481462 L378.94801,57.767274 C378.648093,57.9247954 378.648093,58.3546763 378.94801,58.5121977 L403.726598,71.5254961 C403.932284,71.6332204 404.1785,71.6332204 404.384186,71.5254961 L429.164801,58.5121977 C429.464718,58.3556926 429.464718,57.9247954 429.164801,57.767274 M383.579493,50.393241 L403.726598,60.9735963 C403.932284,61.0823369 404.1785,61.0823369 404.384186,60.9735963 L424.533318,50.393241 C424.833234,50.2357196 424.833234,49.8048224 424.533318,49.6473011 L418.755869,46.6137442 L404.384186,54.1605426 C404.1785,54.2692832 403.933298,54.2692832 403.726598,54.1605426 L389.355929,46.6137442 L383.579493,49.6473011 C383.279576,49.8048224 383.279576,50.2357196 383.579493,50.393241 M403.726598,50.9928385 C403.932284,51.1015791 404.1785,51.1015791 404.384186,50.9928385 L420.152102,42.7133116 C420.452019,42.5557902 420.452019,42.124893 420.152102,41.9673717 L404.384186,33.6878448 C404.1785,33.5791042 403.932284,33.5791042 403.726598,33.6878448 L387.959695,41.9673717 C387.660792,42.124893 387.660792,42.5557902 387.959695,42.7133116 L403.726598,50.9928385 Z" id="Fill-1-Copy"></path>
            </g>
        </g>
    </g>
</svg>