<?xml version="1.0" encoding="UTF-8"?>
<svg width="20px" height="20px" viewBox="0 0 20 20" version="1.1" xmlns="http://www.w3.org/2000/svg" xmlns:xlink="http://www.w3.org/1999/xlink">
    <!-- Generator: Sketch 63.1 (92452) - https://sketch.com -->
    <title>_Icons / 16px  / Video</title>
    <desc>Created with Sketch.</desc>
    <g id="/product-v2" stroke="none" stroke-width="1" fill="none" fill-rule="evenodd">
        <g id="/product-overview-social-ads" transform="translate(-171.000000, -501.000000)" fill="#603EFF">
            <g id="Group" transform="translate(169.000000, 499.000000)">
                <g id="_Icons-/-16px--/-Video">
                    <path d="M12,20.5 C16.6944204,20.5 20.5,16.6944204 20.5,12 C20.5,7.30557963 16.6944204,3.5 12,3.5 C7.30557963,3.5 3.5,7.30557963 3.5,12 C3.5,16.6944204 7.30557963,20.5 12,20.5 Z M12,2 C17.5228475,2 22,6.4771525 22,12 C22,17.5228475 17.5228475,22 12,22 C6.4771525,22 2,17.5228475 2,12 C2,6.4771525 6.4771525,2 12,2 Z M10,8 L10,16 L16,12 L10,8 Z" id="Icon"></path>
                </g>
            </g>
        </g>
    </g>
</svg>