<svg width="66" height="52" viewBox="0 0 66 52" fill="none" xmlns="http://www.w3.org/2000/svg">
<path d="M0 34.5027C0 26.7731 2.27479 19.885 6.82436 13.8385C11.3739 7.72961 16.8272 3.11678 23.1841 0L25.0538 0.56102L26.1756 2.7116L25.4278 4.58166C19.1331 9.81785 15.7054 15.5527 15.1445 21.7863C19.1331 21.7863 22.4986 23.22 25.2408 26.0874C28.0453 28.8925 29.4476 32.321 29.4476 36.3728C29.4476 40.4869 28.0142 44.0089 25.1473 46.9387C22.3428 49.8684 18.9462 51.3333 14.9575 51.3333C10.5949 51.3333 7.01133 49.7438 4.2068 46.5647C1.40227 43.3855 0 39.3649 0 34.5027ZM36.5524 34.5027C36.5524 26.7731 38.8272 19.885 43.3768 13.8385C47.9263 7.72961 53.3796 3.11678 59.7365 0L61.6062 0.56102L62.8215 2.7116L61.9802 4.58166C55.6856 9.81785 52.2578 15.5527 51.6969 21.7863C55.6856 21.7863 59.051 23.22 61.7932 26.0874C64.5977 28.8925 66 32.321 66 36.3728C66 40.4869 64.5666 44.0089 61.6997 46.9387C58.8952 49.8684 55.4986 51.3333 51.5099 51.3333C47.1473 51.3333 43.5637 49.7438 40.7592 46.5647C37.9547 43.3855 36.5524 39.3649 36.5524 34.5027Z" fill="#EAEAEA"/>
</svg>
