<svg height="49" viewBox="0 0 64 49" width="64" xmlns="http://www.w3.org/2000/svg"><path d="m3.97460955 32.4316406c0-7.2656613 2.13865049-13.7548542 6.41601565-19.4677734 4.2773651-5.7129192 9.404267-10.03416505 15.3808594-12.9638672l1.7578125.52734375 1.0546875 2.02148437-.703125 1.7578125c-5.9179984 4.92189961-9.1406224 10.31247068-9.6679688 16.17187498 3.7500188 0 6.9286979 1.3329945 9.5361328 3.9990235 2.6074349 2.6660289 3.9111328 5.9033012 3.9111328 9.711914 0 3.8672069-1.3329945 7.1777206-3.9990234 9.9316407-2.666029 2.75392-5.8740047 4.1308593-9.6240234 4.1308593-4.1015831 0-7.47069-1.4941257-10.10742192-4.4824219-2.63673193-2.9882961-3.95507813-6.7675552-3.95507813-11.3378906zm34.36523435 0c0-7.2656613 2.1386505-13.7548542 6.4160157-19.4677734 4.2773651-5.7129192 9.4042669-10.03416505 15.3808593-12.9638672l1.7578125.52734375 1.1425782 2.02148437-.7910157 1.7578125c-5.9179983 4.92189961-9.1406223 10.31247068-9.6679687 16.17187498 3.7500187 0 6.9286979 1.3329945 9.5361328 3.9990235 2.6074349 2.6660289 3.9111328 5.9033012 3.9111328 9.711914 0 3.8672069-1.3329945 7.1777206-3.9990234 9.9316407-2.666029 2.75392-5.8740047 4.1308593-9.6240235 4.1308593-4.101583 0-7.4706899-1.4941257-10.1074218-4.4824219-2.636732-2.9882961-3.9550782-6.7675552-3.9550782-11.3378906z" fill="#dfae78" transform="translate(-3)"/></svg>