<svg width="66" height="52" viewBox="0 0 66 52" fill="none" xmlns="http://www.w3.org/2000/svg">
<path id="Vector" d="M0 35.001C0 27.2714 2.27479 20.3833 6.82436 14.3368C11.3739 8.2279 16.8272 3.61507 23.1841 0.498291L25.0538 1.05931L26.1756 3.20989L25.4278 5.07995C19.1331 10.3161 15.7054 16.051 15.1445 22.2846C19.1331 22.2846 22.4986 23.7183 25.2408 26.5857C28.0453 29.3908 29.4476 32.8193 29.4476 36.8711C29.4476 40.9852 28.0142 44.5072 25.1473 47.437C22.3428 50.3667 18.9462 51.8316 14.9575 51.8316C10.5949 51.8316 7.01133 50.2421 4.2068 47.063C1.40227 43.8838 0 39.8632 0 35.001ZM36.5524 35.001C36.5524 27.2714 38.8272 20.3833 43.3768 14.3368C47.9263 8.2279 53.3796 3.61507 59.7365 0.498291L61.6062 1.05931L62.8215 3.20989L61.9802 5.07995C55.6856 10.3161 52.2578 16.051 51.6969 22.2846C55.6856 22.2846 59.051 23.7183 61.7932 26.5857C64.5977 29.3908 66 32.8193 66 36.8711C66 40.9852 64.5666 44.5072 61.6997 47.437C58.8952 50.3667 55.4986 51.8316 51.5099 51.8316C47.1473 51.8316 43.5637 50.2421 40.7592 47.063C37.9547 43.8838 36.5524 39.8632 36.5524 35.001Z" fill="#E4DEFC"/>
</svg>
