<?xml version="1.0" encoding="UTF-8"?>
<svg width="60px" height="47px" viewBox="0 0 60 47" version="1.1" xmlns="http://www.w3.org/2000/svg" xmlns:xlink="http://www.w3.org/1999/xlink">
    <title>“</title>
    <g id="Upgrade-&amp;-Reactivation-Coupons" stroke="none" stroke-width="1" fill="none" fill-rule="evenodd">
        <g id=".com/pricing-Reactivate-Coupon-35%-off-[Annual]" transform="translate(-690.000000, -1586.000000)" fill="#C3C2C1" fill-rule="nonzero">
            <g id="Group-7" transform="translate(0.000000, 1539.000000)">
                <path d="M703.597734,94 C707.223796,94 710.325779,92.6587735 712.903683,89.9763206 C715.481586,87.2938676 716.770538,84.0692168 716.770538,80.3023679 C716.770538,76.5925926 715.509915,73.4392835 712.988669,70.8424408 C710.467422,68.2455981 707.393768,66.9471767 703.767705,66.9471767 C704.27762,61.23983 707.393768,55.989071 713.116147,51.1948998 L713.116147,51.1948998 L713.796034,49.4826958 L712.776204,47.5136612 L711.076487,47 C705.29745,49.8536733 700.339943,54.0628415 696.203966,59.6275046 C692.067989,65.1921676 690,71.513054 690,78.5901639 C690,83.0418944 691.274788,86.723133 693.824363,89.6338798 C696.373938,92.5446266 699.631728,94 703.597734,94 Z M736.827195,94 C740.453258,94 743.555241,92.6587735 746.133144,89.9763206 C748.711048,87.2938676 750,84.0692168 750,80.3023679 C750,76.5925926 748.739377,73.4392835 746.21813,70.8424408 C743.696884,68.2455981 740.623229,66.9471767 736.997167,66.9471767 C737.507082,61.23983 740.623229,55.989071 746.345609,51.1948998 L746.345609,51.1948998 L747.110482,49.4826958 L746.005666,47.5136612 L744.305949,47 C738.526912,49.8536733 733.569405,54.0628415 729.433428,59.6275046 C725.29745,65.1921676 723.229462,71.513054 723.229462,78.5901639 C723.229462,83.0418944 724.504249,86.723133 727.053824,89.6338798 C729.603399,92.5446266 732.86119,94 736.827195,94 Z" id="“"></path>
            </g>
        </g>
    </g>
</svg>