<?xml version="1.0" encoding="UTF-8"?>
<svg width="18px" height="18px" viewBox="0 0 18 18" version="1.1" xmlns="http://www.w3.org/2000/svg" xmlns:xlink="http://www.w3.org/1999/xlink">
    <!-- Generator: Sketch 55.1 (78136) - https://sketchapp.com -->
    <title>_Icons / 24px / Check 2</title>
    <desc>Created with Sketch.</desc>
    <g id="Leadpages-Pricing-+-Start" stroke="none" stroke-width="1" fill="none" fill-rule="evenodd">
        <g id="/pricing-Start_Expanded_4-Dark-MONTHLY" transform="translate(-203.000000, -495.000000)" fill="#C3C2C1">
            <g id="Group-18" transform="translate(165.000000, 253.000000)">
                <g id="Group-15" transform="translate(37.000000, 40.000000)">
                    <g id="Group-14">
                        <g id="Group-10" transform="translate(0.000000, 160.000000)">
                            <g id="Checkmarks" transform="translate(0.000000, 2.000000)">
                                <g id="_Icons-/-24px--/-X" transform="translate(0.000000, 37.000000)">
                                    <path d="M10,19.5 C14.1421356,19.5 17.5,16.1421356 17.5,12 C17.5,7.85786438 14.1421356,4.5 10,4.5 C5.85786438,4.5 2.5,7.85786438 2.5,12 C2.5,16.1421356 5.85786438,19.5 10,19.5 Z M9.12641577,12.1795672 L7,14.3106934 L8.07478402,15.329743 L10.1803941,13.2304056 L12.2860041,15.329743 L13.3607881,14.3106934 L11.2343724,12.1795672 L13.3607881,10.059486 L12.2989551,9 L10.1803941,11.1232541 L8.06183301,9 L7,10.059486 L9.12641577,12.1795672 Z M10,21 C5.02943725,21 1,16.9705627 1,12 C1,7.02943725 5.02943725,3 10,3 C14.9705627,3 19,7.02943725 19,12 C19,16.9705627 14.9705627,21 10,21 Z" id="Combined-Shape"></path>
                                </g>
                            </g>
                        </g>
                    </g>
                </g>
            </g>
        </g>
    </g>
</svg>