<svg width="16" height="16" viewBox="0 0 16 16" fill="none" xmlns="http://www.w3.org/2000/svg">
<g clip-path="url(#clip0_196_15084)">
<g clip-path="url(#clip1_196_15084)">
<path fill-rule="evenodd" clip-rule="evenodd" d="M4.70167 0.0481418C5.55481 0.00920956 5.82734 1.80334e-07 7.99995 0C10.1726 0 10.4451 0.00920918 11.2983 0.0483006C12.1498 0.0870109 12.7313 0.222227 13.2402 0.419843C13.7741 0.620761 14.2577 0.935724 14.6573 1.34276C15.0642 1.74235 15.3791 2.22591 15.58 2.75971C15.7778 3.26856 15.913 3.85007 15.9519 4.7016C15.9908 5.55476 16 5.82732 16 7.99995C16 10.1726 15.9908 10.445 15.9519 11.2983C15.913 12.1498 15.7778 12.7313 15.58 13.2402C15.1644 14.3148 14.3149 15.1643 13.2403 15.5799C12.7315 15.7776 12.15 15.9129 11.2984 15.9517C10.4453 15.9907 10.1727 15.9999 8.00008 15.9999C5.82744 15.9999 5.55501 15.9907 4.70173 15.9517C3.85023 15.9129 3.26872 15.7776 2.75983 15.5799C2.22604 15.379 1.74248 15.0641 1.34289 14.6571C0.935933 14.2575 0.621037 13.774 0.420161 13.2402C0.222386 12.7313 0.0871697 12.1498 0.0483006 11.2983C0.00920918 10.4451 0 10.1726 0 7.99995C0 5.82728 0.00920918 5.55476 0.0483006 4.7016C0.0870109 3.85007 0.222227 3.26856 0.419843 2.75967C0.620793 2.22585 0.935777 1.7423 1.34283 1.34273C1.74242 0.935773 2.22597 0.620878 2.75977 0.420002C3.26862 0.222227 3.85014 0.0870109 4.70167 0.0481418ZM11.2327 1.48811C10.3891 1.44962 10.1361 1.44146 8 1.44146L8.00006 1.44143C5.86391 1.44143 5.61091 1.44959 4.76732 1.48808C3.98734 1.52365 3.56374 1.65397 3.28185 1.76353C2.93437 1.89178 2.62006 2.09627 2.36201 2.36197C2.09628 2.62002 1.89177 2.93435 1.76351 3.28184C1.65395 3.56377 1.52366 3.98732 1.48806 4.76731C1.44957 5.61097 1.44141 5.8639 1.44141 8.00005C1.44141 10.1362 1.44957 10.3892 1.48806 11.2328C1.52363 12.0128 1.65395 12.4364 1.76351 12.7183C1.89176 13.0657 2.09625 13.3801 2.36195 13.6381C2.61999 13.9038 2.93431 14.1083 3.28179 14.2365C3.56371 14.3461 3.98727 14.4764 4.76726 14.512C5.61079 14.5505 5.86369 14.5586 8 14.5586C10.1363 14.5586 10.3893 14.5505 11.2327 14.512C12.0127 14.4764 12.4363 14.3461 12.7182 14.2365C13.4159 13.9674 13.9674 13.416 14.2365 12.7183C14.346 12.4363 14.4763 12.0128 14.5119 11.2328C14.5504 10.3891 14.5586 10.1362 14.5586 8.00005C14.5586 5.8639 14.5504 5.6109 14.5119 4.76731C14.4764 3.98732 14.346 3.56373 14.2365 3.28184C14.1082 2.93436 13.9038 2.62005 13.638 2.362C13.38 2.0963 13.0657 1.89181 12.7182 1.76356C12.4363 1.654 12.0127 1.52371 11.2327 1.48811Z" fill="white"/>
<path fill-rule="evenodd" clip-rule="evenodd" d="M3.8916 8.00018C3.8916 5.73134 5.73086 3.89209 7.99969 3.89209C10.2685 3.89209 12.1078 5.73134 12.1078 8.00018C12.1078 10.269 10.2685 12.1083 7.99969 12.1083C5.73086 12.1083 3.8916 10.269 3.8916 8.00018ZM5.33312 8.00016C5.33311 9.47289 6.52698 10.6668 7.99972 10.6668C9.47246 10.6668 10.6664 9.47292 10.6664 8.00018C10.6664 6.52744 9.47249 5.33356 7.99976 5.33355C6.52702 5.33354 5.33313 6.52742 5.33312 8.00016Z" fill="white"/>
<circle cx="12.2705" cy="3.72951" r="0.959978" fill="white"/>
</g>
</g>
<defs>
<clipPath id="clip0_196_15084">
<rect width="16" height="15.9999" fill="white"/>
</clipPath>
<clipPath id="clip1_196_15084">
<rect width="16" height="15.9999" fill="white"/>
</clipPath>
</defs>
</svg>
