<?xml version="1.0" encoding="utf-8"?>
<!-- Generator: Adobe Illustrator 22.1.0, SVG Export Plug-In . SVG Version: 6.00 Build 0)  -->
<svg version="1.1" id="Layer_1" xmlns="http://www.w3.org/2000/svg" xmlns:xlink="http://www.w3.org/1999/xlink" x="0px" y="0px"
	 viewBox="0 0 16 16" style="enable-background:new 0 0 16 16;" xml:space="preserve">
<style type="text/css">
	.st0{fill:#0F0C09;}
</style>
<path id="Shape" class="st0" d="M8,0c2.2,0,2.4,0,3.3,0c0.9,0,1.4,0.2,1.9,0.4c0.5,0.2,1,0.5,1.4,0.9c0.4,0.4,0.7,0.9,0.9,1.4
	c0.2,0.5,0.3,1.1,0.4,1.9c0,0.9,0,1.1,0,3.3c0,2.2,0,2.4,0,3.3c0,0.9-0.2,1.4-0.4,1.9c-0.2,0.5-0.5,1-0.9,1.4
	c-0.4,0.4-0.9,0.7-1.4,0.9c-0.5,0.2-1.1,0.3-1.9,0.4c-0.9,0-1.1,0-3.3,0c-2.2,0-2.4,0-3.3,0c-0.9,0-1.4-0.2-1.9-0.4
	c-0.5-0.2-1-0.5-1.4-0.9c-0.4-0.4-0.7-0.9-0.9-1.4c-0.2-0.5-0.3-1.1-0.4-1.9c0-0.9,0-1.1,0-3.3c0-2.2,0-2.4,0-3.3
	c0-0.9,0.2-1.4,0.4-1.9c0.2-0.5,0.5-1,0.9-1.4c0.4-0.4,0.9-0.7,1.4-0.9C3.3,0.2,3.9,0.1,4.7,0C5.6,0,5.8,0,8,0z M11.2,1.5
	c-0.8,0-1.1,0-3.2,0c-2.1,0-2.4,0-3.2,0C4,1.5,3.6,1.7,3.3,1.8C2.9,1.9,2.6,2.1,2.4,2.4C2.1,2.6,1.9,2.9,1.8,3.3
	C1.7,3.6,1.5,4,1.5,4.8c0,0.8,0,1.1,0,3.2c0,2.1,0,2.4,0,3.2c0,0.8,0.2,1.2,0.3,1.5c0.1,0.4,0.3,0.6,0.6,0.9
	c0.3,0.3,0.5,0.5,0.9,0.6c0.3,0.1,0.7,0.2,1.5,0.3c0.8,0,1.1,0,3.2,0c2.1,0,2.4,0,3.2,0c0.8,0,1.2-0.2,1.5-0.3
	c0.4-0.1,0.6-0.3,0.9-0.6c0.3-0.3,0.5-0.5,0.6-0.9c0.1-0.3,0.2-0.7,0.3-1.5c0-0.8,0-1.1,0-3.2c0-2.1,0-2.4,0-3.2
	c0-0.8-0.2-1.2-0.3-1.5c-0.1-0.4-0.3-0.6-0.6-0.9c-0.3-0.3-0.5-0.5-0.9-0.6C12.4,1.7,12,1.5,11.2,1.5z M8,3.9c2.3,0,4.1,1.8,4.1,4.1
	c0,2.3-1.8,4.1-4.1,4.1c-2.3,0-4.1-1.8-4.1-4.1C3.9,5.7,5.7,3.9,8,3.9z M8,10.7c1.5,0,2.7-1.2,2.7-2.7c0-1.5-1.2-2.7-2.7-2.7
	C6.5,5.3,5.3,6.5,5.3,8C5.3,9.5,6.5,10.7,8,10.7z M13.2,3.7c0,0.5-0.4,1-1,1c-0.5,0-1-0.4-1-1s0.4-1,1-1C12.8,2.8,13.2,3.2,13.2,3.7
	z"/>
</svg>
