<svg height="48" viewBox="0 0 48 48" width="48" xmlns="http://www.w3.org/2000/svg"><g fill="none" fill-rule="evenodd"><circle cx="24" cy="24" fill="#e28f44" r="24"/><path d="m24.0000198 14c2.7158171 0 3.0563611.0115116 4.1229674.0601777 1.0643834.0485471 1.7913191.2176083 2.4273928.4648292.6575884.2555171 1.2152643.5974504 1.7712334 1.1533797.5559293.5559691.8978626 1.113645 1.1534194 1.7712334.2471812.6360737.4162424 1.3630094.4647895 2.4273928.0486661 1.0666063.0601777 1.4071503.0601777 4.123007 0 2.7158171-.0115116 3.0563611-.0601777 4.1229674-.0485471 1.0643834-.2176083 1.7913191-.4647895 2.4273928-.2555568.6575884-.5974901 1.2152643-1.1534194 1.7712334-.5559691.5559293-1.113645.8978626-1.7712334 1.1534194-.6360737.2471812-1.3630094.4162424-2.4273928.4647895-1.0666063.0486661-1.4071503.0601777-4.1229674.0601777-2.7158567 0-3.0564007-.0115116-4.123007-.0601777-1.0643834-.0485471-1.7913191-.2176083-2.4273928-.4647895-.6575884-.2555568-1.2152643-.5974901-1.7712334-1.1534194-.5559293-.5559691-.8978626-1.113645-1.1533797-1.7712334-.2472209-.6360737-.4162821-1.3630094-.4648292-2.4273928-.0486661-1.0666063-.0601777-1.4071503-.0601777-4.1229674 0-2.7158567.0115116-3.0564007.0601777-4.123007.0485471-1.0643834.2176083-1.7913191.4648292-2.4273928.2555171-.6575884.5974504-1.2152643 1.1533797-1.7712334.5559691-.5559293 1.113645-.8978626 1.7712334-1.1533797.6360737-.2472209 1.3630094-.4162821 2.4273928-.4648292 1.0666063-.0486661 1.4071503-.0601777 4.123007-.0601777zm4.0408383 1.8601106c-1.0544596-.0481104-1.3707499-.058312-4.0408383-.058312-2.670128 0-2.9864183.0102016-4.0408779.058312-.9749902.0444585-1.5044826.207367-1.8568557.344315-.4667742.1814064-.7998952.3981018-1.1498071.7480535-.3499517.3499119-.5666471.6830329-.7480535 1.1498071-.136948.3523731-.2998565.8818655-.344315 1.8568557-.0481104 1.0544596-.058312 1.3707499-.058312 4.0408779 0 2.6700884.0102016 2.9863787.058312 4.0408383.0444585.9749902.207367 1.5044826.344315 1.8568557.1814064.4667742.3981415.7998952.7480535 1.1498071.3499119.3499517.6830329.5666471 1.1498071.7480535.3523731.136948.8818655.2998565 1.8568557.344315 1.0543405.0481104 1.3705514.058312 4.0408779.058312 2.6702869 0 2.9865375-.0102016 4.0408383-.058312.9749902-.0444585 1.5044826-.207367 1.8568557-.344315.4667742-.1814064.7998952-.3981018 1.1498071-.7480535.3499517-.3499119.5666471-.6830329.7480535-1.1498071.136948-.3523731.2998565-.8818655.344315-1.8568557.0481104-1.0544596.058312-1.3707499.058312-4.0408383 0-2.670128-.0102016-2.9864183-.058312-4.0408779-.0444585-.9749902-.207367-1.5044826-.344315-1.8568557-.1814064-.4667742-.3981018-.7998952-.7480535-1.1498071-.3499119-.3499517-.6830329-.5666471-1.1498071-.7480535-.3523731-.136948-.8818655-.2998565-1.8568557-.344315zm-4.0408383 3.0047575c2.8360535 0 5.1351121 2.2990586 5.1351121 5.1351517 0 2.8360535-2.2990586 5.1351121-5.1351121 5.1351121-2.8360931 0-5.1351517-2.2990586-5.1351517-5.1351121 0-2.8360931 2.2990586-5.1351517 5.1351517-5.1351517zm0 8.4684652c-1.8409776 0-3.3333531-1.4923755-3.3333531-3.3333135 0-1.8409776 1.4923755-3.3333531 3.3333531-3.3333531 1.840938 0 3.3333135 1.4923755 3.3333135 3.3333531 0 1.840938-1.4923755 3.3333135-3.3333135 3.3333135zm6.538015-8.6713467c0 .6627488-.5372727 1.1999818-1.2000214 1.1999818-.6627091 0-1.1999818-.537233-1.1999818-1.1999818 0-.6627487.5372727-1.2000214 1.1999818-1.2000214.6627487 0 1.2000214.5372727 1.2000214 1.2000214z" fill="#fff"/></g></svg>