<svg width="17" height="17" viewBox="0 0 17 17" fill="none" xmlns="http://www.w3.org/2000/svg">
<path fill-rule="evenodd" clip-rule="evenodd" d="M2.16938 4.49061C1.23816 4.49061 0.391602 3.72871 0.391602 2.71284C0.391602 1.78162 1.15351 0.935059 2.16938 0.935059C3.1006 0.935059 3.94716 1.69696 3.94716 2.71284C3.94716 3.72871 3.18525 4.49061 2.16938 4.49061ZM0.391602 16.9351V6.26839H3.94716V16.9351H0.391602ZM12.836 16.9351H16.3916V11.6017C16.3916 8.45643 15.7189 6.26839 11.9472 6.26839C10.5297 6.26839 9.47268 7.0889 9.28049 8.04617V6.26839H5.72494V16.9351H9.28049V11.6017C9.18439 10.371 9.37659 9.0946 11.0583 8.93506C12.9321 9.0946 12.9321 10.6445 12.836 11.6017V16.9351Z" fill="white"/>
</svg>
