<svg height="48" viewBox="0 0 48 48" width="48" xmlns="http://www.w3.org/2000/svg"><g fill="none" fill-rule="evenodd"><circle cx="24" cy="24" fill="#603eff" r="24"/><path d="m32 30h-3.1073424v-4.8732504c0-1.1617418-.0209563-2.6559098-1.6159578-2.6559098-1.6159578 0-1.8627756 1.2667185-1.8627756 2.5730949v4.9560653h-3.1050139v-10.0194401h2.9781124v1.3693623h.0430766c.4156318-.787325 1.428516-1.6178071 2.9408569-1.6178071 3.1480907 0 3.7290438 2.0738725 3.7290438 4.7729393zm-13.1954362-11.3876361c-.9989134 0-1.8045638-.8094868-1.8045638-1.8067651 0-.996112.8056504-1.8055988 1.8045638-1.8055988.9930922 0 1.8010711.8094868 1.8010711 1.8055988 0 .9972783-.8079789 1.8067651-1.8010711 1.8067651zm-1.557746 11.3876361v-10.0194401h3.1119993v10.0194401z" fill="#fff"/></g></svg>