<svg width="17" height="16" viewBox="0 0 17 16" fill="none" xmlns="http://www.w3.org/2000/svg">
<g clip-path="url(#clip0_196_15098)">
<g clip-path="url(#clip1_196_15098)">
<path d="M8.4967 0C4.07384 0 0.5 3.58042 0.5 7.9967C0.5 11.3863 2.60613 14.2822 5.58104 15.4471C5.50864 14.8153 5.44941 13.8412 5.60736 13.1501C5.75216 12.5249 6.54195 9.17483 6.54195 9.17483C6.54195 9.17483 6.30502 8.69437 6.30502 7.99013C6.30502 6.87782 6.95002 6.04854 7.75298 6.04854C8.43747 6.04854 8.76656 6.5619 8.76656 7.174C8.76656 7.8585 8.33216 8.88523 8.10181 9.83957C7.91094 10.636 8.5033 11.2875 9.28651 11.2875C10.7081 11.2875 11.8007 9.78691 11.8007 7.62814C11.8007 5.71288 10.4251 4.3768 8.45722 4.3768C6.17997 4.3768 4.84389 6.08144 4.84389 7.84533C4.84389 8.52982 5.10715 9.26696 5.43624 9.66845C5.50206 9.74742 5.50864 9.81982 5.4889 9.8988C5.42966 10.1489 5.29144 10.6952 5.26512 10.8071C5.23221 10.9519 5.14664 10.9848 4.99526 10.9124C4.00802 10.4385 3.38934 8.97738 3.38934 7.80584C3.38934 5.28507 5.21904 2.96832 8.67442 2.96832C11.4453 2.96832 13.6041 4.94282 13.6041 7.58864C13.6041 10.3464 11.8665 12.5644 9.45763 12.5644C8.64808 12.5644 7.88461 12.1432 7.62794 11.6429C7.62794 11.6429 7.22645 13.1699 7.12773 13.545C6.95002 14.2427 6.46298 15.1115 6.13389 15.6446C6.88421 15.8749 7.674 16 8.5033 16C12.9196 16 16.5 12.4196 16.5 8.0033C16.4934 3.58042 12.913 0 8.4967 0Z" fill="white"/>
</g>
</g>
<defs>
<clipPath id="clip0_196_15098">
<rect width="16" height="15.9999" fill="white" transform="translate(0.5)"/>
</clipPath>
<clipPath id="clip1_196_15098">
<rect width="16" height="16" fill="white" transform="translate(0.5)"/>
</clipPath>
</defs>
</svg>
