<?xml version="1.0" encoding="utf-8"?>
<!-- Generator: Adobe Illustrator 22.1.0, SVG Export Plug-In . SVG Version: 6.00 Build 0)  -->
<svg version="1.1" id="Layer_1" xmlns="http://www.w3.org/2000/svg" xmlns:xlink="http://www.w3.org/1999/xlink" x="0px" y="0px"
	 viewBox="0 0 16 16" style="enable-background:new 0 0 16 16;" xml:space="preserve">
<style type="text/css">
	.st0{fill:#0F0C09;}
</style>
<path id="Icon" class="st0" d="M14,16H2c-1.1,0-2-0.9-2-2V2c0-1.1,0.9-2,2-2h12c1.1,0,2,0.9,2,2v12C16,15.1,15.1,16,14,16z
	 M6.1,12.1c3.8,0,5.8-3.1,5.8-5.8c0-0.1,0-0.2,0-0.3c0.4-0.3,0.7-0.7,1-1.1c-0.4,0.2-0.8,0.3-1.2,0.3c0.4-0.3,0.7-0.7,0.9-1.1
	c-0.4,0.2-0.8,0.4-1.3,0.5C11,4.2,10.5,3.9,9.9,3.9C8.8,3.9,7.9,4.9,7.9,6c0,0.2,0,0.3,0.1,0.5C6.2,6.4,4.7,5.6,3.7,4.3
	C3.5,4.6,3.4,5,3.4,5.3c0,0.7,0.4,1.3,0.9,1.7C4,7,3.7,6.9,3.4,6.8c0,0,0,0,0,0c0,1,0.7,1.8,1.6,2c-0.2,0-0.4,0.1-0.5,0.1
	c-0.1,0-0.3,0-0.4,0c0.3,0.8,1,1.4,1.9,1.4c-0.7,0.6-1.6,0.9-2.5,0.9c-0.2,0-0.3,0-0.5,0C3.9,11.7,5,12.1,6.1,12.1z"/>
</svg>
