<svg height="48" viewBox="0 0 48 48" width="48" xmlns="http://www.w3.org/2000/svg"><g fill="none" fill-rule="evenodd"><circle cx="24" cy="24" fill="#43e0f0" r="24"/><path d="m20.69125 31.732c6.83675 0 10.57775-5.6695 10.57775-10.57775 0-.1595 0-.319-.00725-.4785.725-.522 1.35575-1.18175 1.856-1.9285-.667.29725-1.38475.493-2.13875.58725.7685-.45675 1.35575-1.189 1.6385-2.059-.71775.42775-1.51525.73225-2.3635.899-.6815-.725-1.64575-1.1745-2.7115-1.1745-2.05175 0-3.71925 1.6675-3.71925 3.71925 0 .29.03625.57275.09425.84825-3.0885-.15225-5.829-1.6385-7.66325-3.886-.319.551-.50025 1.189-.50025 1.8705 0 1.2905.65975 2.42875 1.653 3.09575-.609-.02175-1.18175-.1885-1.682-.464v.05075c0 1.798 1.28325 3.306 2.97975 3.64675-.31175.087-.638.1305-.97875.1305-.23925 0-.47125-.02175-.696-.06525.47125 1.479 1.84875 2.552 3.47275 2.581-1.276 1.0005-2.87825 1.595-4.61825 1.595-.29725 0-.5945-.0145-.8845-.05075 1.6385 1.044 3.596 1.66025 5.69125 1.66025" fill="#fff"/></g></svg>