<svg width="17" height="16" viewBox="0 0 17 16" fill="none" xmlns="http://www.w3.org/2000/svg">
<g clip-path="url(#clip0_196_15094)">
<g clip-path="url(#clip1_196_15094)">
<path d="M6.8636 10.7121V5.95414L11.0455 8.33318L6.8636 10.7121ZM16.1656 4.45701C15.9816 3.76415 15.4394 3.2185 14.7511 3.03332C13.5033 2.69678 8.49997 2.69678 8.49997 2.69678C8.49997 2.69678 3.49665 2.69678 2.24893 3.03332C1.56057 3.2185 1.01839 3.76415 0.834363 4.45701C0.5 5.71284 0.5 8.33311 0.5 8.33311C0.5 8.33311 0.5 10.9533 0.834363 12.2091C1.01839 12.9021 1.5605 13.4477 2.24893 13.633C3.49665 13.9694 8.49997 13.9694 8.49997 13.9694C8.49997 13.9694 13.5033 13.9694 14.7511 13.633C15.4394 13.4477 15.9816 12.9021 16.1656 12.2091C16.5 10.9533 16.5 8.33305 16.5 8.33305C16.5 8.33305 16.5 5.71284 16.1656 4.45701Z" fill="white"/>
</g>
</g>
<defs>
<clipPath id="clip0_196_15094">
<rect width="16" height="15.9999" fill="white" transform="translate(0.5)"/>
</clipPath>
<clipPath id="clip1_196_15094">
<rect width="16" height="10.6667" fill="white" transform="translate(0.5 3)"/>
</clipPath>
</defs>
</svg>
