<svg width="115" height="25" viewBox="0 0 115 25" fill="none" xmlns="http://www.w3.org/2000/svg">
<path d="M19.1285 0.757812H4.54395C1.94123 0.757812 -0.168701 2.86687 -0.168701 5.46853V20.0471C-0.168701 22.6488 1.94123 24.7578 4.54395 24.7578H19.1285C21.7312 24.7578 23.8412 22.6488 23.8412 20.0471V5.46853C23.8412 2.86687 21.7312 0.757812 19.1285 0.757812Z" fill="#21242E"/>
<path d="M14.2965 17.6919C14.4873 18.2083 14.6733 18.7247 14.8545 19.2408C14.9029 19.379 15.0329 19.4711 15.1793 19.4711H18.5324C18.7695 19.4711 18.9359 19.2375 18.8584 19.0134L14.9314 7.74269C14.5583 6.67174 13.548 5.9541 12.4135 5.9541H10.7902C10.5611 5.9541 10.3997 6.17897 10.4731 6.39588L14.2965 17.6919Z" fill="white"/>
<path d="M11.525 14.7109L6.14029 11.6033C5.55011 11.2627 4.81238 11.6884 4.81238 12.3696V18.5849C4.81238 19.2661 5.55011 19.6918 6.14029 19.3512L11.525 16.2436C12.1152 15.903 12.1152 15.0515 11.525 14.7109L6.14029 11.6033C5.55011 11.2627 4.81238 11.6884 4.81238 12.3696V18.5849C4.81238 19.2661 5.55011 19.6918 6.14029 19.3512L11.525 16.2436C12.1152 15.903 12.1152 15.0515 11.525 14.7109Z" fill="white"/>
<path d="M113.565 11.9239C113.122 11.1548 112.487 10.5698 111.659 10.1692C110.83 9.76874 109.841 9.56836 108.69 9.56836C107.501 9.56836 106.477 9.77198 105.617 10.1788C104.757 10.5858 104.106 11.1705 103.663 11.9335C103.22 12.6965 102.999 13.6058 102.999 14.661C102.999 15.7038 103.22 16.6099 103.663 17.379C104.106 18.1486 104.747 18.7399 105.589 19.1529C106.429 19.5659 107.438 19.7729 108.614 19.7729C109.79 19.7729 110.799 19.5659 111.64 19.1529C112.481 18.7399 113.122 18.1486 113.565 17.379C114.008 16.6099 114.229 15.7038 114.229 14.661C114.229 13.6058 114.008 12.6935 113.565 11.9239ZM110.947 15.7482C110.732 16.0662 110.426 16.3079 110.027 16.473C109.629 16.6385 109.164 16.721 108.633 16.721C108.089 16.721 107.618 16.6385 107.22 16.473C106.822 16.3079 106.511 16.0662 106.29 15.7482C106.069 15.4306 105.958 15.0554 105.958 14.6229C105.958 14.2289 106.066 13.8761 106.281 13.5643C106.496 13.2529 106.803 13.0112 107.201 12.8395C107.599 12.6679 108.076 12.582 108.633 12.582C109.177 12.582 109.645 12.6679 110.037 12.8395C110.429 13.0112 110.732 13.2529 110.947 13.5643C111.162 13.8761 111.27 14.2289 111.27 14.6229C111.27 15.0554 111.162 15.4306 110.947 15.7482Z" fill="#21242E"/>
<path d="M113.565 11.9239C113.122 11.1548 112.487 10.5698 111.659 10.1692C110.83 9.76874 109.841 9.56836 108.69 9.56836C107.501 9.56836 106.477 9.77198 105.617 10.1788C104.757 10.5858 104.106 11.1705 103.663 11.9335C103.22 12.6965 102.999 13.6058 102.999 14.661C102.999 15.7038 103.22 16.6099 103.663 17.379C104.106 18.1486 104.747 18.7399 105.589 19.1529C106.429 19.5659 107.438 19.7729 108.614 19.7729C109.79 19.7729 110.799 19.5659 111.64 19.1529C112.481 18.7399 113.122 18.1486 113.565 17.379C114.008 16.6099 114.229 15.7038 114.229 14.661C114.229 13.6058 114.008 12.6935 113.565 11.9239ZM110.947 15.7482C110.732 16.0662 110.426 16.3079 110.027 16.473C109.629 16.6385 109.164 16.721 108.633 16.721C108.089 16.721 107.618 16.6385 107.22 16.473C106.822 16.3079 106.511 16.0662 106.29 15.7482C106.069 15.4306 105.958 15.0554 105.958 14.6229C105.958 14.2289 106.066 13.8761 106.281 13.5643C106.496 13.2529 106.803 13.0112 107.201 12.8395C107.599 12.6679 108.076 12.582 108.633 12.582C109.177 12.582 109.645 12.6679 110.037 12.8395C110.429 13.0112 110.732 13.2529 110.947 13.5643C111.162 13.8761 111.27 14.2289 111.27 14.6229C111.27 15.0554 111.162 15.4306 110.947 15.7482Z" fill="#21242E"/>
<path d="M42.4804 6.22474C42.4333 6.08849 42.3052 5.99707 42.1612 5.99707H36.5203C36.3766 5.99707 36.2486 6.08808 36.2012 6.22394L31.8129 18.813C31.7363 19.033 31.8994 19.2629 32.132 19.2629H35.4907C35.6345 19.2629 35.7627 19.1713 35.81 19.0354C36.232 17.8233 36.6035 16.7288 36.9247 15.7519H41.7953C41.9468 16.2709 42.1364 16.8592 42.3638 17.5168C42.5507 18.0235 42.7329 18.5303 42.9102 19.0368C42.9578 19.1723 43.0852 19.2629 43.2286 19.2629H46.5134C46.7457 19.2629 46.9087 19.0336 46.8328 18.8138L42.4804 6.22474ZM37.4174 14.1577C38.1376 11.7664 38.763 9.48904 39.2936 7.32559H39.3694C39.9883 9.69158 40.6391 11.969 41.3214 14.1577H37.4174Z" fill="#21242E"/>
<path d="M42.4804 6.22474C42.4333 6.08849 42.3052 5.99707 42.1612 5.99707H36.5203C36.3766 5.99707 36.2486 6.08808 36.2012 6.22394L31.8129 18.813C31.7363 19.033 31.8994 19.2629 32.132 19.2629H35.4907C35.6345 19.2629 35.7627 19.1713 35.81 19.0354C36.232 17.8233 36.6035 16.7288 36.9247 15.7519H41.7953C41.9468 16.2709 42.1364 16.8592 42.3638 17.5168C42.5507 18.0235 42.7329 18.5303 42.9102 19.0368C42.9578 19.1723 43.0852 19.2629 43.2286 19.2629H46.5134C46.7457 19.2629 46.9087 19.0336 46.8328 18.8138L42.4804 6.22474ZM37.4174 14.1577C38.1376 11.7664 38.763 9.48904 39.2936 7.32559H39.3694C39.9883 9.69158 40.6391 11.969 41.3214 14.1577H37.4174Z" fill="#21242E"/>
<path d="M56.967 10.1299C56.4597 9.75555 55.7751 9.56836 54.913 9.56836C54.1775 9.56836 53.5118 9.70584 52.9159 9.98014C52.3198 10.2547 51.7967 10.7164 51.3467 11.365C51.048 11.7956 50.7934 12.319 50.5813 12.9309V10.5559L50.6222 10.2442C50.6484 10.0446 50.4904 9.86785 50.2858 9.86785H47.7013C47.5139 9.86785 47.3621 10.0172 47.3621 10.2015V18.9289C47.3621 19.1132 47.5139 19.2626 47.7013 19.2626H50.2374C50.4247 19.2626 50.5765 19.1132 50.5765 18.9289V15.6319C50.5765 15.0582 50.6873 14.5529 50.9093 14.1161C51.131 13.6795 51.4387 13.3426 51.8318 13.1054C52.2246 12.8687 52.6749 12.7498 53.1822 12.7498C53.8414 12.7498 54.3358 12.9341 54.6657 13.302C54.9953 13.6701 55.1602 14.247 55.1602 15.0332V18.9289C55.1602 19.1132 55.312 19.2626 55.4993 19.2626H57.9973C58.1846 19.2626 58.3365 19.1132 58.3365 18.9289V14.1908C58.3365 13.2055 58.2348 12.3756 58.0322 11.7019C57.8292 11.0282 57.4742 10.5042 56.967 10.1299Z" fill="#21242E"/>
<path d="M56.967 10.1299C56.4597 9.75555 55.7751 9.56836 54.913 9.56836C54.1775 9.56836 53.5118 9.70584 52.9159 9.98014C52.3198 10.2547 51.7967 10.7164 51.3467 11.365C51.048 11.7956 50.7934 12.319 50.5813 12.9309V10.5559L50.6222 10.2442C50.6484 10.0446 50.4904 9.86785 50.2858 9.86785H47.7013C47.5139 9.86785 47.3621 10.0172 47.3621 10.2015V18.9289C47.3621 19.1132 47.5139 19.2626 47.7013 19.2626H50.2374C50.4247 19.2626 50.5765 19.1132 50.5765 18.9289V15.6319C50.5765 15.0582 50.6873 14.5529 50.9093 14.1161C51.131 13.6795 51.4387 13.3426 51.8318 13.1054C52.2246 12.8687 52.6749 12.7498 53.1822 12.7498C53.8414 12.7498 54.3358 12.9341 54.6657 13.302C54.9953 13.6701 55.1602 14.247 55.1602 15.0332V18.9289C55.1602 19.1132 55.312 19.2626 55.4993 19.2626H57.9973C58.1846 19.2626 58.3365 19.1132 58.3365 18.9289V14.1908C58.3365 13.2055 58.2348 12.3756 58.0322 11.7019C57.8292 11.0282 57.4742 10.5042 56.967 10.1299Z" fill="#21242E"/>
<path d="M61.4091 5.74219C60.7519 5.74219 60.2455 5.89192 59.8905 6.19103C59.535 6.49055 59.3573 6.92626 59.3573 7.49863C59.3573 8.08421 59.535 8.53304 59.8905 8.84535C60.2455 9.15768 60.7519 9.31376 61.4091 9.31376C62.0661 9.31376 62.569 9.15768 62.9179 8.84535C63.2663 8.53304 63.4408 8.08421 63.4408 7.49863C63.4408 6.93947 63.2663 6.50666 62.9179 6.20084C62.569 5.89523 62.0661 5.74219 61.4091 5.74219Z" fill="#21242E"/>
<path d="M61.4091 5.74219C60.7519 5.74219 60.2455 5.89192 59.8905 6.19103C59.535 6.49055 59.3573 6.92626 59.3573 7.49863C59.3573 8.08421 59.535 8.53304 59.8905 8.84535C60.2455 9.15768 60.7519 9.31376 61.4091 9.31376C62.0661 9.31376 62.569 9.15768 62.9179 8.84535C63.2663 8.53304 63.4408 8.08421 63.4408 7.49863C63.4408 6.93947 63.2663 6.50666 62.9179 6.20084C62.569 5.89523 62.0661 5.74219 61.4091 5.74219Z" fill="#21242E"/>
<path d="M62.5415 9.83063C61.7669 9.98692 61.0026 9.9872 60.2484 9.83143C60.0508 9.79065 59.8677 9.95327 59.8677 10.1643V18.9251C59.8677 19.1119 60.0124 19.2634 60.1908 19.2634H62.6071C62.7857 19.2634 62.9303 19.1119 62.9303 18.9251V10.1616C62.9303 9.94707 62.7427 9.79004 62.5415 9.83063Z" fill="#21242E"/>
<path d="M62.5415 9.83063C61.7669 9.98692 61.0026 9.9872 60.2484 9.83143C60.0508 9.79065 59.8677 9.95327 59.8677 10.1643V18.9251C59.8677 19.1119 60.0124 19.2634 60.1908 19.2634H62.6071C62.7857 19.2634 62.9303 19.1119 62.9303 18.9251V10.1616C62.9303 9.94707 62.7427 9.79004 62.5415 9.83063Z" fill="#21242E"/>
<path d="M80.5206 10.0456C80.0533 9.72745 79.3847 9.56836 78.5146 9.56836C77.8618 9.56836 77.273 9.72134 76.7484 10.0269C76.2235 10.3328 75.7563 10.8035 75.347 11.4399C74.9372 12.0762 74.6236 12.8874 74.4062 13.8728H74.2526C74.3804 12.9248 74.3516 12.1323 74.1663 11.496C73.9805 10.8597 73.6605 10.3796 73.2063 10.055C72.7518 9.7307 72.1792 9.56836 71.4882 9.56836C70.8096 9.56836 70.1923 9.76497 69.6355 10.1579C69.0787 10.551 68.6115 11.072 68.2341 11.7206C68.0244 12.0807 67.8528 12.4627 67.7162 12.8649V10.162H67.7052C67.6853 9.99817 67.5423 9.86785 67.3653 9.86785H64.804C64.6151 9.86785 64.4618 10.0173 64.4618 10.2015V18.929C64.4618 19.1132 64.6151 19.2626 64.804 19.2626H67.3638C67.5529 19.2626 67.7062 19.1132 67.7062 18.929V15.5758C67.7062 15.0021 67.8085 14.503 68.0133 14.0786C68.2179 13.6547 68.4964 13.3238 68.8484 13.0867C69.2003 12.8498 69.5875 12.7311 70.01 12.7311C70.509 12.7311 70.8865 12.878 71.1425 13.171C71.3984 13.4643 71.5264 13.9353 71.5264 14.5839V18.929C71.5264 19.1132 71.6797 19.2626 71.8689 19.2626H74.3902C74.5793 19.2626 74.7326 19.1132 74.7326 18.929V15.4635C74.7452 14.902 74.8573 14.4155 75.0685 14.0038C75.2797 13.5921 75.5547 13.2771 75.894 13.0586C76.2329 12.8405 76.6139 12.7311 77.0363 12.7311C77.3944 12.7311 77.6891 12.7937 77.9194 12.9183C78.1497 13.0432 78.3193 13.2303 78.4282 13.4797C78.5367 13.7295 78.5913 14.0664 78.5913 14.4903V18.9289C78.5913 19.1132 78.7446 19.2626 78.9335 19.2626H81.4742C81.6632 19.2626 81.8165 19.1132 81.8165 18.9289V14.0786C81.8165 12.9931 81.7172 12.1294 81.5189 11.4867C81.3203 10.8442 80.9877 10.3637 80.5206 10.0456Z" fill="#21242E"/>
<path d="M80.5206 10.0456C80.0533 9.72745 79.3847 9.56836 78.5146 9.56836C77.8618 9.56836 77.273 9.72134 76.7484 10.0269C76.2235 10.3328 75.7563 10.8035 75.347 11.4399C74.9372 12.0762 74.6236 12.8874 74.4062 13.8728H74.2526C74.3804 12.9248 74.3516 12.1323 74.1663 11.496C73.9805 10.8597 73.6605 10.3796 73.2063 10.055C72.7518 9.7307 72.1792 9.56836 71.4882 9.56836C70.8096 9.56836 70.1923 9.76497 69.6355 10.1579C69.0787 10.551 68.6115 11.072 68.2341 11.7206C68.0244 12.0807 67.8528 12.4627 67.7162 12.8649V10.162H67.7052C67.6853 9.99817 67.5423 9.86785 67.3653 9.86785H64.804C64.6151 9.86785 64.4618 10.0173 64.4618 10.2015V18.929C64.4618 19.1132 64.6151 19.2626 64.804 19.2626H67.3638C67.5529 19.2626 67.7062 19.1132 67.7062 18.929V15.5758C67.7062 15.0021 67.8085 14.503 68.0133 14.0786C68.2179 13.6547 68.4964 13.3238 68.8484 13.0867C69.2003 12.8498 69.5875 12.7311 70.01 12.7311C70.509 12.7311 70.8865 12.878 71.1425 13.171C71.3984 13.4643 71.5264 13.9353 71.5264 14.5839V18.929C71.5264 19.1132 71.6797 19.2626 71.8689 19.2626H74.3902C74.5793 19.2626 74.7326 19.1132 74.7326 18.929V15.4635C74.7452 14.902 74.8573 14.4155 75.0685 14.0038C75.2797 13.5921 75.5547 13.2771 75.894 13.0586C76.2329 12.8405 76.6139 12.7311 77.0363 12.7311C77.3944 12.7311 77.6891 12.7937 77.9194 12.9183C78.1497 13.0432 78.3193 13.2303 78.4282 13.4797C78.5367 13.7295 78.5913 14.0664 78.5913 14.4903V18.9289C78.5913 19.1132 78.7446 19.2626 78.9335 19.2626H81.4742C81.6632 19.2626 81.8165 19.1132 81.8165 18.9289V14.0786C81.8165 12.9931 81.7172 12.1294 81.5189 11.4867C81.3203 10.8442 80.9877 10.3637 80.5206 10.0456Z" fill="#21242E"/>
<path d="M91.4966 10.1692C90.6682 9.76874 89.6786 9.56836 88.5279 9.56836C87.3391 9.56836 86.3147 9.77198 85.4549 10.1788C84.5948 10.5858 83.9437 11.1705 83.5012 11.9335C83.0583 12.6965 82.8373 13.6058 82.8373 14.661C82.8373 15.7038 83.0583 16.6099 83.5012 17.379C83.9437 18.1486 84.5853 18.7399 85.4265 19.1529C86.2673 19.5659 87.276 19.7729 88.452 19.7729C89.6282 19.7729 90.6363 19.5659 91.4776 19.1529C92.3185 18.7399 92.9601 18.1486 93.4029 17.379C93.8455 16.6099 94.0669 15.7038 94.0669 14.661C94.0669 13.6058 93.8455 12.6935 93.4029 11.9239C92.9601 11.1548 92.3246 10.5698 91.4966 10.1692ZM90.7851 15.7482C90.57 16.0662 90.2635 16.3079 89.8652 16.473C89.4669 16.6385 89.0022 16.721 88.471 16.721C87.9272 16.721 87.4561 16.6385 87.0579 16.473C86.6595 16.3079 86.3494 16.0662 86.1283 15.7482C85.907 15.4306 85.7964 15.0554 85.7964 14.6229C85.7964 14.2289 85.9037 13.8761 86.1188 13.5643C86.3337 13.2529 86.6406 13.0112 87.0389 12.8395C87.4372 12.6679 87.9144 12.582 88.471 12.582C89.0146 12.582 89.4826 12.6679 89.8748 12.8395C90.2666 13.0112 90.57 13.2529 90.7851 13.5643C91.0001 13.8761 91.1077 14.2289 91.1077 14.6229C91.1077 15.0554 91.0001 15.4306 90.7851 15.7482Z" fill="#21242E"/>
<path d="M91.4966 10.1692C90.6682 9.76874 89.6786 9.56836 88.5279 9.56836C87.3391 9.56836 86.3147 9.77198 85.4549 10.1788C84.5948 10.5858 83.9437 11.1705 83.5012 11.9335C83.0583 12.6965 82.8373 13.6058 82.8373 14.661C82.8373 15.7038 83.0583 16.6099 83.5012 17.379C83.9437 18.1486 84.5853 18.7399 85.4265 19.1529C86.2673 19.5659 87.276 19.7729 88.452 19.7729C89.6282 19.7729 90.6363 19.5659 91.4776 19.1529C92.3185 18.7399 92.9601 18.1486 93.4029 17.379C93.8455 16.6099 94.0669 15.7038 94.0669 14.661C94.0669 13.6058 93.8455 12.6935 93.4029 11.9239C92.9601 11.1548 92.3246 10.5698 91.4966 10.1692ZM90.7851 15.7482C90.57 16.0662 90.2635 16.3079 89.8652 16.473C89.4669 16.6385 89.0022 16.721 88.471 16.721C87.9272 16.721 87.4561 16.6385 87.0579 16.473C86.6595 16.3079 86.3494 16.0662 86.1283 15.7482C85.907 15.4306 85.7964 15.0554 85.7964 14.6229C85.7964 14.2289 85.9037 13.8761 86.1188 13.5643C86.3337 13.2529 86.6406 13.0112 87.0389 12.8395C87.4372 12.6679 87.9144 12.582 88.471 12.582C89.0146 12.582 89.4826 12.6679 89.8748 12.8395C90.2666 13.0112 90.57 13.2529 90.7851 13.5643C91.0001 13.8761 91.1077 14.2289 91.1077 14.6229C91.1077 15.0554 91.0001 15.4306 90.7851 15.7482Z" fill="#21242E"/>
<path d="M102.148 9.73992H99.1255V9.50785C99.2019 9.27593 99.2528 9.0699 99.2783 8.88934C99.3038 8.70897 99.3229 8.49301 99.3357 8.24165C99.3483 7.99028 99.3611 7.64565 99.374 7.20736V7.10739C99.374 6.91703 99.2213 6.7627 99.0333 6.7627H97.1539C96.9657 6.7627 96.8132 6.91703 96.8132 7.10739V7.78733C96.8132 8.31593 96.7653 8.71863 96.6698 8.9956C96.5743 9.27286 96.3988 9.46622 96.1441 9.5755C95.8893 9.68521 95.5008 9.73992 94.9785 9.73992H94.918C94.7298 9.73992 94.5771 9.89425 94.5771 10.0846V12.353C94.5771 12.5433 94.7298 12.6977 94.918 12.6977H96.1634V15.6749C96.1634 16.5386 96.2971 17.2795 96.5646 17.8982C96.8323 18.5167 97.2144 18.9841 97.7113 19.2997C98.2082 19.6154 98.7941 19.7734 99.4694 19.7734C100.119 19.7734 100.702 19.6187 101.218 19.3094C101.68 19.0323 102.056 18.644 102.344 18.1441C102.405 18.0384 102.404 17.9071 102.339 17.8041L101.943 17.1776C101.852 17.0345 101.667 16.986 101.521 17.0692C101.297 17.1966 101.034 17.2602 100.731 17.2602C100.297 17.2602 99.9598 17.1089 99.7179 16.8059C99.4757 16.5032 99.3549 16.0359 99.3549 15.4042V12.6977H102.148C102.336 12.6977 102.489 12.5433 102.489 12.353V10.0846C102.489 9.89426 102.336 9.73992 102.148 9.73992Z" fill="#21242E"/>
<path d="M102.148 9.73992H99.1255V9.50785C99.2019 9.27593 99.2528 9.0699 99.2783 8.88934C99.3038 8.70897 99.3229 8.49301 99.3357 8.24165C99.3483 7.99028 99.3611 7.64565 99.374 7.20736V7.10739C99.374 6.91703 99.2213 6.7627 99.0333 6.7627H97.1539C96.9657 6.7627 96.8132 6.91703 96.8132 7.10739V7.78733C96.8132 8.31593 96.7653 8.71863 96.6698 8.9956C96.5743 9.27286 96.3988 9.46622 96.1441 9.5755C95.8893 9.68521 95.5008 9.73992 94.9785 9.73992H94.918C94.7298 9.73992 94.5771 9.89425 94.5771 10.0846V12.353C94.5771 12.5433 94.7298 12.6977 94.918 12.6977H96.1634V15.6749C96.1634 16.5386 96.2971 17.2795 96.5646 17.8982C96.8323 18.5167 97.2144 18.9841 97.7113 19.2997C98.2082 19.6154 98.7941 19.7734 99.4694 19.7734C100.119 19.7734 100.702 19.6187 101.218 19.3094C101.68 19.0323 102.056 18.644 102.344 18.1441C102.405 18.0384 102.404 17.9071 102.339 17.8041L101.943 17.1776C101.852 17.0345 101.667 16.986 101.521 17.0692C101.297 17.1966 101.034 17.2602 100.731 17.2602C100.297 17.2602 99.9598 17.1089 99.7179 16.8059C99.4757 16.5032 99.3549 16.0359 99.3549 15.4042V12.6977H102.148C102.336 12.6977 102.489 12.5433 102.489 12.353V10.0846C102.489 9.89426 102.336 9.73992 102.148 9.73992Z" fill="#21242E"/>
</svg>
