<svg width="72" height="25" viewBox="0 0 72 25" fill="none" xmlns="http://www.w3.org/2000/svg">
<path fill-rule="evenodd" clip-rule="evenodd" d="M14.1538 9.26437C14.1538 14.2372 10.0735 18.2709 5.04083 18.2709H2.00369V14.4637C2.89715 14.9752 3.93573 15.2692 5.04234 15.2692C8.39695 15.2692 11.1166 12.5811 11.1166 9.26437C11.1166 5.94767 8.39695 3.261 5.04234 3.2595C3.93573 3.2595 2.89866 3.55352 2.0052 4.06505V0.257812H5.04234C10.075 0.257812 14.1553 4.29006 14.1553 9.26437H14.1538ZM43.0363 0.257812H46.0659V18.2589H43.0363V0.257812ZM59.3949 12.2588C59.3949 8.72459 57.2209 5.85791 53.3357 5.85791C49.4505 5.85791 47.2766 8.72459 47.2766 12.2588C47.2766 15.793 49.4505 18.6597 53.3357 18.6597C55.7152 18.6597 57.3132 17.7191 58.5649 16.2431L56.4273 14.9005C55.552 15.697 54.8006 16.0585 53.3342 16.0585C51.6047 16.0585 50.5132 14.8705 50.1988 13.2579H59.3299C59.3707 12.9323 59.3918 12.5978 59.3918 12.2573L59.3949 12.2588ZM50.2426 11.0587C50.607 9.54814 51.6773 8.45907 53.3357 8.45907C54.9941 8.45907 56.0644 9.54964 56.4288 11.0587H50.2441H50.2426ZM66.9715 12.1282L71.5159 6.2583H68.0827L65.2542 9.91103L62.4272 6.2583H58.994L63.5383 12.1282L58.7914 18.259H62.2246L65.2542 14.3453L68.2838 18.259H71.7185L66.9715 12.1282ZM35.9655 5.85794C34.1726 5.85794 32.7062 6.46398 31.6434 7.46154L31.5224 6.25697H28.6954V24.2581H31.725V17.1281C32.7787 18.0807 34.2179 18.6582 35.967 18.6582C39.3141 18.6582 41.8251 15.7916 41.8251 12.2573C41.8251 8.72312 39.3141 5.85645 35.967 5.85645L35.9655 5.85794ZM35.2716 16.0586C33.3744 16.0586 31.7235 14.356 31.7235 12.2588C31.7235 10.1617 33.3759 8.45911 35.2716 8.45911C37.1674 8.45911 38.5899 10.1617 38.5899 12.2588C38.5899 14.356 37.1674 16.0586 35.2716 16.0586ZM23.8481 6.25834V12.8587H23.8451C23.8451 14.9544 22.8352 16.0584 21.325 16.0584C19.5668 16.0584 18.5947 15.0099 18.5947 12.6577V6.25684H15.5652V12.2572C15.5652 16.0584 16.7201 18.6581 20.2108 18.6581C21.8012 18.6581 23.0514 18.1121 23.9419 17.2045L24.0492 18.2591H26.8777V6.25834H23.8481ZM5.04265 4.88874V13.6388L5.03844 13.639C5.0067 13.6404 4.97624 13.6418 4.94439 13.6418C2.47869 13.6418 0.471069 11.6782 0.471069 9.26451C0.471069 6.85086 2.47869 4.88724 4.94439 4.88574C4.96101 4.88574 4.97727 4.88649 4.99352 4.88724C5.00977 4.88799 5.02602 4.88874 5.04265 4.88874Z" fill="#24272F"/>
</svg>
