<svg width="148" height="29" viewBox="0 0 148 29" fill="none" xmlns="http://www.w3.org/2000/svg">
<path d="M38.7399 19.978V5.83901H41.188C41.7811 5.83901 42.262 6.31985 42.262 6.91299V17.206H47.3494C47.9425 17.206 48.4233 17.6869 48.4233 18.28V19.978H38.7399Z" fill="#000001"/>
<path d="M59.7619 14.3697V15.2936H52.2237C52.374 17.0341 53.2546 17.7862 54.715 17.7862C55.9821 17.7862 56.7982 17.335 56.8841 16.3036H59.7619C59.6975 18.7317 57.6787 20.1499 54.6505 20.1499C51.1284 20.1499 48.9378 18.1515 48.9378 14.7779C48.9378 11.2754 51.1284 9.1911 54.715 9.1911C57.6787 9.1911 59.7619 10.8886 59.7619 14.3697ZM56.8841 13.5531V13.3812C56.8841 12.1779 56.068 11.5548 54.715 11.5548C53.3405 11.5548 52.5673 12.1564 52.3096 13.5531H56.8841Z" fill="#000001"/>
<path d="M65.2496 20.1499C62.7798 20.1499 61.0617 19.0755 61.0617 16.9267C61.0617 15.1862 62.3073 13.9184 65.1207 13.9184H68.5784V13.2093C68.5784 11.9201 67.8482 11.4043 66.3449 11.4043C65.1207 11.4043 64.412 11.9201 64.412 12.7796C64.412 12.844 64.412 13.0159 64.4335 13.2308H61.4268C61.4053 13.0589 61.3839 12.8225 61.3839 12.6077C61.3839 10.4589 63.2738 9.1911 66.4952 9.1911C69.867 9.1911 71.8428 10.6952 71.8428 13.5316V19.978H68.5784C68.6428 19.4408 68.7287 18.4738 68.7287 17.8292H68.7073C68.3851 19.3333 67.1824 20.1499 65.2496 20.1499ZM65.8939 17.9366C67.5905 17.9366 68.5784 17.1846 68.5784 15.8953V15.6804H65.4214C64.5409 15.6804 64.004 16.0887 64.004 16.6903C64.004 17.5069 64.7127 17.9366 65.8939 17.9366Z" fill="#000001"/>
<path d="M78.1651 20.1499C75.0939 20.1499 73.1825 17.9151 73.1825 14.5845C73.1825 11.3399 75.2013 9.1911 78.2939 9.1911C80.012 9.1911 81.1288 9.83573 81.6013 10.9316H81.6227V6.16092C81.6227 5.56778 82.1036 5.08694 82.6967 5.08694H84.8871V19.978H81.6227C81.6442 19.7631 81.6872 18.8391 81.7516 17.7003H81.7086C81.3006 19.2044 80.0979 20.1499 78.1651 20.1499ZM78.9167 17.6573C80.5489 17.6573 81.6227 16.4969 81.6227 14.7564V14.2407C81.6227 12.7151 80.5489 11.6837 78.9597 11.6837C77.4349 11.6837 76.4255 12.844 76.4255 14.606C76.4255 16.411 77.4134 17.6573 78.9167 17.6573Z" fill="#000001"/>
<path d="M86.6108 24.2326V9.363H89.8752L89.8107 11.5333H89.8322C90.2403 10.0721 91.5933 9.1911 93.4188 9.1911C96.3825 9.1911 98.3154 11.2969 98.3154 14.4341C98.3154 17.8722 96.3825 20.1499 93.3973 20.1499C91.4644 20.1499 90.2617 19.3548 89.7893 18.0656H89.7678C89.8107 18.7747 89.8752 19.8276 89.8752 20.2143V23.1586C89.8752 23.7517 89.3943 24.2326 88.8012 24.2326H86.6108ZM92.6241 17.6573C94.0845 17.6573 95.0724 16.411 95.0724 14.563C95.0724 12.844 94.0845 11.6837 92.6027 11.6837C90.9705 11.6837 89.8752 12.8655 89.8752 14.649V15.1217C89.8752 16.6474 90.9705 17.6573 92.6241 17.6573Z" fill="#000001"/>
<path d="M103.274 20.1499C100.804 20.1499 99.0857 19.0755 99.0857 16.9267C99.0857 15.1862 100.331 13.9184 103.145 13.9184H106.602V13.2093C106.602 11.9201 105.872 11.4043 104.369 11.4043C103.145 11.4043 102.436 11.9201 102.436 12.7796C102.436 12.844 102.436 13.0159 102.457 13.2308H99.4507C99.4293 13.0589 99.4078 12.8225 99.4078 12.6077C99.4078 10.4589 101.298 9.1911 104.519 9.1911C107.891 9.1911 109.867 10.6952 109.867 13.5316V19.978H106.602C106.667 19.4408 106.753 18.4738 106.753 17.8292H106.731C106.409 19.3333 105.206 20.1499 103.274 20.1499ZM103.918 17.9366C105.614 17.9366 106.602 17.1846 106.602 15.8953V15.6804H103.445C102.565 15.6804 102.028 16.0887 102.028 16.6903C102.028 17.5069 102.737 17.9366 103.918 17.9366Z" fill="#000001"/>
<path d="M119.088 18.0441C121.494 18.0441 122.911 19.097 122.911 20.859C122.911 23.2871 120.742 24.5764 117.07 24.5764C113.333 24.5764 111.121 23.5449 111.121 21.7829C111.121 20.6656 111.851 19.978 113.032 19.849V19.8276C112.388 19.4193 112.044 18.8391 112.044 18.087C112.044 17.0771 112.559 16.454 113.354 16.0887V16.0672C112.237 15.4226 111.615 14.3697 111.615 12.9944C111.615 10.6093 113.461 9.1911 116.576 9.1911C117.821 9.1911 118.852 9.40598 119.647 9.83574L119.668 9.79276C119.239 9.40598 119.045 8.97622 119.045 8.58944C119.045 7.70844 119.926 7.19274 121.279 7.19274C121.859 7.19274 122.159 7.23571 122.46 7.30018V9.363C122.267 9.32003 122.052 9.29854 121.816 9.29854C121.129 9.29854 120.806 9.59937 120.806 10.0936C120.806 10.3514 120.892 10.6738 121.043 11.0605C121.386 11.5977 121.558 12.2424 121.558 12.9944C121.558 15.3796 119.711 16.7763 116.576 16.7763C115.931 16.7763 115.351 16.7118 114.814 16.6044C114.729 16.7333 114.621 16.9912 114.621 17.292C114.621 17.7647 115.008 18.0441 115.652 18.0441H119.088ZM116.576 11.2539C115.394 11.2539 114.686 11.8986 114.686 12.9944C114.686 14.0688 115.394 14.7135 116.576 14.7135C117.778 14.7135 118.487 14.0688 118.487 12.9944C118.487 11.8986 117.778 11.2539 116.576 11.2539ZM117.027 22.5995C118.68 22.5995 119.647 22.1482 119.647 21.3102C119.647 20.73 119.217 20.4077 118.272 20.4077H115.759C114.879 20.4077 114.364 20.773 114.364 21.3747C114.364 22.1697 115.351 22.5995 117.027 22.5995Z" fill="#000001"/>
<path d="M133.684 14.3697V15.2936H126.146C126.296 17.0341 127.176 17.7862 128.637 17.7862C129.904 17.7862 130.72 17.335 130.806 16.3036H133.684C133.619 18.7317 131.601 20.1499 128.572 20.1499C125.05 20.1499 122.86 18.1515 122.86 14.7779C122.86 11.2754 125.05 9.1911 128.637 9.1911C131.601 9.1911 133.684 10.8886 133.684 14.3697ZM130.806 13.5531V13.3812C130.806 12.1779 129.99 11.5548 128.637 11.5548C127.262 11.5548 126.489 12.1564 126.231 13.5531H130.806Z" fill="#000001"/>
<path d="M140.224 20.1499C136.487 20.1499 134.919 18.5598 134.919 16.411H137.84C137.84 17.3994 138.334 18.0441 140.202 18.0441C141.899 18.0441 142.5 17.5499 142.5 16.7763C142.5 16.3895 142.307 16.0887 141.749 15.9598C141.19 15.8308 140.331 15.7449 139.279 15.6589C137.754 15.53 136.573 15.2936 135.928 14.8424C135.327 14.4126 134.919 13.6391 134.919 12.7581C134.919 10.4589 137.281 9.1911 140.224 9.1911C143.703 9.1911 145.292 10.5233 145.292 12.9944H142.414C142.393 11.8771 141.877 11.2969 140.267 11.2969C138.806 11.2969 138.162 11.7911 138.162 12.5217C138.162 12.973 138.334 13.3168 138.935 13.4672C139.472 13.5961 140.417 13.682 141.555 13.7895C142.865 13.9184 143.789 14.0473 144.583 14.4986C145.271 14.8854 145.765 15.6804 145.765 16.6044C145.765 18.8391 143.853 20.1499 140.224 20.1499Z" fill="#000001"/>
<path d="M145.308 8.6518C145.308 7.97579 145.698 7.52511 146.434 7.52511C147.188 7.52511 147.535 7.97579 147.535 8.6518C147.535 9.3278 147.188 9.77848 146.434 9.77848C145.698 9.77848 145.308 9.3278 145.308 8.6518ZM145.611 8.6518C145.611 9.16314 145.992 9.49247 146.434 9.49247C146.902 9.49247 147.223 9.16314 147.223 8.6518C147.223 8.14046 146.902 7.81112 146.434 7.81112C145.992 7.81112 145.611 8.14046 145.611 8.6518ZM146.824 9.05047C146.833 9.13713 146.868 9.13713 146.894 9.15447V9.2238H146.712C146.668 9.2238 146.625 9.1458 146.608 9.05047L146.59 8.94647C146.582 8.86847 146.495 8.82513 146.374 8.82513H146.209V9.2238H145.992V8.07979H146.504C146.729 8.07979 146.894 8.24446 146.894 8.45246C146.894 8.66046 146.79 8.76446 146.573 8.74713V8.7558C146.712 8.7558 146.79 8.82513 146.807 8.94647L146.824 9.05047ZM146.486 8.63446C146.599 8.63446 146.677 8.56513 146.677 8.45246C146.677 8.33979 146.599 8.27046 146.486 8.27046H146.209V8.63446H146.486Z" fill="#000001"/>
<path fill-rule="evenodd" clip-rule="evenodd" d="M11.8902 0.683594C10.1108 0.683594 8.66826 2.12611 8.66826 3.90555V9.27548H3.29833C1.51889 9.27548 0.0763702 10.718 0.0763702 12.4974V25.3853C0.0763702 27.1647 1.51889 28.6072 3.29833 28.6072H16.1862C17.9656 28.6072 19.4081 27.1647 19.4081 25.3853V20.0153H24.778C26.5575 20.0153 28 18.5728 28 16.7934V0.683594H11.8902ZM19.4081 20.0153V9.27548H8.66826V16.7934C8.66826 18.5728 10.1108 20.0153 11.8902 20.0153H19.4081Z" fill="#000001"/>
</svg>
