<svg version="1.1" id="Layer_1" xmlns="http://www.w3.org/2000/svg" x="0" y="0" viewBox="0 0 185.9 25.6" style="enable-background:new 0 0 185.9 25.6" xml:space="preserve"><style>.st0{fill:#141214}</style><path class="st0" d="M1.6 12.8C1.6 4.8 5.5.7 13.1.7c6.5 0 10 2.6 10.6 7.6l-4.9.9c-.3-3.4-2.1-4.9-5.7-4.9-4.3 0-6.4 2.6-6.4 8.1v.8c0 5.6 2 8.2 6 8.2 3.7 0 5.7-2.1 6.3-6.5h-7.1v-3.5h12v13.2h-4.3c-.1-1.4.1-2.8.9-5.9l-.4-.1c-1.5 4.2-4.5 6.4-8.8 6.4-6.4-.2-9.7-4.3-9.7-12.2"/><path class="st0" d="M45.2 18.9c-.8 4-4 6-9.5 6-6.2 0-9.7-3-9.7-8.7v-1c0-5.6 3.5-8.7 9.8-8.7 6 0 9.3 3 9.3 8.3 0 .7-.1 1.4-.1 2.2H31c.1 3.3 1.9 4.9 4.9 4.9 2.5 0 4.1-1 4.5-3.4l4.8.4zM31 14h9.2v-.3c0-2.7-1.6-4.2-4.4-4.2-2.9.1-4.6 1.6-4.8 4.5"/><path class="st0" d="M46.3 20.4c0-3.7 3.1-5.2 7.9-6.1l4.7-.9v-1c0-2-1.1-2.9-3.5-2.9-2.7 0-4.1 1.2-3.9 3.9l-4.8-.4c-.2-4.1 2.8-6.4 8.7-6.4 5.6 0 8.3 1.9 8.3 5.9v8c0 1.2.2 1.4 2 1.4l-.6 2.9c-.4.1-.9.1-1.4.1-3.8 0-4.5-1.4-3.9-4.6l-.2-.1c-1.1 3-3.9 4.7-7.8 4.7-3.5 0-5.5-1.7-5.5-4.5M58.9 17v-.8l-3.1.6c-3.1.6-4.6 1.3-4.6 3v.1c0 1.2.9 1.8 2.5 1.8 2.8 0 5.2-2 5.2-4.7"/><path class="st0" d="M66.9 24.5V7h4.9c0 1.2-.2 2.1-.9 4.5l.3.2c1.8-3.6 3.6-4.9 7.5-5.2l.6 4c-6.2.2-7.5 1.5-7.5 6.7v7.3h-4.9z"/><path class="st0" d="m84.8 20.1-.4.1c.6 1.8.9 3.3.9 4.3h-4.9V1.1h4.9v4.8c0 1.8-.3 3.3-.9 5.3l.3.1c1.2-3 3.6-4.7 7.2-4.7 5 0 7.6 3.1 7.6 8.9v.4c0 5.8-2.6 8.9-7.6 8.9-3.5 0-5.9-1.7-7.1-4.7m9.9-4v-.8c0-3.8-1.6-5.7-4.6-5.7-3.1 0-4.8 2-4.8 5.8v.6c0 3.8 1.7 5.8 4.8 5.8 3 0 4.6-1.9 4.6-5.7"/><path class="st0" d="M101 15.9v-.5c0-5.9 3.6-8.9 9.7-8.9s9.6 3.1 9.6 8.9v.5c0 5.9-3.6 8.9-9.6 8.9-6.1.1-9.7-3-9.7-8.9m14.3.3v-1c0-3.9-1.7-5.6-4.7-5.6s-4.7 1.8-4.7 5.6v1c0 3.9 1.7 5.6 4.7 5.6s4.7-1.8 4.7-5.6"/><path class="st0" d="m119.7 24.5 6.6-8.8L120 7h5.4l2.6 3.8c.6.9.9 1.4 1.1 1.9h.3c.2-.5.6-1.1 1.1-1.9l2.7-3.8h5.2l-6.4 8.4 6.7 9.1h-5.5l-3-4.2c-.6-.7-.8-1.3-1.1-1.8h-.3c-.2.5-.5 1.1-1.1 1.8l-3 4.2h-5z"/><path class="st0" d="m184.2 19.8.1-.4-19-6.2-.3.3 1.1 1.9-.3.3-13.5-2.6-.4.3 1.2 1.9-.4.3-15-2.6-.1.5 19 6.2.3-.3-1.1-1.9.3-.4 13.5 2.6.4-.3-1.2-1.9.4-.3 15 2.6z"/></svg>