<?xml version="1.0" encoding="UTF-8"?>
<svg width="46px" height="19px" viewBox="0 0 46 19" version="1.1" xmlns="http://www.w3.org/2000/svg" xmlns:xlink="http://www.w3.org/1999/xlink">
    <!-- Generator: Sketch 58 (84663) - https://sketch.com -->
    <title>Product/Product-Overview-v2/CheckoutsSection/Stripe-Logo-46px@2x</title>
    <desc>Created with Sketch.</desc>
    <g id="/product-v2" stroke="none" stroke-width="1" fill="none" fill-rule="evenodd">
        <g id="/product-overview" transform="translate(-254.000000, -4638.000000)" fill="#6772E5">
            <g id="Left" transform="translate(0.000000, 4360.000000)">
                <g id="Content" transform="translate(165.000000, 122.000000)">
                    <g id="Group-28" transform="translate(0.000000, 95.000000)">
                        <g id="Product/Product-Overview-v2/CheckoutsSection/Stripe-Logo-46px" transform="translate(89.000000, 61.000000)">
                            <path d="M45.413999,9.6966718 C45.413999,6.48950386 43.8497391,3.95884792 40.8599841,3.95884792 C37.8576142,3.95884792 36.0410542,6.48950386 36.0410542,9.6716158 C36.0410542,13.4425437 38.1856042,15.3467997 41.2636641,15.3467997 C42.7648491,15.3467997 43.9001991,15.0085437 44.7580191,14.5324797 L44.7580191,12.0268797 C43.9001991,12.4528317 42.9162291,12.7159197 41.6673441,12.7159197 C40.4436892,12.7159197 39.3587992,12.2899677 39.2200342,10.8116638 L45.388769,10.8116638 C45.388769,10.6487998 45.413999,9.99734379 45.413999,9.6966718 Z M39.1821892,8.50651182 C39.1821892,7.09084785 40.0526242,6.50203186 40.8473691,6.50203186 C41.6168841,6.50203186 42.4368591,7.09084785 42.4368591,8.50651182 L39.1821892,8.50651182 Z" id="Shape"></path>
                            <path d="M31.1716643,3.95884792 C29.9353944,3.95884792 29.1406494,4.5351359 28.6991244,4.9360319 L28.5351294,4.15929591 L25.7598295,4.15929591 L25.7598295,18.7669436 L28.9135794,18.1029596 L28.9261944,14.5575357 C29.3803344,14.8832637 30.0489294,15.3467997 31.1590493,15.3467997 C33.4171343,15.3467997 35.4733793,13.5427677 35.4733793,9.5713918 C35.4607643,5.93827188 33.3792893,3.95884792 31.1716643,3.95884792 Z M30.4147644,12.5906397 C29.6704794,12.5906397 29.2289544,12.3275517 28.9261944,12.0018237 L28.9135794,7.35393585 C29.2415694,6.99062385 29.6957094,6.74006386 30.4147644,6.74006386 C31.5627293,6.74006386 32.3574743,8.01791983 32.3574743,9.6590878 C32.3574743,11.3378398 31.5753443,12.5906397 30.4147644,12.5906397 Z" id="Shape"></path>
                            <polygon id="Path" points="21.4202695 3.21969593 24.5866345 2.54318395 24.5866345 0 21.4202695 0.663983986"></polygon>
                            <rect id="Rectangle" x="21.4202695" y="4.17182391" width="3.16636493" height="10.9619998"></rect>
                            <path d="M18.0268346,5.09889589 L17.8249946,4.17182391 L15.1001547,4.17182391 L15.1001547,15.1338237 L18.2539046,15.1338237 L18.2539046,7.70471984 C18.9981896,6.74006386 20.2596896,6.91545585 20.6507546,7.05326385 L20.6507546,4.17182391 C20.2470746,4.02148792 18.7711196,3.74587192 18.0268346,5.09889589 Z" id="Path"></path>
                            <path d="M11.7193348,1.45324797 L8.64127482,2.10470396 L8.62865982,12.1396317 C8.62865982,13.9937757 10.0289248,15.3593277 11.8959448,15.3593277 C12.9303747,15.3593277 13.6872747,15.1714077 14.1035697,14.9459037 L14.1035697,12.4027197 C13.6998897,12.5655837 11.7067198,13.1418717 11.7067198,11.2877278 L11.7067198,6.84028786 L14.1035697,6.84028786 L14.1035697,4.17182391 L11.7067198,4.17182391 L11.7193348,1.45324797 Z" id="Path"></path>
                            <path d="M3.19159493,7.35393585 C3.19159493,6.86534386 3.59527492,6.67742386 4.26386991,6.67742386 C5.22260989,6.67742386 6.43364986,6.96556785 7.39238984,7.47921584 L7.39238984,4.5351359 C6.34534487,4.12171191 5.31091489,3.95884792 4.26386991,3.95884792 C1.70302496,3.95884792 0,5.28681589 0,7.50427184 C0,10.9619998 4.7936999,10.4107678 4.7936999,11.9015997 C4.7936999,12.4778877 4.28909991,12.6658077 3.58265992,12.6658077 C2.53561495,12.6658077 1.19842497,12.2398557 0.138764997,11.6635678 L0.138764997,14.6452317 C1.31195997,15.1463517 2.49776995,15.3593277 3.58265992,15.3593277 C6.20657987,15.3593277 8.01052483,14.0689437 8.01052483,11.8264318 C7.99790983,8.09308783 3.19159493,8.75707182 3.19159493,7.35393585 Z" id="Path"></path>
                        </g>
                    </g>
                </g>
            </g>
        </g>
    </g>
</svg>