<svg height="29" viewBox="0 0 82 29" width="82" xmlns="http://www.w3.org/2000/svg"><g><path d="m.49671611.32612328v6.58873576h3.59081051v15.39443606h-3.59081051v6.1225516h19.14084589v-6.1329112h-3.580667v-15.38407646h3.580667v-6.58873576z"/><path d="m20.6397345 6.99465739v6.11648351h2.7218001v9.2160527h-2.7218001v6.1061516h15.0565497v-6.1061516h-2.8747102v-5.2899316c0-2.2420218 1.6616233-3.8951255 3.883917-3.8951255 1.7431754 0 3.0989784.8678795 3.0989784 2.7896124v6.3954447h-2.7931582v6.1061516h14.6997594v-6.0131645c-.010194-.0309957-.030582-.0619914-.040776-.0929871h-2.4057859v-8.079544c0-5.15561697-3.7208128-7.03602236-8.2979224-7.03602236-3.2620825 0-5.7392264.909207-7.9105501 3.41985816-.1529102.1963061-.3465963.4339397-.5402825.5889182v-4.21541431h-11.8760192z"/><path d="m64.0121588 7.12634253c-6.6679264 0-13.2243829 3.32393207-13.2243829 10.87738767 0 1.6053666.3040088 3.0254986.8309574 4.2501051h.0405345v.0926173c1.9963244 4.4970846 7.1442068 6.5243745 12.352891 6.5243745 4.2459896 0 10.1538939-1.039372 11.4813991-7.6769453l.0608017-.710066h-7.7826253-.2634743c0 2.2433969-1.601113 3.3033504-3.4251659 3.3033504-3.4758339 0-3.7393082-2.943172-3.7393082-5.7628544v-.0617448c0-2.8196824.2736079-5.7525636 3.7393082-5.7525636 2.7259456 0 3.1920925 2.4080499 3.2934287 4.6823192l8.0765005-.9055914c-.8613582-8.35613891-8.958126-8.88097029-10.9848513-8.88097029-.2938752.01029081-.4560132.02058162-.4560132.02058162"/><path d="m75.0489858 25.0499283c0 1.9241184 1.5379715 3.4758269 3.4222411 3.4758269 1.8944548 0 3.422241-1.5517085 3.422241-3.4758269 0-1.9241185-1.5379714-3.4758269-3.422241-3.4758269-1.8944549 0-3.4222411 1.5620532-3.4222411 3.4758269"/></g></svg>