<?xml version="1.0" standalone="no"?>
<svg xmlns:xlink="http://www.w3.org/1999/xlink" width="242" height="64" viewBox="0 0 242 64" fill="none" xmlns="http://www.w3.org/2000/svg">
<g clip-path="url(#clip0_4950_12604)">
<path fill-rule="evenodd" clip-rule="evenodd" d="M184.804 22.7261C183.406 22.7261 182.022 23.0082 180.736 23.5556C179.45 24.1029 178.287 24.9042 177.318 25.9115C176.349 26.9188 175.593 28.1113 175.095 29.4177C174.599 30.7224 174.37 32.1138 174.423 33.5089C174.37 34.9039 174.599 36.2954 175.095 37.6001C175.593 38.9064 176.349 40.099 177.318 41.1063C178.287 42.1135 179.45 42.9148 180.736 43.4622C182.022 44.0095 183.406 44.2916 184.804 44.2916C186.202 44.2916 187.585 44.0095 188.871 43.4622C190.158 42.9148 191.32 42.1135 192.289 41.1063C193.259 40.099 194.015 38.9064 194.512 37.6001C195.009 36.2954 195.238 34.9039 195.185 33.5089C195.238 32.1138 195.009 30.7224 194.512 29.4177C194.015 28.1113 193.259 26.9188 192.289 25.9115C191.32 24.9042 190.158 24.1029 188.871 23.5556C187.585 23.0082 186.202 22.7261 184.804 22.7261ZM192.685 33.5092L192.556 33.5147C192.6 34.5585 192.433 35.6004 192.065 36.5781C191.696 37.5557 191.135 38.449 190.413 39.2042C189.691 39.9595 188.824 40.5612 187.864 40.9733C186.904 41.3852 185.872 41.5992 184.827 41.6025C183.776 41.5874 182.738 41.3614 181.776 40.9377C180.813 40.5138 179.946 39.9008 179.225 39.1351C178.503 38.3695 177.944 37.4667 177.578 36.4804C177.213 35.4941 177.05 34.4444 177.098 33.3937L177.097 33.3813C177.051 32.337 177.216 31.2942 177.584 30.3157C177.951 29.3371 178.513 28.443 179.235 27.6874C179.958 26.9317 180.825 26.3301 181.786 25.9187C182.747 25.5075 183.781 25.2949 184.826 25.2938C185.876 25.3087 186.913 25.5349 187.875 25.9587C188.837 26.3827 189.703 26.9959 190.423 27.7618C191.143 28.5277 191.702 29.4307 192.065 30.4169C192.429 31.4031 192.591 32.4524 192.541 33.5023L192.685 33.5092Z" fill="black"/>
<path fill-rule="evenodd" clip-rule="evenodd" d="M231.001 22.7261C229.603 22.7261 228.22 23.0082 226.933 23.5556C225.647 24.1029 224.484 24.9042 223.515 25.9115C222.546 26.9188 221.79 28.1113 221.293 29.4177C220.796 30.7224 220.567 32.1138 220.62 33.5089C220.567 34.904 220.796 36.2954 221.293 37.6001C221.79 38.9064 222.546 40.099 223.515 41.1063C224.484 42.1135 225.647 42.9148 226.933 43.4622C228.22 44.0095 229.603 44.2916 231.001 44.2916C232.399 44.2916 233.782 44.0095 235.068 43.4622C236.355 42.9148 237.517 42.1135 238.487 41.1063C239.456 40.099 240.212 38.9064 240.709 37.6001C241.206 36.2954 241.435 34.904 241.382 33.5089C241.435 32.1138 241.206 30.7224 240.709 29.4177C240.212 28.1113 239.456 26.9188 238.487 25.9115C237.517 24.9042 236.355 24.1029 235.068 23.5556C233.782 23.0082 232.399 22.7261 231.001 22.7261ZM227.938 25.9794C228.899 25.5681 229.933 25.3556 230.978 25.3545C232.028 25.3617 233.067 25.5802 234.031 25.9969C234.996 26.4137 235.867 27.0203 236.592 27.7806C237.318 28.5409 237.883 29.4393 238.254 30.4224C238.625 31.4056 238.794 32.4533 238.752 33.5034L238.753 33.515C238.799 34.558 238.634 35.5995 238.268 36.5771C237.901 37.5547 237.341 38.448 236.62 39.2035C235.899 39.9589 235.033 40.5609 234.074 40.9732C233.115 41.3853 232.083 41.5994 231.039 41.6025C229.988 41.5952 228.949 41.3768 227.983 40.9602C227.018 40.5436 226.146 39.9372 225.419 39.1772C224.693 38.4171 224.126 37.5188 223.753 36.5355C223.38 35.5523 223.209 34.5042 223.249 33.4534L223.249 33.442C223.203 32.3978 223.368 31.355 223.736 30.3764C224.103 29.3978 224.665 28.5038 225.387 27.7481C226.109 26.9925 226.977 26.3908 227.938 25.9794Z" fill="black"/>
<path fill-rule="evenodd" clip-rule="evenodd" d="M88.6788 23.1054H86.3751L77.1394 43.6086H79.7648L82.1339 38.2934H92.8894L95.2434 43.6086H97.9145L88.6788 23.1054ZM91.8866 36.0139H83.1977L87.5422 26.2389L91.8866 36.0139Z" fill="black"/>
<path d="M107.837 23.2725H105.507V43.6238H107.984V27.4204L120.764 43.6238H122.775V23.2725H120.283V39.1102L107.837 23.2725Z" fill="black"/>
<path d="M134.818 23.2725H132.281V43.639H134.818V23.2725Z" fill="black"/>
<path d="M147.425 23.2725H144.901V43.6238H147.393V28.3117L155.621 42.0748H155.898L164.127 28.2822V43.6238H166.664V23.2725H164.155L155.79 37.49L147.425 23.2725Z" fill="black"/>
<path d="M215.716 23.2725H199.663V25.6279H206.406V43.6238H208.974V25.6279H215.716V23.2725Z" fill="black"/>
<path d="M64.6561 48.5283L58.6271 38.1559L63.3349 36.6373C63.4541 36.6011 63.5637 36.5386 63.6557 36.4545C63.7477 36.3704 63.8196 36.2668 63.8664 36.1513C63.9189 36.0424 63.9461 35.923 63.9461 35.802C63.9461 35.6811 63.9189 35.5617 63.8664 35.4527L54.466 18.8995C54.4145 18.7996 54.3415 18.7123 54.2522 18.6441C54.1629 18.5758 54.0596 18.5282 53.9496 18.5047C53.8408 18.4786 53.7276 18.4759 53.6177 18.4968C53.5077 18.5178 53.4034 18.5619 53.3118 18.6262L49.0596 21.4508L38.1557 2.61966C37.8272 1.90207 37.3136 1.28478 36.6678 0.831104C36.022 0.377429 35.2671 0.103691 34.4806 0.0379639C33.6835 0.0932035 32.9159 0.362081 32.2586 0.816355C31.6012 1.27063 31.0783 1.89354 30.7448 2.61966L1.07046 53.7828C1.07046 53.7828 0.630051 54.4358 0.797101 54.8003C0.964152 55.1647 1.6931 55.0129 1.76903 55.0129H60.9202C61.7208 55.1383 62.5406 55.0182 63.2715 54.6684C64.0025 54.3186 64.6103 53.7555 65.0148 53.0534C65.4193 52.3512 65.6016 51.543 65.5375 50.7352C65.4735 49.9274 65.1662 49.1579 64.6561 48.5283ZM7.00836 51.8237L53.494 20.4789L61.9529 35.392L7.00836 51.8237ZM57.0325 38.6267L63.2589 49.4091C63.5614 49.8246 63.7535 50.31 63.8173 50.82C63.881 51.3299 63.8143 51.8477 63.6234 52.3249C63.3057 52.7275 62.8911 53.0432 62.4184 53.2423C61.9457 53.4415 61.4303 53.5177 60.9202 53.4639H7.37283L57.0325 38.6267ZM34.4806 1.70847C34.9746 1.77827 35.4427 1.97234 35.8411 2.27249C36.2395 2.57264 36.5552 2.96904 36.7586 3.42454L40.783 10.3951L6.24903 48.1638L32.066 3.42454C32.2811 2.95075 32.6178 2.54238 33.0419 2.24095C33.4661 1.93953 33.9625 1.75581 34.4806 1.70847ZM41.7094 11.9138L47.7839 22.5443L6.85649 49.8951L41.7094 11.9138Z" fill="black"/>
</g>
<defs>
<clipPath id="clip0_4950_12604">
<rect width="242" height="64" fill="white"/>
</clipPath>
</defs>
</svg>