<svg width="77" height="16" viewBox="0 0 77 16" fill="none" xmlns="http://www.w3.org/2000/svg">
<g clip-path="url(#clip0_25_1507)">
<path d="M5.66883 16.0362H-0.333374V0.0576173H5.48684C6.61946 0.0574585 7.74823 0.189736 8.85023 0.451764C9.9108 0.694942 10.915 1.1396 11.8084 1.76165C12.6921 2.39683 13.4095 3.23653 13.8995 4.20924C14.4635 5.39172 14.7365 6.69231 14.6957 8.00216C14.7245 9.25415 14.4535 10.4948 13.9054 11.6204C13.4113 12.5994 12.7046 13.4551 11.837 14.1245C10.9692 14.7838 9.98548 15.274 8.93701 15.5694C7.87307 15.8757 6.7716 16.0314 5.66461 16.032L5.66883 16.0362ZM3.46308 3.34921V12.6965H5.30485C5.98282 12.698 6.65854 12.6184 7.31766 12.4593C7.93129 12.3145 8.51045 12.0501 9.02211 11.6811C9.52638 11.3024 9.93119 10.8065 10.2017 10.2362C10.5168 9.53491 10.6684 8.7709 10.6448 8.00216C10.6694 7.22918 10.5167 6.46084 10.1983 5.75629C9.92755 5.1927 9.52244 4.70456 9.01874 4.335C8.51187 3.97414 7.93943 3.7161 7.33367 3.5754C6.69871 3.42476 6.04837 3.34884 5.39585 3.34921H3.46308Z" fill="black"/>
<path d="M29.9978 16.036H33.3679V0H29.9978V16.036Z" fill="black"/>
<path d="M49.055 11.8928H48.9885L46.6563 4.21997H42.6358L46.9832 16.0359H50.9255L55.2738 4.21997H51.3872L49.055 11.8928Z" fill="black"/>
<path d="M63.737 4.22007C63.074 4.20607 62.4231 4.39962 61.875 4.77373C61.3448 5.1396 60.9179 5.63644 60.6356 6.21612H60.5893V4.58552H56.9588V16.036H60.7266V10.1483C60.734 9.87412 60.7805 9.6024 60.8648 9.34145C60.9583 9.03113 61.1104 8.74173 61.313 8.48901C61.5397 8.21107 61.8214 7.98319 62.1404 7.81972C62.5362 7.62401 62.974 7.52921 63.4152 7.54373C63.5679 7.54373 63.7249 7.55105 63.8861 7.56568C64.0531 7.58238 64.2182 7.61344 64.3799 7.65852L64.5416 4.30447C64.4254 4.2702 64.306 4.24814 64.1852 4.23864C64.0362 4.22462 63.8866 4.21842 63.737 4.22007" fill="black"/>
<path d="M76.3371 16.036H72.8827V14.5894H72.8094C72.4885 15.0771 72.0255 15.454 71.4832 15.6688C70.874 15.9231 70.2188 16.0481 69.5589 16.036C69.0764 16.0375 68.5955 15.9809 68.1266 15.8672C67.6467 15.7518 67.1906 15.5536 66.7785 15.2815C66.3652 15.0045 66.0219 14.6349 65.7759 14.202C65.5012 13.6927 65.366 13.1196 65.3841 12.541C65.3523 11.8255 65.5957 11.1249 66.0641 10.5838C66.5501 10.0686 67.1505 9.67533 67.8165 9.43593C68.5858 9.15426 69.388 8.97299 70.2034 8.89661C71.0538 8.80795 71.9081 8.76288 72.763 8.76157V8.5818C72.7788 8.34248 72.7317 8.1032 72.6263 7.88785C72.5209 7.67251 72.3609 7.48865 72.1623 7.35463C71.7212 7.08221 71.21 6.94546 70.6921 6.96132C70.155 6.96169 69.6242 7.07678 69.1351 7.29892C68.6698 7.5021 68.2382 7.77534 67.8553 8.10916L65.9377 6.1072C66.6187 5.47546 67.4236 4.99259 68.301 4.68928C69.1867 4.37834 70.1184 4.21968 71.0569 4.22002C71.8887 4.19976 72.7181 4.31667 73.5121 4.56606C74.1414 4.77274 74.7032 5.14601 75.1381 5.64638C75.5777 6.18388 75.8894 6.8145 76.0498 7.49051C76.2548 8.35626 76.3513 9.24424 76.3371 10.1339V16.036ZM72.3949 10.8994C71.9871 10.8994 71.565 10.918 71.1386 10.9551C70.7552 10.9857 70.3761 11.0576 70.008 11.1695C69.7044 11.2601 69.4249 11.4176 69.1899 11.6303C69.0828 11.7332 68.9988 11.8576 68.9433 11.9953C68.8878 12.1331 68.8622 12.2811 68.868 12.4296C68.8627 12.6205 68.9146 12.8087 69.0171 12.9697C69.1145 13.1173 69.2446 13.2403 69.3971 13.3293C69.5616 13.4235 69.7412 13.4883 69.9279 13.5209C70.1178 13.558 70.3107 13.5772 70.5042 13.5783C70.8247 13.5994 71.146 13.5554 71.4491 13.4489C71.7521 13.3425 72.0305 13.1757 72.2676 12.9588C72.4764 12.7346 72.638 12.4708 72.743 12.1828C72.8479 11.8949 72.894 11.5887 72.8785 11.2826V10.8994H72.3949Z" fill="black"/>
<path d="M22.7461 16.0359C21.926 16.0359 21.1116 15.9001 20.3356 15.6342C19.605 15.389 18.9293 15.0031 18.3464 14.4982C17.7717 13.9903 17.3146 13.363 17.0068 12.6599C16.6692 11.8721 16.5023 11.0215 16.5173 10.1642C16.5061 9.31951 16.6684 8.48151 16.9942 7.70229C17.2922 6.9961 17.7322 6.3589 18.2866 5.8303C18.8485 5.31079 19.507 4.90701 20.2244 4.64195C20.9944 4.35643 21.8097 4.21344 22.6307 4.21995C23.4147 4.21032 24.1935 4.34831 24.9266 4.62676C25.6039 4.88918 26.2162 5.29579 26.7212 5.81849C27.2355 6.36373 27.6337 7.00812 27.8915 7.71242C28.1831 8.52699 28.3258 9.38756 28.3127 10.2528V10.6985C28.3127 10.8395 28.3051 10.9803 28.29 11.1205H20.0854C20.1134 11.4202 20.2109 11.7092 20.3702 11.9645C20.5314 12.2213 20.7392 12.4457 20.9827 12.6262C21.2387 12.815 21.5231 12.9617 21.8252 13.0608C22.1365 13.165 22.4626 13.2177 22.7908 13.217C23.3094 13.2323 23.824 13.1214 24.2905 12.8937C24.6818 12.6929 25.0237 12.4075 25.2914 12.0582L27.8814 13.6618C27.3465 14.4215 26.6195 15.025 25.775 15.4105C24.8234 15.839 23.7893 16.0525 22.7461 16.0359V16.0359ZM22.6543 6.73254C22.3136 6.72924 21.975 6.78638 21.6542 6.90133C21.3643 7.00496 21.095 7.15927 20.8588 7.35709C20.6348 7.54649 20.4494 7.77748 20.3129 8.03736C20.1795 8.28868 20.1018 8.56594 20.0854 8.85013H24.8811C24.8907 8.30005 24.6917 7.76679 24.3242 7.35794C24.1072 7.13939 23.8457 6.97037 23.5575 6.86243C23.2693 6.75449 22.9612 6.71018 22.6543 6.73254Z" fill="black"/>
<path d="M37.5806 16.0359H40.9507V4.21997H37.5806V16.0359Z" fill="black"/>
<path d="M39.2656 3.37599C38.8187 3.37599 38.3901 3.19815 38.0741 2.88159C37.7581 2.56503 37.5806 2.13568 37.5806 1.68799C37.5806 1.24031 37.7581 0.810963 38.0741 0.494402C38.3901 0.177842 38.8187 0 39.2656 0V0C39.7125 0 40.1411 0.177842 40.4572 0.494402C40.7732 0.810963 40.9507 1.24031 40.9507 1.68799C40.9507 2.13568 40.7732 2.56503 40.4572 2.88159C40.1411 3.19815 39.7125 3.37599 39.2656 3.37599" fill="black"/>
</g>
<defs>
<clipPath id="clip0_25_1507">
<rect width="77" height="16" fill="white"/>
</clipPath>
</defs>
</svg>
