<svg width="146" height="24" viewBox="0 0 146 24" fill="none" xmlns="http://www.w3.org/2000/svg">
<g clip-path="url(#clip0_25_1506)">
<path d="M32.493 15.2597L28.4423 13.163L16.6108 19.2854C16.5458 19.319 16.4736 19.3365 16.4002 19.3365C16.3269 19.3365 16.2547 19.319 16.1897 19.2854L4.35717 13.163L0.305503 15.2597C0.262046 15.2821 0.225644 15.3159 0.200244 15.3574C0.174843 15.3988 0.161415 15.4464 0.161415 15.4949C0.161415 15.5433 0.174843 15.5909 0.200244 15.6323C0.225644 15.6738 0.262046 15.7076 0.305503 15.7301L16.1877 23.9486C16.2527 23.9822 16.325 23.9997 16.3983 23.9997C16.4716 23.9997 16.5439 23.9822 16.6088 23.9486L32.493 15.7301C32.5365 15.7076 32.5729 15.6738 32.5983 15.6323C32.6237 15.5909 32.6371 15.5433 32.6371 15.4949C32.6371 15.4464 32.6237 15.3988 32.5983 15.3574C32.5729 15.3159 32.5365 15.2821 32.493 15.2597V15.2597ZM3.2731 10.6037L16.1882 17.2848C16.2532 17.3183 16.3254 17.3359 16.3988 17.3359C16.4721 17.3359 16.5443 17.3183 16.6093 17.2848L29.5254 10.6022C29.5689 10.5797 29.6052 10.5458 29.6306 10.5043C29.656 10.4628 29.6694 10.4153 29.6694 10.3668C29.6694 10.3183 29.656 10.2707 29.6306 10.2292C29.6052 10.1877 29.5689 10.1539 29.5254 10.1313L25.8225 8.21518L16.6108 12.9816C16.5457 13.0153 16.4734 13.0329 16.4 13.0329C16.3266 13.0329 16.2542 13.0153 16.1892 12.9816L6.97798 8.21518L3.27407 10.1313C3.23063 10.1539 3.19426 10.1877 3.16888 10.2292C3.1435 10.2707 3.13008 10.3183 3.13008 10.3668C3.13008 10.4153 3.1435 10.4628 3.16888 10.5043C3.19426 10.5458 3.23063 10.5797 3.27407 10.6022L3.2731 10.6037ZM6.08236 5.75134L16.1882 10.9833C16.2532 11.0171 16.3256 11.0348 16.399 11.0348C16.4725 11.0348 16.5448 11.0171 16.6098 10.9833L26.7171 5.75134C26.7606 5.7288 26.7969 5.69495 26.8223 5.65345C26.8477 5.61196 26.8611 5.56439 26.8611 5.5159C26.8611 5.46741 26.8477 5.41985 26.8223 5.37835C26.7969 5.33685 26.7606 5.303 26.7171 5.28046L16.6108 0.0513418C16.5458 0.0175406 16.4734 -0.00012207 16.4 -0.00012207C16.3265 -0.00012207 16.2542 0.0175406 16.1892 0.0513418L6.08236 5.27998C6.03892 5.30252 6.00255 5.33637 5.97717 5.37787C5.95179 5.41937 5.93837 5.46693 5.93837 5.51542C5.93837 5.56391 5.95179 5.61148 5.97717 5.65297C6.00255 5.69447 6.03892 5.72832 6.08236 5.75086" fill="black"/>
<path d="M92.6177 9.53663C92.2151 9.02831 91.6114 8.6304 90.7386 8.6304C88.5466 8.6304 88.0988 10.6862 88.0988 12.3442C88.0988 14.0021 88.5466 16.0363 90.7386 16.0363C91.6128 16.0363 92.2151 15.6384 92.6177 15.1301C93.2006 14.3784 93.356 13.3392 93.356 12.3461C93.356 11.353 93.1996 10.2902 92.6177 9.53856V9.53663ZM94.1166 17.4312C93.4007 18.0072 92.4613 18.3595 91.2753 18.3595C89.8886 18.3595 88.77 17.8733 88.2334 17.2325V22.4698H85.4367V6.576H87.8526L88.0318 7.83647C88.7254 6.7752 90.0231 6.31104 91.2981 6.31104C92.4638 6.31104 93.4007 6.70896 94.1151 7.28352C95.5023 8.41104 96.1954 10.1352 96.1954 12.3019C96.1954 14.5579 95.5023 16.3037 94.1151 17.4312" fill="black"/>
<path d="M39.5662 18.07V2.39563H42.4522V15.3729H47.9338L49.5336 18.07H39.5662Z" fill="black"/>
<path d="M77.9823 8.62123C77.1114 8.62123 76.5082 9.01963 76.106 9.52651C75.5232 10.2763 75.3687 11.3145 75.3687 12.3105C75.3687 13.3065 75.5251 14.3625 76.106 15.1137C76.5082 15.6211 77.1114 16.019 77.9823 16.019C80.1713 16.019 80.6181 13.9655 80.6181 12.3105C80.6181 10.6555 80.1713 8.62363 77.9823 8.62363V8.62123ZM80.8634 18.0715L80.6852 16.8129C79.994 17.8703 78.6967 18.3359 77.4237 18.3359C76.2629 18.3359 75.3017 17.939 74.5873 17.3659C73.2021 16.2398 72.5323 14.5171 72.5323 12.3547C72.5323 10.1025 73.2244 8.35915 74.6096 7.23307C75.3241 6.65947 76.261 6.30667 77.4461 6.30667C78.9201 6.30667 79.9926 6.79195 80.4836 7.38763V2.39563H83.2754V18.0691L80.8634 18.0715Z" fill="black"/>
<path d="M114.647 21.2472C113.552 21.2472 111.721 21.1147 111.721 19.6579C111.721 18.9302 112.167 18.4219 112.771 18.2453H114.959C116.009 18.2453 117.728 18.2453 117.728 19.6579C117.728 21.1809 115.762 21.2472 114.645 21.2472H114.647ZM114.444 8.37839C115.717 8.37839 116.499 9.28415 116.499 10.5206C116.499 11.7571 115.717 12.6389 114.444 12.6389C113.17 12.6389 112.39 11.7566 112.39 10.5206C112.39 9.28463 113.171 8.37839 114.444 8.37839V8.37839ZM118.956 16.8326C117.861 16.0829 116.343 16.0608 115.181 16.0608H113.264C112.681 16.0608 111.991 15.9053 111.991 15.2217C111.991 14.8464 112.303 14.5598 112.573 14.4057C113.177 14.6108 113.811 14.7156 114.449 14.7158C116.951 14.7158 119.086 13.2149 119.086 10.7865C119.086 8.96975 117.643 8.40335 117.619 8.37167H120.028L121.248 6.31055H114.448C111.836 6.31055 109.691 7.78463 109.691 10.5221C109.691 11.6909 110.138 12.6403 110.853 13.3473C109.914 13.9205 109.467 14.6913 109.467 15.6643C109.467 16.415 109.892 17.2315 110.63 17.6294C109.289 18.2909 108.853 19.9977 109.625 21.4757C110.922 23.2449 112.918 23.4345 114.762 23.4345C117.352 23.4345 120.367 22.6185 120.367 19.5945C120.367 18.4905 119.965 17.52 118.959 16.835" fill="black"/>
<path d="M137.205 18.371C136.559 18.371 135.824 18.2832 135.2 18.083C133.73 17.5987 132.483 16.5201 132.148 14.9789L134.42 14.1629C134.665 15.4833 135.957 16.1217 137.227 16.1217C137.94 16.1217 138.474 16.0339 138.875 15.7915C139.254 15.5717 139.454 15.2635 139.454 14.867C139.454 14.1629 139.009 13.7885 138.252 13.6565L135.467 13.1721C133.573 12.8419 132.527 11.5209 132.527 10.0685C132.527 7.82303 134.576 6.28223 137.205 6.28223C139.454 6.28223 141.259 7.22831 141.815 9.29759L139.521 10.1784C139.276 9.01151 138.229 8.48351 137.227 8.48351C136.848 8.48351 136.47 8.50559 136.069 8.65919C135.557 8.85743 135.178 9.20975 135.178 9.78191C135.178 10.5979 135.891 10.7285 136.514 10.8379L138.831 11.2781C140.657 11.6304 142.061 12.7752 142.061 14.58C142.061 16.8912 140.166 18.3662 137.204 18.3662" fill="black"/>
<path d="M56.0463 9.09934C55.6437 8.67934 55.04 8.41438 54.2347 8.41438C52.7587 8.41438 51.6406 9.4531 51.5065 11.0222H56.7171C56.6947 10.2264 56.4711 9.58542 56.0463 9.09934ZM59.4462 13.0353H51.5294C51.5522 14.7595 52.8713 15.9307 54.4819 15.9307C56.0473 15.9307 56.8749 15.1353 57.2771 14.1187L59.468 15.024C58.8852 16.7477 57.142 18.2505 54.5256 18.2505C51.1486 18.2505 48.6885 15.7973 48.6885 12.2385C48.6885 9.01198 50.7012 6.18286 54.257 6.18286C56.2027 6.18286 57.7905 7.02286 58.7074 8.59198C59.3335 9.6307 59.5331 10.848 59.5127 12.084C59.5157 12.402 59.4933 12.7198 59.4457 13.0344" fill="black"/>
<path d="M68.0056 12.9658L65.054 13.1871C64.2041 13.2533 63.3769 13.7631 63.3769 14.6895C63.3769 15.5737 64.1147 16.1261 65.0317 16.1261C66.7758 16.1261 68.0056 15.1978 68.0056 13.4962V12.9658ZM70.7333 15.2218C70.7333 15.7522 71.0465 15.9509 71.5162 15.9509C71.6293 15.95 71.7419 15.9351 71.8513 15.9068V17.8513C71.5385 18.0725 71.2029 18.2492 70.5322 18.2492C69.3247 18.2492 68.4748 17.498 68.3854 16.6364C67.737 17.5863 66.5072 18.3596 64.853 18.3596C62.0801 18.3596 60.6488 16.6364 60.6488 14.7596C60.6488 12.5722 62.3706 11.3127 64.5829 11.1596L68.0041 10.9167V10.4525C68.0041 9.23718 67.1785 8.53254 65.8127 8.53254C64.2473 8.53254 63.4872 9.28374 63.2871 10.4329L60.9392 9.92454C61.1184 8.00214 62.9738 6.30054 65.8807 6.30054C68.8993 6.30054 70.7328 7.75878 70.7328 10.6537L70.7333 15.2218Z" fill="black"/>
<path d="M104.427 12.9658L101.475 13.1871C100.626 13.2533 99.7982 13.7631 99.7982 14.6895C99.7982 15.5737 100.536 16.1261 101.453 16.1261C103.197 16.1261 104.427 15.1978 104.427 13.4962V12.9658ZM107.155 15.2218C107.155 15.7522 107.468 15.9509 107.938 15.9509C108.051 15.95 108.163 15.9351 108.273 15.9068V17.8513C107.96 18.0725 107.624 18.2492 106.954 18.2492C105.746 18.2492 104.897 17.498 104.807 16.6364C104.158 17.5863 102.929 18.3596 101.274 18.3596C98.5014 18.3596 97.0706 16.6364 97.0706 14.7596C97.0706 12.5722 98.7924 11.3127 101.005 11.1596L104.426 10.9167V10.4525C104.426 9.23718 103.6 8.53254 102.234 8.53254C100.67 8.53254 99.909 9.28374 99.7089 10.4329L97.361 9.92454C97.5398 8.00214 99.3956 6.30054 102.302 6.30054C105.321 6.30054 107.155 7.75878 107.155 10.6537V15.2218Z" fill="black"/>
<path d="M127.977 9.09934C127.574 8.67934 126.97 8.41438 126.165 8.41438C124.689 8.41438 123.571 9.4531 123.437 11.0222H128.648C128.625 10.2264 128.402 9.58542 127.977 9.09934ZM131.377 13.0353H123.46C123.482 14.7595 124.802 15.9307 126.412 15.9307C127.978 15.9307 128.805 15.1353 129.208 14.1187L131.398 15.024C130.815 16.7477 129.073 18.2505 126.456 18.2505C123.079 18.2505 120.619 15.7973 120.619 12.2385C120.619 9.01198 122.631 6.18286 126.188 6.18286C128.133 6.18286 129.721 7.02286 130.638 8.59198C131.264 9.6307 131.464 10.848 131.443 12.084C131.446 12.402 131.424 12.7199 131.376 13.0344" fill="black"/>
<path d="M144.449 7.14863H144.151V7.61231H144.449C144.608 7.61231 144.711 7.54175 144.711 7.37663C144.711 7.22351 144.592 7.14863 144.449 7.14863ZM144.708 8.41007L144.453 7.85615H144.154V8.41007H143.888V6.90527H144.449C144.74 6.90527 144.989 7.07039 144.989 7.37663C144.989 7.57343 144.902 7.73039 144.715 7.81295L144.997 8.41007H144.708ZM144.386 6.49007C143.682 6.49007 143.217 6.99647 143.217 7.68431C143.217 8.37215 143.682 8.87471 144.386 8.87471C145.089 8.87471 145.554 8.36783 145.554 7.67999C145.554 6.99215 145.089 6.49007 144.386 6.49007ZM144.386 9.12575C143.563 9.12575 142.95 8.48927 142.95 7.68575C142.95 6.88223 143.563 6.23999 144.386 6.23999C145.208 6.23999 145.821 6.87647 145.821 7.67999C145.821 8.48351 145.208 9.12575 144.386 9.12575Z" fill="black"/>
<path d="M32.493 15.2597L28.4423 13.163L16.6108 19.2854C16.5458 19.319 16.4736 19.3365 16.4002 19.3365C16.3269 19.3365 16.2547 19.319 16.1897 19.2854L4.35717 13.163L0.305503 15.2597C0.262046 15.2821 0.225644 15.3159 0.200244 15.3574C0.174843 15.3988 0.161415 15.4464 0.161415 15.4949C0.161415 15.5433 0.174843 15.5909 0.200244 15.6323C0.225644 15.6738 0.262046 15.7076 0.305503 15.7301L16.1877 23.9486C16.2527 23.9822 16.325 23.9997 16.3983 23.9997C16.4716 23.9997 16.5439 23.9822 16.6088 23.9486L32.493 15.7301C32.5365 15.7076 32.5729 15.6738 32.5983 15.6323C32.6237 15.5909 32.6371 15.5433 32.6371 15.4949C32.6371 15.4464 32.6237 15.3988 32.5983 15.3574C32.5729 15.3159 32.5365 15.2821 32.493 15.2597V15.2597ZM3.2731 10.6037L16.1882 17.2848C16.2532 17.3183 16.3254 17.3359 16.3988 17.3359C16.4721 17.3359 16.5443 17.3183 16.6093 17.2848L29.5254 10.6022C29.5689 10.5797 29.6052 10.5458 29.6306 10.5043C29.656 10.4628 29.6694 10.4153 29.6694 10.3668C29.6694 10.3183 29.656 10.2707 29.6306 10.2292C29.6052 10.1877 29.5689 10.1539 29.5254 10.1313L25.8225 8.21518L16.6108 12.9816C16.5457 13.0153 16.4734 13.0329 16.4 13.0329C16.3266 13.0329 16.2542 13.0153 16.1892 12.9816L6.97798 8.21518L3.27407 10.1313C3.23063 10.1539 3.19426 10.1877 3.16888 10.2292C3.1435 10.2707 3.13008 10.3183 3.13008 10.3668C3.13008 10.4153 3.1435 10.4628 3.16888 10.5043C3.19426 10.5458 3.23063 10.5797 3.27407 10.6022L3.2731 10.6037ZM6.08236 5.75134L16.1882 10.9833C16.2532 11.0171 16.3256 11.0348 16.399 11.0348C16.4725 11.0348 16.5448 11.0171 16.6098 10.9833L26.7171 5.75134C26.7606 5.7288 26.7969 5.69495 26.8223 5.65345C26.8477 5.61196 26.8611 5.56439 26.8611 5.5159C26.8611 5.46741 26.8477 5.41985 26.8223 5.37835C26.7969 5.33685 26.7606 5.303 26.7171 5.28046L16.6108 0.0513418C16.5458 0.0175406 16.4734 -0.00012207 16.4 -0.00012207C16.3265 -0.00012207 16.2542 0.0175406 16.1892 0.0513418L6.08236 5.27998C6.03892 5.30252 6.00255 5.33637 5.97717 5.37787C5.95179 5.41937 5.93837 5.46693 5.93837 5.51542C5.93837 5.56391 5.95179 5.61148 5.97717 5.65297C6.00255 5.69447 6.03892 5.72832 6.08236 5.75086" fill="black"/>
</g>
<defs>
<clipPath id="clip0_25_1506">
<rect width="146" height="24" fill="white"/>
</clipPath>
</defs>
</svg>
