<svg width="74" height="16" viewBox="0 0 74 16" fill="none" xmlns="http://www.w3.org/2000/svg">
<path fill-rule="evenodd" clip-rule="evenodd" d="M66.3649 7.2C66.3649 6.5372 66.8972 6 67.554 6H69.1396C69.7965 6 70.3288 6.5372 70.3288 7.2V8.8H66.3649V7.2ZM72.7072 10.8C73.1448 10.8 73.5 10.4416 73.5 9.99999V7.19999C73.5 4.99119 71.7249 3.19999 69.536 3.19999H67.1577C64.9688 3.19999 63.1937 4.99119 63.1937 7.19999V12C63.1937 14.2088 64.9688 16 67.1577 16H72.7072C73.1448 16 73.5 15.6416 73.5 15.2V14C73.5 13.5584 73.1448 13.2 72.7072 13.2H67.5541C66.8972 13.2 66.3649 12.6628 66.3649 12V10.8H72.7072ZM21.1757 8.8H17.2117V7.2C17.2117 6.5372 17.7441 6 18.4009 6H19.9865C20.6433 6 21.1757 6.5372 21.1757 7.2V8.8ZM20.3829 3.19999H18.0045C15.8156 3.19999 14.0405 4.99119 14.0405 7.19999V12C14.0405 14.2088 15.8156 16 18.0045 16H23.5541C23.9917 16 24.3468 15.6416 24.3468 15.2V14C24.3468 13.5584 23.9917 13.2 23.5541 13.2H18.4009C17.7441 13.2 17.2117 12.6628 17.2117 12V10.8H23.5541C23.9917 10.8 24.3468 10.4416 24.3468 9.99999V7.19999C24.3468 4.99119 22.5718 3.19999 20.3829 3.19999V3.19999ZM9.5117 9.554C10.7881 8.8896 11.6622 7.5492 11.6622 6V4C11.6622 1.7912 9.88709 0 7.69819 0H0.959449C0.521828 0 0.166656 0.3584 0.166656 0.8V3.2H7.30179C7.73941 3.2 8.09458 3.5584 8.09458 4V6C8.09458 6.4416 7.73941 6.8 7.30179 6.8H0.166656V10H4.20237C5.4308 10 6.54943 10.7164 7.07188 11.8388L8.7966 15.5404C8.92741 15.8212 9.20687 16 9.51408 16H11.2662C11.8473 16 12.231 15.3904 11.9836 14.8596L9.5117 9.554ZM46.545 11.2C46.545 12.3048 45.6579 13.2 44.5631 13.2H44.1667C43.291 13.2 42.5811 12.4836 42.5811 11.6V7.6C42.5811 6.7164 43.291 6 44.1667 6H46.1486C46.3679 6 46.545 6.1788 46.545 6.4V11.2ZM48.9234 3.19999H43.3739C41.185 3.19999 39.4099 4.99119 39.4099 7.19999V12C39.4099 14.2088 41.185 16 43.3739 16H44.1667C45.1152 16 45.9639 15.5776 46.545 14.9116V15.2C46.545 15.6416 46.9002 16 47.3378 16H48.9234C49.361 16 49.7162 15.6416 49.7162 15.2V3.99999C49.7162 3.55839 49.361 3.19999 48.9234 3.19999V3.19999ZM33.8604 11.6C33.8604 12.4836 33.1504 13.2 32.2748 13.2H30.2928C30.0736 13.2 29.8964 13.0212 29.8964 12.8V8C29.8964 6.8952 30.7835 6 31.8784 6H32.2748C33.1504 6 33.8604 6.7164 33.8604 7.6V11.6ZM33.0676 3.2H32.2748C31.3262 3.2 30.4775 3.6224 29.8964 4.2884V0.8C29.8964 0.3584 29.5412 0 29.1036 0H27.518C27.0804 0 26.7252 0.3584 26.7252 0.8V15.2C26.7252 15.6416 27.0804 16 27.518 16H33.0676C35.2565 16 37.0315 14.2088 37.0315 12V7.2C37.0315 4.9912 35.2565 3.2 33.0676 3.2V3.2ZM4.24161 12.8H0.166656V15.2C0.166656 15.6416 0.521828 16 0.959449 16H6.23628L4.95909 13.2596C4.82867 12.9788 4.54921 12.8 4.24161 12.8V12.8ZM60.0225 3.19999H55.2658C53.5145 3.19999 52.0946 4.63279 52.0946 6.39999V6.71359C52.0946 7.75719 52.5988 8.73519 53.4455 9.33399L57.3694 12.1084C57.8451 12.4452 57.6089 13.2 57.0277 13.2H52.8874C52.4498 13.2 52.0946 13.5584 52.0946 14V15.2C52.0946 15.6416 52.4498 16 52.8874 16H57.6441C59.3954 16 60.8153 14.5672 60.8153 12.8V12.4864C60.8153 11.4428 60.3111 10.4648 59.4644 9.86599L55.5405 7.09159C55.0648 6.75479 55.301 5.99999 55.8822 5.99999H60.0225C60.4601 5.99999 60.8153 5.64159 60.8153 5.19999V3.99999C60.8153 3.55839 60.4601 3.19999 60.0225 3.19999V3.19999Z" fill="black"/>
</svg>
