<svg width="81" height="24" viewBox="0 0 81 24" fill="none" xmlns="http://www.w3.org/2000/svg">
<g clip-path="url(#clip0_3095_10390)">
<path d="M62.2039 4.9521C62.2039 5.99717 61.3591 6.84441 60.3165 6.84441C59.274 6.84441 58.4292 5.99717 58.4292 4.9521C58.4292 3.90702 59.274 3.05981 60.3165 3.05981C61.3591 3.05981 62.2039 3.90702 62.2039 4.9521Z" fill="#24272F"/>
<path d="M70.4227 6.11263C69.9101 6.11263 69.5526 6.23141 69.3508 6.46996L69.3517 6.47096C69.1499 6.70951 69.0485 7.04168 69.0485 7.46842V8.31394H71.5372L71.5535 11.3607H69.0485V20.9218H65.5689V11.3607H64.2114V8.31394H65.5689V7.40299C65.5689 6.48906 65.7476 5.73114 66.1046 5.12924C66.4621 4.52633 66.9521 4.0754 67.5748 3.77445C68.1969 3.47349 68.9037 3.32251 69.6951 3.32251C70.7223 3.32251 71.7381 3.46141 71.9562 3.52684L71.5363 6.17001C71.3377 6.13177 70.6309 6.11263 70.4227 6.11263Z" fill="#24272F"/>
<path d="M33.1743 8.73163C33.1743 9.45937 33.5799 10.326 35.868 10.7729V10.7739C39.3749 11.4573 42.3607 12.6551 42.3607 16.1196C42.3607 17.1483 41.931 21.1594 35.852 21.1594C29.7729 21.1594 29.0972 17.2238 29.0972 15.6435H32.5278C32.5659 16.2072 33.09 18.18 35.8108 18.18C38.1962 18.18 38.7826 16.7789 38.7826 16.1115C38.7826 15.3255 37.9593 14.4649 35.868 14.1136C33.099 13.6486 29.5389 12.9309 29.5389 8.97018C29.5389 7.69991 30.4526 3.88013 35.8921 3.88013C41.3316 3.88013 42.1308 7.58118 42.1308 8.94502H38.7334C38.6681 8.28272 38.0487 6.8514 35.868 6.8514C33.2245 6.8514 33.1743 8.37027 33.1743 8.73163Z" fill="#24272F"/>
<path d="M51.9233 8.14884C52.7957 8.14884 53.5586 8.33907 54.2116 8.71952H54.2125C54.865 9.10002 55.3722 9.64454 55.7356 10.3531C56.0989 11.0617 56.2767 11.9083 56.2718 12.8936V20.9218H52.784V13.5177C52.789 12.7406 52.4021 11.0547 50.5401 11.0547C48.6776 11.0547 48.1161 12.5162 48.1161 14.4729V20.9218H44.6284V4.1106H48.0179V10.5373C48.3514 9.78445 48.9075 9.2087 49.541 8.78495C50.1745 8.36119 50.9686 8.14884 51.9233 8.14884Z" fill="#24272F"/>
<path d="M62.0488 8.31299H58.5605V20.9209H62.0488V8.31299Z" fill="#24272F"/>
<path d="M80.0812 18.2504C79.8816 18.2887 79.1757 18.3078 78.968 18.3078C78.4549 18.3078 78.0975 18.189 77.8956 17.9505C77.6938 17.7119 77.5925 17.3798 77.5925 16.953V11.3587H80.0812L80.0975 8.31188H77.5925V4.97119H74.1128V8.31287H72.7554V11.3597H74.1128V17.0194C74.1128 17.9334 74.2911 18.6913 74.6486 19.2932C75.0061 19.8951 75.4961 20.347 76.1187 20.648C76.7409 20.9489 77.4477 21.0999 78.2391 21.0999C79.2671 21.0999 80.2821 20.961 80.5002 20.8956L80.0803 18.2525L80.0812 18.2504Z" fill="#24272F"/>
<path fill-rule="evenodd" clip-rule="evenodd" d="M2.18527 9.26972C1.92291 10.1785 1.78233 11.139 1.78233 12.1323C1.78233 17.8216 6.39443 22.4337 12.0837 22.4337C12.6047 22.4337 13.1166 22.395 13.6168 22.3203C13.6176 22.3202 13.6185 22.3201 13.6193 22.3199C13.9368 22.2674 14.2484 22.17 14.5447 22.0285C14.8891 21.8637 15.212 21.6391 15.4982 21.3531C15.5917 21.2592 15.6781 21.1626 15.7572 21.0634L15.7578 21.0627C16.7199 19.8601 16.7632 18.1643 15.8878 16.9168C14.3381 18.1518 12.3277 18.5241 10.5017 18.0365H10.5016C10.0329 17.9113 9.57615 17.7293 9.14199 17.491L9.14172 17.4908C8.64633 17.2185 8.18072 16.8732 7.76145 16.4539L3.89265 12.5851C2.95606 11.6485 2.38694 10.4837 2.18527 9.26972ZM3.81205 4.02292C1.76331 6.11238 0.5 8.97483 0.5 12.1323C0.5 18.5298 5.6862 23.716 12.0837 23.716C14.6079 23.716 16.9435 22.9086 18.8464 21.538C19.355 21.1719 19.8326 20.7655 20.2746 20.3236C20.2785 20.3197 20.2823 20.3157 20.2861 20.3117C22.3756 18.2164 23.6674 15.3252 23.6674 12.1323C23.6674 5.73478 18.4812 0.548584 12.0837 0.548584C9.97602 0.548584 7.99982 1.11149 6.29724 2.09518C5.41561 2.60422 4.60751 3.22596 3.89265 3.94081C3.86547 3.96799 3.8386 3.99536 3.81205 4.02292ZM4.73196 4.91632C2.91327 6.80754 2.93575 9.81474 4.79939 11.6784L8.66819 15.5472C9.00027 15.8793 9.36805 16.1519 9.7591 16.3669C10.102 16.5552 10.4626 16.6989 10.8325 16.7976C12.2494 17.1759 13.8025 16.8998 15.0156 15.9709L7.76145 8.71677C6.28131 7.23664 5.98357 5.02328 6.86715 3.24748C6.08303 3.70886 5.36534 4.27108 4.73196 4.91632ZM8.66855 2.91173C8.5752 3.00547 8.489 3.10191 8.40996 3.20097L8.40941 3.20164C7.44742 4.40417 7.40403 6.09985 8.27923 7.34727C9.82896 6.11211 11.8395 5.73985 13.6656 6.22741C14.1343 6.35257 14.591 6.5346 15.0252 6.77293L15.0255 6.77311C15.5209 7.04542 15.9865 7.39076 16.4058 7.81003L20.2746 11.6788C21.2114 12.6156 21.7805 13.7808 21.9821 14.9951C22.2445 14.0862 22.3851 13.1257 22.3851 12.1323C22.3851 6.44302 17.773 1.83091 12.0837 1.83091C11.5579 1.83091 11.0414 1.8703 10.5367 1.94629C10.2232 1.99931 9.91552 2.09598 9.62271 2.23577C9.2781 2.40074 8.95493 2.62544 8.66855 2.91173ZM19.3601 19.4242C19.3627 19.4216 19.3652 19.419 19.3678 19.4164C21.2542 17.53 21.2542 14.472 19.3678 12.5856L15.4991 8.71677C15.167 8.38469 14.7991 8.11202 14.4081 7.89705C14.408 7.897 14.4079 7.89691 14.4078 7.89686C14.065 7.70867 13.7045 7.56505 13.3347 7.46632C11.9178 7.08804 10.3647 7.36419 9.15163 8.29306L16.4057 15.5472C16.4106 15.5521 16.4154 15.557 16.4201 15.562C17.888 17.0422 18.1808 19.2472 17.2999 21.0173C17.3776 20.9716 17.4547 20.9248 17.5311 20.8772C17.5572 20.8609 17.5832 20.8445 17.6092 20.828C18.2433 20.4242 18.8304 19.9528 19.3601 19.4242Z" fill="#24272F"/>
</g>
<defs>
<clipPath id="clip0_3095_10390">
<rect width="80" height="23.1674" fill="white" transform="translate(0.5 0.548584)"/>
</clipPath>
</defs>
</svg>
