<svg width="80" height="24" viewBox="0 0 80 24" fill="none" xmlns="http://www.w3.org/2000/svg">
<mask id="path-1-inside-1_25_1492" fill="white">
<path fill-rule="evenodd" clip-rule="evenodd" d="M22.8572 8.04025C22.8572 7.79096 22.8573 7.54163 22.8557 7.29231C22.8544 7.08228 22.852 6.87231 22.8462 6.66239C22.8336 6.20485 22.8062 5.74339 22.7236 5.29095C22.6397 4.83198 22.5028 4.40482 22.2871 3.9878C22.075 3.57792 21.7979 3.20285 21.4674 2.87769C21.1369 2.55252 20.7558 2.27998 20.3392 2.07133C19.9152 1.85891 19.4808 1.72419 19.014 1.6417C18.5543 1.56045 18.0854 1.53351 17.6206 1.52115C17.4072 1.51547 17.1938 1.51307 16.9803 1.51177C16.7269 1.51025 16.4735 1.51037 16.2201 1.51037L13.2778 1.5H11.0771L8.18689 1.51037C7.93299 1.51037 7.67909 1.51025 7.42519 1.51177C7.21129 1.51307 6.99749 1.51547 6.78366 1.52115C6.31778 1.53351 5.8478 1.56048 5.38704 1.64183C4.91965 1.7243 4.4846 1.85896 4.05996 2.07123C3.64253 2.2799 3.26058 2.55247 2.9294 2.87769C2.59827 3.20283 2.32071 3.57782 2.10823 3.98762C1.89189 4.40485 1.75473 4.83226 1.67069 5.29148C1.58795 5.74374 1.56053 6.20505 1.54792 6.66239C1.54217 6.87234 1.53969 7.08231 1.53839 7.29231C1.53684 7.54166 1.52382 7.85138 1.52382 8.1007L1.5239 10.9064L1.52382 13.0958L1.53697 15.9611C1.53697 16.2108 1.53687 16.4604 1.53839 16.7101C1.53969 16.9204 1.54217 17.1306 1.54795 17.3409C1.56053 17.799 1.588 18.2611 1.67082 18.7142C1.75483 19.1738 1.89197 19.6015 2.10813 20.0191C2.32063 20.4295 2.59824 20.8051 2.9294 21.1307C3.26056 21.4564 3.64241 21.7292 4.05975 21.9382C4.48465 22.1509 4.91991 22.2858 5.38758 22.3684C5.84814 22.4498 6.31796 22.4768 6.78366 22.4891C6.99749 22.4948 7.21131 22.4972 7.42521 22.4985C7.67911 22.5 7.93299 22.4999 8.18689 22.4999L11.1033 22.5H13.3094L16.2201 22.4999C16.4735 22.4999 16.7269 22.5 16.9803 22.4985C17.1938 22.4972 17.4072 22.4948 17.6206 22.4891C18.0856 22.4767 18.5547 22.4497 19.0145 22.3683C19.481 22.2857 19.9152 22.1509 20.3391 21.9383C20.7557 21.7293 21.1369 21.4564 21.4674 21.1307C21.7979 20.8051 22.0749 20.4296 22.287 20.0193C22.5029 19.6015 22.6398 19.1735 22.7237 18.7136C22.8063 18.2608 22.8336 17.7988 22.8462 17.3409C22.852 17.1306 22.8544 16.9204 22.8557 16.7101C22.8573 16.4604 22.8572 16.2108 22.8572 15.9611C22.8572 15.9611 22.857 13.1464 22.857 13.0958V10.9041C22.857 10.8667 22.8572 8.04025 22.8572 8.04025"/>
</mask>
<path d="M22.8557 7.29231L20.6057 7.3059L20.6057 7.30633L22.8557 7.29231ZM22.8462 6.66239L20.597 6.72399L20.597 6.72452L22.8462 6.66239ZM22.7236 5.29095L20.5102 5.69522L20.5102 5.69535L22.7236 5.29095ZM22.2871 3.9878L24.2855 2.95395L24.2854 2.95379L22.2871 3.9878ZM21.4674 2.87769L19.8893 4.48152L19.8895 4.48171L21.4674 2.87769ZM20.3392 2.07133L21.3469 0.0596004L21.3469 0.0595967L20.3392 2.07133ZM19.014 1.6417L18.6224 3.85736L18.6224 3.85736L19.014 1.6417ZM17.6206 1.52115L17.5607 3.77036L17.5608 3.77036L17.6206 1.52115ZM16.9803 1.51177L16.994 -0.738184L16.9939 -0.738185L16.9803 1.51177ZM16.2201 1.51037L16.2122 3.76037H16.2201V1.51037ZM13.2778 1.5L13.2857 -0.75H13.2778V1.5ZM11.0771 1.5L11.0771 -0.750014L11.0691 -0.749986L11.0771 1.5ZM8.18689 1.51037L8.18689 3.76039L8.19496 3.76036L8.18689 1.51037ZM7.42519 1.51177L7.41164 -0.738185L7.41152 -0.738184L7.42519 1.51177ZM6.78366 1.52115L6.84334 3.77036L6.84345 3.77036L6.78366 1.52115ZM5.38704 1.64183L5.77801 3.8576L5.77824 3.85756L5.38704 1.64183ZM4.05996 2.07123L3.05393 0.0586638L3.05387 0.058697L4.05996 2.07123ZM2.9294 2.87769L4.50581 4.48313L4.50587 4.48307L2.9294 2.87769ZM2.10823 3.98762L4.10568 5.02333L4.1057 5.02329L2.10823 3.98762ZM1.67069 5.29148L-0.542553 4.88645L-0.542571 4.88655L1.67069 5.29148ZM1.54792 6.66239L-0.701223 6.60038L-0.701235 6.60081L1.54792 6.66239ZM1.53839 7.29231L3.78835 7.30633L3.78835 7.30618L1.53839 7.29231ZM1.52382 8.1007L-0.726181 8.1007L-0.726181 8.10077L1.52382 8.1007ZM1.5239 10.9064L3.7739 10.9065L3.7739 10.9063L1.5239 10.9064ZM1.52382 13.0958L-0.726205 13.0958L-0.726157 13.1062L1.52382 13.0958ZM1.53697 15.9611L3.78699 15.9611L3.78695 15.9508L1.53697 15.9611ZM1.53839 16.7101L-0.711563 16.7239L-0.711562 16.7239L1.53839 16.7101ZM1.54795 17.3409L-0.701204 17.4026L-0.701204 17.4026L1.54795 17.3409ZM1.67082 18.7142L3.88414 18.3096L3.88414 18.3096L1.67082 18.7142ZM2.10813 20.0191L0.109985 21.0535L0.110019 21.0535L2.10813 20.0191ZM4.05975 21.9382L3.05243 23.9501L3.05257 23.9502L4.05975 21.9382ZM5.38758 22.3684L5.77907 20.1527L5.77891 20.1527L5.38758 22.3684ZM6.78366 22.4891L6.84345 20.2399L6.84336 20.2399L6.78366 22.4891ZM7.42521 22.4985L7.43876 20.2485L7.43862 20.2485L7.42521 22.4985ZM8.18689 22.4999L8.18695 20.2499H8.18689V22.4999ZM11.1033 22.5L11.1032 24.75H11.1033V22.5ZM13.3094 22.5L13.3094 24.75L13.3094 24.75L13.3094 22.5ZM16.2201 22.4999L16.2201 20.2499L16.22 20.2499L16.2201 22.4999ZM16.9803 22.4985L16.9669 20.2485L16.9668 20.2485L16.9803 22.4985ZM17.6206 22.4891L17.6805 24.7383L17.6805 24.7383L17.6206 22.4891ZM19.0145 22.3683L19.4068 24.5838L19.4068 24.5838L19.0145 22.3683ZM20.3391 21.9383L19.3304 19.927L19.3304 19.9271L20.3391 21.9383ZM21.4674 21.1307L19.8884 19.5278L19.8882 19.5281L21.4674 21.1307ZM22.287 20.0193L24.2859 21.0523L24.2859 21.0522L22.287 20.0193ZM22.7237 18.7136L24.9371 19.1174L24.9372 19.1173L22.7237 18.7136ZM22.8462 17.3409L20.597 17.2791L20.597 17.2792L22.8462 17.3409ZM22.8557 16.7101L20.6057 16.6959L20.6057 16.6965L22.8557 16.7101ZM22.8572 15.9611L25.1072 15.9611L25.1072 15.961L22.8572 15.9611ZM25.1072 8.04025C25.1072 7.79309 25.1073 7.53608 25.1057 7.27829L20.6057 7.30633C20.6072 7.54718 20.6072 7.78882 20.6072 8.04025H25.1072ZM25.1057 7.27872C25.1043 7.0611 25.1018 6.83312 25.0953 6.60025L20.597 6.72452C20.6022 6.9115 20.6045 7.10347 20.6057 7.3059L25.1057 7.27872ZM25.0953 6.60079C25.0818 6.10533 25.0506 5.50875 24.9369 4.88654L20.5102 5.69535C20.5619 5.97803 20.5855 6.30436 20.597 6.72399L25.0953 6.60079ZM24.9369 4.88667C24.8181 4.23618 24.6159 3.59266 24.2855 2.95395L20.2887 5.02166C20.3897 5.21698 20.4613 5.42778 20.5102 5.69522L24.9369 4.88667ZM24.2854 2.95379C23.9634 2.33152 23.5441 1.76436 23.0452 1.27367L19.8895 4.48171C20.0518 4.64135 20.1866 4.82432 20.2888 5.02182L24.2854 2.95379ZM23.0454 1.27385C22.5469 0.783296 21.9732 0.373283 21.3469 0.0596004L19.3315 4.08306C19.5384 4.18667 19.727 4.32174 19.8893 4.48152L23.0454 1.27385ZM21.3469 0.0595967C20.704 -0.262438 20.0578 -0.458683 19.4056 -0.573962L18.6224 3.85736C18.9037 3.90707 19.1263 3.98026 19.3316 4.08306L21.3469 0.0595967ZM19.4056 -0.573958C18.7814 -0.684296 18.1816 -0.714725 17.6804 -0.728052L17.5608 3.77036C17.9892 3.78175 18.3273 3.8052 18.6224 3.85736L19.4056 -0.573958ZM17.6805 -0.72805C17.445 -0.734322 17.2142 -0.736843 16.994 -0.738184L16.9666 3.76173C17.1733 3.76299 17.3694 3.76526 17.5607 3.77036L17.6805 -0.72805ZM16.9939 -0.738185C16.7322 -0.739764 16.4712 -0.739627 16.2201 -0.739627V3.76037C16.4758 3.76037 16.7216 3.76025 16.9668 3.76173L16.9939 -0.738185ZM16.228 -0.739613L13.2857 -0.749986L13.2698 3.74999L16.2122 3.76036L16.228 -0.739613ZM13.2778 -0.75H11.0771V3.75H13.2778V-0.75ZM11.0691 -0.749986L8.17882 -0.739613L8.19496 3.76036L11.0852 3.74999L11.0691 -0.749986ZM8.18689 -0.739627C7.93528 -0.739627 7.67379 -0.739764 7.41164 -0.738185L7.43874 3.76173C7.68439 3.76025 7.9307 3.76037 8.18689 3.76037V-0.739627ZM7.41152 -0.738184C7.19088 -0.736844 6.95979 -0.734323 6.72388 -0.728053L6.84345 3.77036C7.03518 3.76526 7.23169 3.76299 7.43886 3.76173L7.41152 -0.738184ZM6.72399 -0.728056C6.22174 -0.714731 5.62104 -0.684286 4.99584 -0.573905L5.77824 3.85756C6.07456 3.80524 6.41381 3.78176 6.84334 3.77036L6.72399 -0.728056ZM4.99607 -0.573945C4.34359 -0.458815 3.69713 -0.262854 3.05393 0.0586638L5.06598 4.08379C5.27207 3.98078 5.49571 3.90741 5.77801 3.8576L4.99607 -0.573945ZM3.05387 0.058697C2.42699 0.372082 1.85242 0.781815 1.35293 1.27231L4.50587 4.48307C4.66875 4.32312 4.85808 4.18772 5.06605 4.08376L3.05387 0.058697ZM1.35299 1.27225C0.853596 1.76261 0.433451 2.32958 0.110754 2.95196L4.1057 5.02329C4.20796 4.82606 4.34294 4.64305 4.50581 4.48313L1.35299 1.27225ZM0.110778 2.95192C-0.22081 3.59141 -0.423454 4.23564 -0.542553 4.88645L3.88394 5.69651C3.93291 5.42888 4.0046 5.21828 4.10568 5.02333L0.110778 2.95192ZM-0.542571 4.88655C-0.656417 5.50882 -0.687578 6.10545 -0.701223 6.60038L3.79707 6.72439C3.80864 6.30466 3.83231 5.97867 3.88395 5.69641L-0.542571 4.88655ZM-0.701235 6.60081C-0.707597 6.83319 -0.710221 7.06079 -0.711562 7.27844L3.78835 7.30618C3.7896 7.10383 3.79195 6.91148 3.79708 6.72396L-0.701235 6.60081ZM-0.711561 7.27829C-0.712178 7.3773 -0.715129 7.49264 -0.71879 7.641C-0.722148 7.77702 -0.726181 7.94395 -0.726181 8.1007H3.77382C3.77382 8.00813 3.7763 7.89554 3.77984 7.75204C3.78308 7.62087 3.78741 7.45666 3.78835 7.30633L-0.711561 7.27829ZM-0.726181 8.10077L-0.726103 10.9064L3.7739 10.9063L3.77382 8.10064L-0.726181 8.10077ZM-0.726103 10.9063L-0.726181 13.0958L3.77382 13.0959L3.7739 10.9065L-0.726103 10.9063ZM-0.726157 13.1062L-0.713005 15.9715L3.78695 15.9508L3.7738 13.0855L-0.726157 13.1062ZM-0.713029 15.9611C-0.713029 16.2087 -0.713141 16.4659 -0.711563 16.7239L3.78835 16.6963C3.78688 16.455 3.78697 16.2129 3.78697 15.9611H-0.713029ZM-0.711562 16.7239C-0.710221 16.9419 -0.707597 17.1698 -0.701204 17.4026L3.7971 17.2791C3.79195 17.0914 3.7896 16.8989 3.78835 16.6962L-0.711562 16.7239ZM-0.701204 17.4026C-0.687583 17.8986 -0.656369 18.4959 -0.5425 19.1188L3.88414 18.3096C3.83237 18.0263 3.80864 17.6994 3.7971 17.2791L-0.701204 17.4026ZM-0.542501 19.1188C-0.423499 19.7698 -0.221039 20.414 0.109985 21.0535L4.10627 18.9847C4.00498 18.7891 3.93317 18.5777 3.88414 18.3096L-0.542501 19.1188ZM0.110019 21.0535C0.432573 21.6766 0.852597 22.2441 1.35186 22.7351L4.50694 19.5264C4.34389 19.3661 4.20868 19.1825 4.10623 18.9846L0.110019 21.0535ZM1.35186 22.7351C1.85114 23.226 2.42552 23.6362 3.05243 23.9501L5.06707 19.9263C4.85929 19.8223 4.66998 19.6867 4.50694 19.5264L1.35186 22.7351ZM3.05257 23.9502C3.69625 24.2724 4.34319 24.4688 4.99626 24.5841L5.77891 20.1527C5.49663 20.1028 5.27305 20.0294 5.06692 19.9262L3.05257 23.9502ZM4.9961 24.5841C5.62118 24.6945 6.2218 24.725 6.72397 24.7383L6.84336 20.2399C6.41411 20.2285 6.0751 20.205 5.77907 20.1527L4.9961 24.5841ZM6.72388 24.7383C6.95969 24.7446 7.19075 24.7471 7.41181 24.7485L7.43862 20.2485C7.23187 20.2473 7.03529 20.245 6.84345 20.2399L6.72388 24.7383ZM7.41166 24.7485C7.67375 24.75 7.93503 24.7499 8.18689 24.7499V20.2499C7.93094 20.2499 7.68448 20.25 7.43876 20.2485L7.41166 24.7485ZM8.18683 24.7499L11.1032 24.75L11.1033 20.25L8.18695 20.2499L8.18683 24.7499ZM11.1033 24.75H13.3094V20.25H11.1033V24.75ZM13.3094 24.75L16.2202 24.7499L16.22 20.2499L13.3093 20.25L13.3094 24.75ZM16.2201 24.7499C16.4712 24.7499 16.7322 24.75 16.9939 24.7485L16.9668 20.2485C16.7216 20.25 16.4758 20.2499 16.2201 20.2499V24.7499ZM16.9938 24.7485C17.2144 24.7471 17.4451 24.7446 17.6805 24.7383L17.5607 20.2399C17.3693 20.245 17.1732 20.2473 16.9669 20.2485L16.9938 24.7485ZM17.6805 24.7383C18.182 24.725 18.7821 24.6944 19.4068 24.5838L18.6223 20.1528C18.3272 20.205 17.9892 20.2285 17.5607 20.2399L17.6805 24.7383ZM19.4068 24.5838C20.059 24.4684 20.705 24.2719 21.3478 23.9495L19.3304 19.9271C19.1254 20.0298 18.9031 20.103 18.6222 20.1528L19.4068 24.5838ZM21.3477 23.9495C21.9742 23.6354 22.548 23.2247 23.0466 22.7334L19.8882 19.5281C19.7257 19.6881 19.5372 19.8233 19.3304 19.927L21.3477 23.9495ZM23.0464 22.7336C23.545 22.2425 23.9641 21.6749 24.2859 21.0523L20.2882 18.9863C20.1858 19.1844 20.0508 19.3678 19.8884 19.5278L23.0464 22.7336ZM24.2859 21.0522C24.6164 20.4125 24.8184 19.7683 24.9371 19.1174L20.5102 18.3099C20.4611 18.5788 20.3893 18.7905 20.2881 18.9864L24.2859 21.0522ZM24.9372 19.1173C25.0506 18.495 25.0818 17.8982 25.0954 17.4025L20.597 17.2792C20.5855 17.6995 20.5619 18.0266 20.5102 18.31L24.9372 19.1173ZM25.0954 17.4026C25.1018 17.1697 25.1043 16.9415 25.1057 16.7237L20.6057 16.6965C20.6045 16.8992 20.6022 17.0916 20.597 17.2791L25.0954 17.4026ZM25.1057 16.7243C25.1073 16.466 25.1072 16.2084 25.1072 15.9611H20.6072C20.6072 16.2132 20.6073 16.4549 20.6057 16.6959L25.1057 16.7243ZM22.8572 15.9611C25.1072 15.961 25.1072 15.961 25.1072 15.961C25.1072 15.9609 25.1072 15.9609 25.1072 15.9609C25.1072 15.9608 25.1072 15.9607 25.1072 15.9605C25.1072 15.9601 25.1072 15.9596 25.1072 15.959C25.1072 15.9576 25.1072 15.9556 25.1072 15.9529C25.1072 15.9476 25.1072 15.9397 25.1071 15.9294C25.1071 15.9087 25.1071 15.8785 25.1071 15.84C25.1071 15.7629 25.1071 15.6527 25.1071 15.5204C25.1071 15.2557 25.1071 14.9023 25.1071 14.5473C25.107 13.8373 25.107 13.121 25.107 13.0958H20.607C20.607 13.1212 20.607 13.8376 20.6071 14.5476C20.6071 14.9026 20.6071 15.256 20.6071 15.5207C20.6071 15.653 20.6071 15.7631 20.6071 15.8402C20.6071 15.8787 20.6071 15.909 20.6071 15.9296C20.6072 15.9399 20.6072 15.9478 20.6072 15.9532C20.6072 15.9558 20.6072 15.9579 20.6072 15.9592C20.6072 15.9599 20.6072 15.9604 20.6072 15.9607C20.6072 15.9609 20.6072 15.961 20.6072 15.9611C20.6072 15.9612 20.6072 15.9612 20.6072 15.9612C20.6072 15.9612 20.6072 15.9612 22.8572 15.9611ZM25.107 13.0958V10.9041H20.607V13.0958H25.107ZM25.107 10.9041C25.107 10.8855 25.107 10.1697 25.1071 9.45828C25.1071 9.10264 25.1071 8.74816 25.1071 8.4826C25.1071 8.34981 25.1071 8.23926 25.1071 8.1619C25.1071 8.12322 25.1071 8.09284 25.1071 8.07213C25.1072 8.06177 25.1072 8.05384 25.1072 8.04849C25.1072 8.04581 25.1072 8.04378 25.1072 8.04243C25.1072 8.04175 25.1072 8.04123 25.1072 8.04089C25.1072 8.04072 25.1072 8.04059 25.1072 8.04051C25.1072 8.04046 25.1072 8.04043 25.1072 8.04041C25.1072 8.04039 25.1072 8.04038 22.8572 8.04025C20.6072 8.04013 20.6072 8.04014 20.6072 8.04016C20.6072 8.04018 20.6072 8.04022 20.6072 8.04026C20.6072 8.04035 20.6072 8.04047 20.6072 8.04064C20.6072 8.04099 20.6072 8.0415 20.6072 8.04218C20.6072 8.04354 20.6072 8.04557 20.6072 8.04824C20.6072 8.05359 20.6072 8.06153 20.6071 8.07188C20.6071 8.09259 20.6071 8.12297 20.6071 8.16165C20.6071 8.23901 20.6071 8.34957 20.6071 8.48235C20.6071 8.74792 20.6071 9.10239 20.6071 9.45804C20.607 10.1693 20.607 10.8853 20.607 10.9041H25.107Z" fill="black" mask="url(#path-1-inside-1_25_1492)"/>
<path fill-rule="evenodd" clip-rule="evenodd" d="M9.41873 16.0959C9.25222 15.9351 9.25276 15.6682 9.41991 15.5081L12.7666 12.3026C12.9329 12.1434 12.9345 11.8782 12.7701 11.717L9.44763 8.4579C9.28377 8.29716 9.28481 8.0329 9.44995 7.87346L10.3634 6.99145C10.5215 6.83884 10.772 6.83889 10.93 6.99157L15.8208 11.7178C15.987 11.8783 15.9867 12.1447 15.8202 12.3048L10.93 17.0092C10.7719 17.1612 10.5219 17.161 10.3641 17.0087L9.41873 16.0959Z" fill="black"/>
<path fill-rule="evenodd" clip-rule="evenodd" d="M57.2756 5.0362C57.2756 3.94186 58.2003 3 59.3049 3C60.4352 3 61.3598 3.94186 61.3598 5.0362C61.3598 6.13053 60.4352 7.04695 59.3049 7.04695C58.2003 7.04695 57.2756 6.13053 57.2756 5.0362ZM33.9429 8.18943C33.9429 9.24069 34.1713 9.80304 36.787 10.5852L36.799 10.589C39.5342 11.4436 42.4372 12.3506 42.4372 15.8414C42.4372 19.044 39.8466 21 36.1701 21C34.3347 21 32.2443 20.2423 30.4762 18.4392C31.0007 17.7672 31.6955 16.875 32.4909 15.8525C33.7031 17.0203 34.7182 17.6995 36.2687 17.6995C38.3166 17.6995 39.0322 16.8438 39.0322 15.8904C39.0322 14.6191 37.8725 14.1301 35.3064 13.3966C32.6663 12.6389 30.6836 11.5388 30.6836 8.28727C30.6836 5.0602 33.495 3.20206 36.067 3.20206C37.8229 3.20206 39.5397 3.65514 41.0472 4.83604L39.1566 7.27214C38.0237 6.39473 37.177 6.18907 36.067 6.18907C34.9571 6.18907 33.9429 7.21143 33.9429 8.18943ZM64.9343 7.40895V8.43376H63.1752V11.4653H64.9516V20.6574H68.1347V11.4653H70.9052V8.43376H68.1172V7.40895C68.1172 6.08887 69.0794 6.06444 70.9052 6.16214V3.30187C66.4393 2.81295 64.9343 4.1086 64.9343 7.40895ZM79.7068 8.43382V11.4653H76.9188V16.5504C76.9188 17.8706 77.8809 17.8951 79.7068 17.7972V20.6575C75.2409 21.1466 73.7358 19.8508 73.7358 16.5504V11.4653H71.9268V8.43382H73.7358V4.5561L76.9188 3.20206V8.43382H79.7068ZM57.7265 20.6574H60.9094V8.43375H57.7265V20.6574ZM47.2555 9.08035C48.1167 8.47596 49.2836 8.09152 50.4944 8.09152C52.7843 8.09152 55.0118 9.90067 55.0118 13.1522V20.6574H51.8289V14.266C51.8289 12.2336 51.1798 11.0774 49.532 11.3143C48.4201 11.474 47.2555 12.7971 47.2555 14.9239V20.6574H44.0725V3.54437H47.2555V9.08035Z" fill="black"/>
</svg>
