<?xml version="1.0" encoding="utf-8"?>
<!-- Generator: Adobe Illustrator 24.3.0, SVG Export Plug-In . SVG Version: 6.00 Build 0)  -->
<svg version="1.1" id="Layer_1" xmlns="http://www.w3.org/2000/svg" xmlns:xlink="http://www.w3.org/1999/xlink" x="0px" y="0px"
	 viewBox="0 0 650 623.7" style="enable-background:new 0 0 650 623.7;" xml:space="preserve">
<style type="text/css">
	.st0{fill:#1B1B1B;}
</style>
<path class="st0" d="M595.1,65.8L352.5,3.3c-18.1-4.4-37-4.4-55.1,0L54.9,65.8C22.6,74.1,0,103.2,0,136.6v350.5
	c0,33.4,22.6,62.5,54.9,70.8l242.6,62.5c18.1,4.4,37,4.4,55.1,0L595.1,558c32.3-8.3,54.9-37.5,54.9-70.8V136.6
	C650,103.2,627.4,74.1,595.1,65.8z M631.3,487.1c0,24.8-16.8,46.5-40.8,52.6L348,602.2c-15.1,3.7-30.9,3.7-46,0L59.5,539.8
	c-24-6.2-40.8-27.8-40.8-52.6V136.6c0-24.8,16.8-46.5,40.8-52.6L302,21.5c15.1-3.7,30.9-3.7,46,0L590.5,84
	c24,6.2,40.8,27.8,40.8,52.6L631.3,487.1z"/>
<path class="st0" d="M221.1,266.3h70.4c1.3,0,2.4-0.9,2.8-2.1l1.5-5.6c0.4-1.5-0.4-3.1-2-3.6c-0.3-0.1-0.5-0.1-0.8-0.1h-59.7
	c-0.8,0-1.5-0.6-1.5-1.5c0,0,0,0,0,0v-62.2c0-0.8,0.7-1.5,1.5-1.5c0,0,0,0,0,0h75.9c1.4,0,2.5-0.9,2.8-2.3l1.2-5.6
	c0.3-1.6-0.7-3.1-2.2-3.4c-0.2,0-0.4-0.1-0.6-0.1h-77.1c-0.8,0-1.5-0.7-1.5-1.5c0,0,0,0,0,0V122c0-0.8,0.7-1.5,1.5-1.5l0,0h93.3
	c1.5,0,2.7-1,3-2.5l0.9-5.1c0.3-1.6-0.8-3.2-2.4-3.5c-0.2,0-0.4-0.1-0.6,0H221.1c-1.8,0-3.3,1.5-3.3,3.3c0,0,0,0,0,0V263
	C217.8,264.8,219.3,266.3,221.1,266.3z"/>
<path class="st0" d="M266.8,396.6v-0.2c0.1-6.2-3.1-12-8.5-15.3c-0.5-0.3-0.5-0.5-0.5-0.6c0-0.4,0.4-0.9,1.2-1.2
	c7-3.1,13.1-11.7,14.1-17.5c0.5-2.4,0.8-4.9,0.9-7.3c0-12.8-8.3-20.4-22.3-20.4h-28.6c-1.1-0.1-2.1,0.7-2.2,1.8c0,0,0,0.1,0,0.1
	l-17.3,90.8c-0.4,1.5-0.7,3.1-0.9,4.7c0,0.7,0.3,1.5,1.8,1.5h28.6c10.2,0,18.3-3,24.1-8.8C266.2,415.1,266.9,401.9,266.8,396.6z
	 M225,375c0-0.4,0.3-2.1,0.5-3.1l4.8-27.4c0.1-0.8,0.5-1.1,1.3-1.1h18.7c7.5,0,13,5.3,13,12.5c-0.1,1.4-0.2,2.7-0.6,4
	c-1.6,8.7-9.6,15.5-18.3,15.5h-18.8C225,375.5,225,375.4,225,375z M253.7,402.5c-0.1,1.9-0.3,3.8-0.7,5.7
	c-1.7,8.8-9.3,15.2-18.3,15.4h-18.8c-0.7,0-0.7-0.2-0.7-0.6c0.1-0.6,0.1-1.2,0.3-1.8c0.1-0.6,0.2-1.3,0.3-1.8L223,386
	c0.1-0.8,0.4-1.1,1.2-1.1h18.7C250.7,384.9,253.6,395.7,253.7,402.5L253.7,402.5z"/>
<path class="st0" d="M312.8,434.4c15.7,0,28-9.9,30.5-24.6l12.9-63.1l0,0c0.3-1.6,0.4-3.3,0.5-5c0-12.2-8.6-19.8-22.4-19.8h-4.6
	c-15.6,0-27.8,9.9-30.4,24.6l-12.9,63.1c-0.3,1.6-0.4,3.3-0.5,4.9c0,12.2,8.5,19.8,22.3,19.8L312.8,434.4z M314.3,425.1h-4.6
	c-7.3,0-12.6-5.3-12.6-12.5c0-0.9,0.1-1.8,0.3-2.7l12.9-63.1c1.6-8.7,9.1-15.1,18-15.2h4.6c7.4,0,12.8,5.2,12.8,12.4
	c0,0.9-0.1,1.8-0.3,2.7l-13,63.1C331,418,322.7,425.1,314.3,425.1L314.3,425.1z"/>
<path class="st0" d="M419.1,425.1l-9.5-41.2c-0.1-0.3-0.2-0.6-0.3-0.8c-0.3-0.7-0.5-1.4-0.7-2.1c0.4-1,0.9-1.9,1.6-2.7l31.1-45.9
	l0,0c0.3-0.4,0.5-0.8,0.5-1.3c0-0.7-0.5-1.5-1.8-1.5H432c-0.8,0-1.5,0.5-1.9,1.1l-25.4,39.7c-0.3,0.5-0.7,0.8-1.2,1
	c-0.1,0-0.3-0.1-0.6-0.9l-11.1-35.2c-0.2-0.7-0.9-1.2-1.6-1.2h-8.1c-1.4,0-2.4,0.8-2.4,2c0.1,0.6,0.2,1.2,0.5,1.7
	c0.1,0.3,0.2,0.5,0.3,0.8l12.8,39l0.2,0.4c0.4,0.9,0.6,1.7,0.8,2.6c-0.3,0.6-0.6,1.2-1,1.8L362.1,430c-0.4,0.5-0.6,1-0.7,1.6
	c0,0.7,0.5,1.3,1.9,1.3h8.3c0.8,0,1.5-0.5,1.9-1.1l25.7-40.3c0.4-0.7,0.9-1,1.1-1c0.4,0.1,0.7,0.4,0.7,0.8l7.8,40.3
	c0.2,0.8,0.9,1.3,1.6,1.2h8.3c1.1,0.1,2.1-0.6,2.2-1.7c0-0.1,0-0.1,0-0.2c-0.3-1.5-0.7-3-1.3-4.4L419.1,425.1z"/>
<path class="st0" d="M513.5,109.6h-52.9c-0.4,0-0.8,0.1-1.1,0.4c-0.8,0.8-0.8,2.8-0.7,15.8c0,6.6,0.1,15.6,0.1,28.5v150.7
	c-3.5-0.6-6.9-1.4-10.3-2.2c-11.3-2.7-22.4-6-33.4-9.9c-10.7-3.7-21.4-7.8-32.7-11l-0.2-0.1l-0.9-0.2h-0.1h-0.1
	c-2.1-0.6-4.2,0.7-4.8,2.8c-0.1,0.4-0.1,0.7-0.1,1.1c0,1,0.4,2,1.2,2.7l0,0c3.9,4.8,7.5,9.8,10.8,15.1c0.4,0.5,0.7,1.1,1,1.6
	c-1.5-0.5-3.1-0.9-4.6-1.4c-5.1-1.5-10.2-2.8-15.4-4.1c-1.8-0.5-3.6-0.9-5.4-1.4c-13.9-3.3-27.9-6-42-8s-28.3-3.6-42.5-4.3
	c-13.8-0.9-27.6-1-41.4-0.9h-0.3c-1.2,0,0.3,0-0.9,0c-0.3,0-0.6,0.1-0.9,0.1c-1,0.3-1.9,1-2.4,1.9c-0.1,0.2-0.2,0.4-0.2,0.5
	c-0.6,1.8,0.2,3.7,1.8,4.6c0.3,0.2,0.6,0.4,0.9,0.6c0.7,0.5,1.5,1,2.2,1.6c0.5,0.4,1,0.8,1.5,1.2s0.9,0.8,1.4,1.1
	c0.7,0.6,1.4,1.2,2.1,1.9l0.6,0.6c0.8,0.7,1.5,1.4,2.3,2.2l0.2,0.2c-2.7-0.2-5.5-0.5-8.2-0.6l-2-0.1c-2.2-0.1-4.4-0.2-6.6-0.3h-1.9
	c-5.6-0.1-11.1-0.1-16.7,0.1l-2,0.1c-2.1,0.1-4.1,0.2-6.2,0.3l-2.6,0.1c-2,0.1-4,0.3-6,0.4l-1.9,0.1c-2.6,0.2-5.3,0.5-7.9,0.8
	c-8.3,0.9-16.5,2.1-24.6,3.6c-1.1,0.2-2.1,0.4-3.2,0.6c-1.4,0.3-2.7,0.5-4,0.8c-4.5,0.9-9.1,1.9-13.6,3c-2.9,0.7-5.9,1.5-8.8,2.4
	c-0.7,0.2-1.5,0.5-2.2,0.7s-1.5,0.5-2.2,0.7s-1.5,0.5-2.3,0.9c-0.3,0.1-0.7,0.3-1,0.5l-0.2,0.1l-0.7,0.3c-0.4,0.3-0.8,0.5-1.2,0.9
	c-1.5,1.4-1.6,3.7-0.2,5.2c0.2,0.3,0.5,0.5,0.8,0.7c1.4,0.8,3.1,0.7,4.4-0.4c-0.1,0.1-0.1,0.2-0.2,0.2l0,0l0.2-0.1l0.1,0l0.3-0.1
	l0.5-0.2c0.4-0.1,0.8-0.3,1.3-0.4l0.7-0.2c1.3-0.4,2.7-0.8,4.1-1.1l0.5-0.1c2.7-0.7,5.3-1.3,8-1.8c5.7-1.2,11.5-2.1,17.3-3
	c2.9-0.4,5.7-0.8,8.6-1.1l2.6-0.3v75.4c0,18.1-13.5,31.7-31.5,31.7h-7.8c-17.5,0-31.7-14.2-31.7-31.7V150
	c0-19.2,11.9-31.2,30.9-31.2h14.1c10.4,0,19,4.4,26.2,13.5c3.5,5.3,5.3,11.6,5.3,18v72c0,2.6,2,4.7,4.6,4.9l5.2,0.4h0.4
	c2.7,0,4.9-2.2,5-4.9c0,0,0,0,0,0v-72.4c0.1-8.2-2.2-16.2-6.4-23.2c-0.1-0.6-0.3-1.1-0.7-1.5c-1.9-2.5-3.9-4.8-6.2-6.9
	c0,0-0.1-0.1-0.1-0.1c-1.5-1.4-3-2.7-4.6-3.9c-7.9-5.5-17.2-8.2-28.5-8.2h-14.2c-27.5,0-46,17.5-46,43.6v239.3
	c0,26.2,18.5,43.8,46,43.8h8.7c27,0,46.5-18.4,46.5-43.8v-76.8c2.9-0.2,5.8-0.3,8.6-0.5c9.3-0.4,18.5-0.4,27.8,0
	c13.9,0.6,27.8,2.3,41.4,5.1l0.5,0.1h0.1c1.8,0.3,3.7-0.1,5.1-1.1c0.4-0.2,0.7-0.5,1-0.8c2.4-2.5,2.5-6.4,0.3-9
	c-0.1-0.2-0.3-0.4-0.4-0.5c-0.6-0.5-1.1-1.1-1.7-1.6c-3.9-3.6-8-6.9-12.3-10l-0.3-0.2l-1.9-1.2c8.9,0.4,17.8,0.9,26.6,1.8
	c13.9,1.2,27.8,3.2,41.5,5.5s27.4,5.5,40.8,9.1c3,0.8,6,1.7,9,2.5l3.6,1.1c2.5,0.8,5,1.5,7.4,2.3l2,0.7c2.6,0.9,5.3,1.8,7.9,2.8
	l4.9,1.8l2.1,0.8l0.4,0.2l1.3,0.5c0.8,0.3,1.7,0.5,2.5,0.7c0.2,0,0.5,0.1,0.7,0.1c0.4,0,0.9,0,1.3,0c0.8-0.1,1.6-0.3,2.3-0.7
	l0.2-0.1c1-0.6,1.7-1.4,2.3-2.4c0.7-1.2,0.9-2.5,0.8-3.9c-0.1-0.8-0.4-1.6-0.8-2.3l0,0c-0.3-0.5-0.6-1-0.9-1.5
	c-1.6-2.6-3.3-4.9-5-7.1c-1.4-1.8-2.8-3.6-4.3-5.4c-0.6-0.8-1.3-1.6-1.9-2.3l-0.5-0.5l-1-1.1c5.4,2.3,10.9,4.7,16.4,7
	c11,4.7,22.3,8.8,33.8,12.3c4.5,1.3,9,2.5,13.5,3.6V430v0.2c0,0.1,1,2.9,3.3,2.9h8.4c1.9,0,3.4-1.4,3.4-3.3c0,0,0-0.1,0-0.1V321.5
	c2.3,0.4,4.6,0.8,6.9,1.2c11.8,1.7,23.7,2.8,35.6,3.2l26.9,104.8c0.4,1.4,1.6,2.3,3,2.4h9.8c1.1,0.1,2.2-0.3,2.9-1.2
	c0.6-1,0.6-2.1,0.1-3.1l-26.9-104.6c20.8-4.8,28.3-24.7,28.3-41.9V153.5C560.7,126.4,542.6,109.6,513.5,109.6z M474,123.5
	c0-1.1,0.9-2,2-2h37.5c19,0,31.7,12.5,31.7,31.2v126.8c0,9.5-2.7,16.8-8,21.9c-8.5,8.1-21.1,7.5-21.3,7.5c-5.2,0.6-15.2,0.9-34-0.5
	c-2.6-0.3-5.3-0.5-7.9-0.9L474,123.5z"/>
<path class="st0" d="M327.2,270.1h7.6c1.1,0.1,2.2-0.6,2.4-1.7l13.8-44.1c0.2-0.9,1.2-1.1,2.5-1.1h55.9c1.1-0.1,2.2,0.6,2.6,1.6
	l14.2,48c0.2,1.1,1.3,1.8,2.4,1.7h7.9c2.2,0,2.9-1.2,2.4-3.1l-46.2-163.1c-0.3-1.1-1.3-1.8-2.4-1.7h-17.7c-1.1-0.1-2.1,0.6-2.4,1.7
	L324.8,267C324.3,268.9,325,270.1,327.2,270.1z M353.9,210.6l25-89.5c0.4-1.4,1.9-2.2,3.3-1.8c0.9,0.3,1.6,0.9,1.8,1.8l24,89.5
	c0.5,1.7-0.2,3.1-2.4,3.1h-49.2C354.1,213.7,353.4,212.3,353.9,210.6z"/>
<path class="st0" d="M445.5,476.9c-11,0.1-20.3,8.3-21.6,19.3c-1.3,10.8,6,19.3,16.9,19.3c11-0.1,20.3-8.3,21.6-19.3
	C463.7,485.2,456.4,476.9,445.5,476.9z M454.7,496.1c-0.8,6.7-6.2,12-13,12s-11-5.3-10.2-12s6.2-12.1,13.1-12.1
	S455.6,489.4,454.7,496.1L454.7,496.1z"/>
<path class="st0" d="M213.6,476.9c-11,0.1-20.2,8.3-21.6,19.2c-1.3,10.8,6,19.3,16.9,19.3c11-0.1,20.3-8.3,21.6-19.3
	C231.8,485.2,224.5,476.9,213.6,476.9z M222.8,496.1c-0.9,6.7-6.2,12-13,12s-11-5.3-10.2-12s6.2-12.1,13-12.1
	S223.6,489.4,222.8,496.1L222.8,496.1z"/>
<path class="st0" d="M116.4,476.9c-10.6,0-20.6,8.4-21.6,19.2c-1.6,10.7,6.1,19.6,16.9,19.4c5,0,9.8-1.5,13.8-4.4
	c0.5-0.3,0.7-0.9,0.4-1.4c0,0-0.1-0.1-0.1-0.1l-3.2-4c-0.4-0.4-1-0.5-1.5-0.2c-2.5,1.7-5.5,2.5-8.5,2.5c-7,0-11-4.7-10.2-11.7
	c0.7-6.6,6.4-11.6,13-11.4c2.8-0.1,5.6,0.8,7.9,2.5c0.5,0.3,1.1,0.2,1.5-0.2l4.1-4c0.5-0.3,0.6-0.9,0.3-1.4c0-0.1-0.1-0.1-0.2-0.2
	C125.6,478.3,121,476.7,116.4,476.9z"/>
<path class="st0" d="M179,476.8h-5.5c-0.6,0-1.2,0.5-1.3,1.1l-1.6,13.3c-0.1,0.6-0.6,1.1-1.2,1.1h-15.8c-0.6,0-1-0.4-1-1
	c0,0,0-0.1,0-0.1l1.6-13.2c0.1-0.5-0.2-1-0.7-1.1c-0.1,0-0.1,0-0.2,0h-5.5c-0.6,0-1.2,0.5-1.3,1.1l-4.4,36.3c-0.1,0.5,0.2,1,0.7,1.1
	c0.1,0,0.2,0,0.3,0h5.5c0.6,0,1.2-0.5,1.3-1.1l1.7-13.7c0.1-0.6,0.6-1.1,1.2-1.1h15.7c0.6,0,1,0.4,1,1c0,0,0,0.1,0,0.1l-1.7,13.7
	c-0.1,0.5,0.2,1,0.7,1.1c0.1,0,0.2,0,0.3,0h5.5c0.6,0,1.2-0.5,1.3-1.1l4.4-36.4c0.1-0.5-0.2-1-0.7-1.1
	C179.1,476.8,179.1,476.8,179,476.8z"/>
<path class="st0" d="M263.3,476.9h-15.7c-0.6,0-1.2,0.5-1.3,1.1l-4.4,36.3c-0.1,0.5,0.2,1,0.7,1.1c0.1,0,0.2,0,0.3,0h5.5
	c0.6,0,1.2-0.5,1.3-1.1l1.7-13.7c0.1-0.6,0.6-1.1,1.2-1.1h8c8.9,0,13.9-3.8,14.9-11.5C276.3,480.5,272.3,476.8,263.3,476.9z
	 M268.4,488c-0.2,2.8-2.6,4.8-5.3,4.7h-9.7c-0.6,0-1-0.4-1-1c0,0,0-0.1,0-0.1l0.9-7c0.1-0.6,0.6-1.1,1.2-1.1h9.7
	C267.3,483.6,268.6,485.5,268.4,488L268.4,488z"/>
<path class="st0" d="M397.9,476.9c-10.6,0-20.6,8.4-21.6,19.2c-1.6,10.7,6.2,19.6,16.9,19.4c5,0,9.8-1.5,13.8-4.4
	c0.5-0.2,0.7-0.8,0.5-1.3c0-0.1-0.1-0.2-0.2-0.2l-3.1-4c-0.4-0.4-1-0.5-1.5-0.2c-2.5,1.7-5.5,2.5-8.5,2.5c-7,0-11-4.7-10.2-11.7
	c0.7-6.6,6.4-11.6,13-11.4c2.8-0.1,5.6,0.8,7.9,2.5c0.5,0.3,1.1,0.2,1.5-0.2l4.2-4c0.5-0.3,0.6-0.9,0.3-1.4c0-0.1-0.1-0.1-0.2-0.2
	C407.1,478.3,402.5,476.7,397.9,476.9z"/>
<path class="st0" d="M493.2,476.8h-13.7c-0.6,0-1.2,0.5-1.3,1.1l-4.4,36.4c-0.1,0.5,0.2,1,0.7,1.1c0.1,0,0.2,0,0.3,0h13.7
	c12,0,18.8-6.4,20.4-19.3C510.5,483.3,505.2,476.8,493.2,476.8z M501.2,496.1c-1,7.7-4.9,12-11.8,12.1h-6c-0.6,0-1-0.4-1-1
	c0,0,0-0.1,0-0.1l2.7-22c0.1-0.6,0.6-1.1,1.2-1.1h6C499.2,484,502.1,488.4,501.2,496.1z"/>
<path class="st0" d="M554.5,476.9h-26.1c-0.6,0-1.2,0.5-1.3,1.1l-4.4,36.3c-0.1,0.5,0.2,1,0.7,1.1c0.1,0,0.2,0,0.3,0h26
	c0.6,0,1.2-0.5,1.3-1.1l0.6-5c0.1-0.5-0.2-1-0.8-1.1c-0.1,0-0.1,0-0.2,0h-18.3c-0.6,0-1-0.4-1-1c0,0,0-0.1,0-0.1l0.8-6.5
	c0.1-0.6,0.6-1.1,1.2-1.1h13.2c0.6,0,1.2-0.5,1.3-1.1l0.6-4.9c0.1-0.5-0.2-1-0.8-1.1c-0.1,0-0.1,0-0.2,0h-13.2c-0.6,0-1-0.4-1-1
	c0,0,0-0.1,0-0.1l0.8-6c0.1-0.6,0.6-1.1,1.2-1.1h18.4c0.6,0,1.2-0.5,1.3-1.1l0.6-4.9c0.1-0.5-0.2-1-0.7-1.1
	C554.7,476.9,554.6,476.9,554.5,476.9z"/>
<path class="st0" d="M356.9,526.2c-0.2,0-0.5,0-0.7,0.1c-1.5,0.6-3,0.9-4.6,0.9c-2.5,0-4.8-0.8-4.8-6.2v-19.1c0-0.7,0.6-1.3,1.3-1.3
	c0,0,0,0,0,0h3.5c0.8,0,1.4-0.6,1.4-1.4v-5.8c0-0.8-0.6-1.4-1.4-1.4c0,0,0,0,0,0h-12.7c-0.8,0-1.4,0.6-1.4,1.4l0,0v17.1
	c0,11.2-9.2,17-18.3,17s-16-6.1-16-14.5c0-6.3,3.3-13.9,19-14.8c0.5,0,0.9-0.3,1.1-0.7c0.2-0.4,0.2-1,0-1.4l-13.5-26.2h31.4
	c0.9,0,1.6-0.7,1.6-1.6l0,0v-5.3c0-0.9-0.7-1.6-1.6-1.6h0H299c-0.8,0-1.5,0.7-1.5,1.5c0,0.2,0.1,0.5,0.2,0.7l13,25.1
	c0.3,0.6,0.3,1.3,0,1.9c-0.2,0.6-0.7,1-1.4,1.2c-10.1,2.6-16.2,10.6-16.2,21.4c0,14.9,12.9,22.9,25.1,22.9c9.2,0,16.1-3.5,20.7-10.3
	c0.3-0.4,0.7-0.7,1.2-0.7c0.7,0,1.3,0.5,1.4,1.2c0.8,4.3,2.6,9.3,9.2,9.3c3.2,0,5.2-0.5,7.3-2c0.2-0.1,0.3-0.4,0.3-0.6v-5.6
	C358.3,526.8,357.7,526.2,356.9,526.2C357,526.2,356.9,526.2,356.9,526.2z"/>
</svg>
