<svg width="25" height="24" viewBox="0 0 25 24" fill="none" xmlns="http://www.w3.org/2000/svg">
<path fill-rule="evenodd" clip-rule="evenodd" d="M4.96967 4.46967C5.26256 4.17678 5.73744 4.17678 6.03033 4.46967L12.5 10.9393L18.9697 4.46967C19.2626 4.17678 19.7374 4.17678 20.0303 4.46967C20.3232 4.76256 20.3232 5.23744 20.0303 5.53033L13.5607 12L20.0303 18.4697C20.3232 18.7626 20.3232 19.2374 20.0303 19.5303C19.7374 19.8232 19.2626 19.8232 18.9697 19.5303L12.5 13.0607L6.03033 19.5303C5.73744 19.8232 5.26256 19.8232 4.96967 19.5303C4.67678 19.2374 4.67678 18.7626 4.96967 18.4697L11.4393 12L4.96967 5.53033C4.67678 5.23744 4.67678 4.76256 4.96967 4.46967Z" fill="#141B34"/>
</svg>
