<?xml version="1.0" encoding="utf-8"?>
<!-- Generator: Adobe Illustrator 23.0.2, SVG Export Plug-In . SVG Version: 6.00 Build 0)  -->
<svg version="1.1" id="Layer_1" xmlns="http://www.w3.org/2000/svg" xmlns:xlink="http://www.w3.org/1999/xlink" x="0px" y="0px"
	 viewBox="0 0 850 850" style="enable-background:new 0 0 850 850;" xml:space="preserve">
<style type="text/css">
	.st0{clip-path:url(#SVGID_2_);}
	.st1{fill:#FEF9F1;}
	.st2{fill:none;stroke:#F4E3CC;stroke-width:4;stroke-miterlimit:10;}
</style>
<g>
	<defs>
		<path id="SVGID_1_" d="M-0.5,426v425.5h851V426C850.5,191,660,0.5,425,0.5C190,0.5-0.5,191-0.5,426z"/>
	</defs>
	<clipPath id="SVGID_2_">
		<use xlink:href="#SVGID_1_"  style="overflow:visible;"/>
	</clipPath>
	<g class="st0">
		<g>
			<g>
				<rect x="-1" class="st1" width="852" height="852"/>
				<path class="st2" d="M-0.5,947.5h913c0-119.01-11.81-161.47-65.04-209.23c-70.23-62.82-190.28-29.82-243.85-81.94
					c-48.28-46.97-23.57-161.73-75.73-212.48c-52.14-50.73-178.08-34.46-226.33-81.42c-53.58-52.13-4.55-136.53-67.71-228
					C197.91,82.43,128.97,60.5-0.5,60.5V947.5z"/>
			</g>
		</g>
	</g>
</g>
</svg>
