<?xml version="1.0" encoding="utf-8"?>
<!-- Generator: Adobe Illustrator 24.0.3, SVG Export Plug-In . SVG Version: 6.00 Build 0)  -->
<svg version="1.1" id="Layer_1" xmlns="http://www.w3.org/2000/svg" xmlns:xlink="http://www.w3.org/1999/xlink" x="0px" y="0px"
	 viewBox="0 0 802 701" style="enable-background:new 0 0 802 701;" xml:space="preserve">
<style type="text/css">
	.st0{fill-rule:evenodd;clip-rule:evenodd;fill:#759B4E;}
	.st1{filter:url(#Adobe_OpacityMaskFilter);}
	.st2{fill-rule:evenodd;clip-rule:evenodd;fill:#FFFFFF;}
	.st3{mask:url(#mask-2_1_);fill:none;stroke:#4D7523;stroke-width:4;}
</style>
<title>Global/Backgrounds/Arch-Green</title>
<g id="June-2021-">
	<g id="Global_x2F_Backgrounds_x2F_Arch-Green">
		<g id="Mask">
			<path id="path-1_1_" class="st0" d="M0,401.2V701h801.4V401.2C801.4,179.6,622,0,400.7,0C179.4,0,0,179.6,0,401.2z"/>
		</g>
		<defs>
			<filter id="Adobe_OpacityMaskFilter" filterUnits="userSpaceOnUse" x="44.8" y="43.4" width="599.8" height="657.8">
				<feColorMatrix  type="matrix" values="1 0 0 0 0  0 1 0 0 0  0 0 1 0 0  0 0 0 1 0"/>
			</filter>
		</defs>
		<mask maskUnits="userSpaceOnUse" x="44.8" y="43.4" width="599.8" height="657.8" id="mask-2_1_">
			<g class="st1">
				<path id="path-1_2_" class="st2" d="M0,401.2V701h801.4V401.2C801.4,179.6,622,0,400.7,0C179.4,0,0,179.6,0,401.2z"/>
			</g>
		</mask>
		<path id="Fill-18_2_" class="st3" d="M46.8,701c4.6-60.3,18.8-90,54.8-122.4c32-28.7,75.9-34.4,117.1-40
			c38.7-5.2,75.1-10.2,97.9-32.5c20.3-19.8,26.3-53,31.7-87.4l0.3-2.2c0.1-0.7,0.2-1.4,0.3-2.2c0.1-0.7,0.2-1.5,0.3-2.2l0.3-2.2
			c0.1-0.7,0.2-1.5,0.3-2.2l0.3-2.2c5.3-33.5,11.7-66.6,33.1-87.4c20.5-20,54.1-28,88.7-34.6l2.3-0.4c2.3-0.4,4.5-0.8,6.8-1.3l0,0
			l4.7-0.9c0.4-0.1,0.8-0.1,1.2-0.2l2.3-0.4c0.4-0.1,0.8-0.1,1.2-0.2l2.3-0.4c0.8-0.1,1.5-0.3,2.3-0.4l2.3-0.4
			c34.3-6.5,66.7-14.2,85.7-32.7c23.2-22.6,25.1-51.9,27.1-85.6c2.1-35.1,4.3-74.8,32.9-116.2"/>
	</g>
</g>
</svg>
