<?xml version="1.0" encoding="utf-8"?>
<!-- Generator: Adobe Illustrator 23.1.1, SVG Export Plug-In . SVG Version: 6.00 Build 0)  -->
<svg version="1.1" id="Layer_1" xmlns="http://www.w3.org/2000/svg" xmlns:xlink="http://www.w3.org/1999/xlink" x="0px" y="0px"
	 viewBox="0 0 440 244" style="enable-background:new 0 0 440 244;" xml:space="preserve">
<style type="text/css">
	.st0{fill:none;stroke:#F4E3CC;stroke-width:4;}
</style>
<path id="Path_1_" class="st0" d="M2,0v242c16.6-0.5,34-7.5,53.4-20.6c15.6-10.5,29-21.9,55.3-46c29.2-26.7,39.8-35.9,54.7-46.3
	c20.1-14.1,37.7-21.3,54.5-21.3c13.9,0,26.8,4.1,39.5,12.2c10.6,6.7,20.8,15.8,33.5,29.3c5.3,5.6,24,26.4,24,26.4
	c19.7,21.6,34.3,35,51.4,45.8c21,13.2,43.6,20.3,69.6,20.7V0"/>
</svg>
