<?xml version="1.0" encoding="UTF-8"?>
<svg width="256px" height="529px" viewBox="0 0 256 529" version="1.1" xmlns="http://www.w3.org/2000/svg" xmlns:xlink="http://www.w3.org/1999/xlink">
    <!-- Generator: Sketch 53 (72520) - https://sketchapp.com -->
    <title>Product/Landing Page Builder/Stop_background-greyBubbleLine-315px@2x</title>
    <desc>Created with Sketch.</desc>
    <g id="bounce-line-gray-thick" stroke="none" stroke-width="1" fill="none" fill-rule="evenodd">
        <g id="/product/landing-page-builder" transform="translate(-61.000000, -2304.000000)" stroke="#E7E6E6" stroke-width="4">
            <g id="Mini-Promo" transform="translate(0.000000, 2304.000000)">
                <g id="Product/Landing-Page-Builder/Stop_background-greyBubbleLine-1440px">
                    <path d="M-741,-67.6676798 C-741,-1.33623729 -650.637182,59.96753 -503.282545,96.2225445 L-495.389162,98.1646259 L-503.282545,100.106707 C-650.637182,136.361722 -741,197.665489 -741,263.996932 C-741,330.327523 -650.639372,391.631464 -503.282467,427.893312 L-495.389162,429.83571 L-503.282623,431.777475 C-650.631607,468.024823 -741,529.334031 -741,595.66768 C-741,703.561606 -504.670323,792 -213.003068,792 C78.6693709,792 315,703.561957 315,595.66768 C315,529.334031 224.631607,468.024823 77.2826229,431.777475 L69.3891622,429.83571 L77.2824669,427.893312 C224.639372,391.631464 315,330.327523 315,263.996932 C315,233.501422 296.050597,203.85611 259.961338,176.900404 C218.345333,145.816674 155.136274,119.261775 77.2825449,100.106707 L69.3891622,98.1646259 L77.2825449,96.2225445 C224.637182,59.96753 315,-1.33623729 315,-67.6676798 C315,-175.561957 78.6693709,-264 -213.003068,-264 C-504.670323,-264 -741,-175.561606 -741,-67.6676798 Z" id="Product/Landing-Page-Builder/Stop_background-greyBubbleLine-315px" transform="translate(-213.000000, 264.000000) scale(-1, 1) translate(213.000000, -264.000000) "></path>
                </g>
            </g>
        </g>
    </g>
</svg>