<?xml version="1.0" encoding="UTF-8"?>
<svg width="277px" height="380px" viewBox="0 0 277 380" version="1.1" xmlns="http://www.w3.org/2000/svg" xmlns:xlink="http://www.w3.org/1999/xlink">
    <!-- Generator: Sketch 52.6 (67491) - http://www.bohemiancoding.com/sketch -->
    <title>product-overview/no-limits_bkg@2x</title>
    <desc>Created with Sketch.</desc>
    <g id="bounce-tan" stroke="none" stroke-width="1" fill="none" fill-rule="evenodd">
        <g id="/product-overview" transform="translate(-1163.000000, -3207.000000)" stroke="#F4E3CC" stroke-width="4">
            <g id="Sub-Content-Left-" transform="translate(0.000000, 3119.000000)">
                <path d="M1165,159.100266 C1165,182.070045 1196.94047,203.739035 1249.24298,216.607501 L1257.13636,218.549583 L1249.24298,220.491664 C1196.94047,233.360131 1165,255.029121 1165,277.9989 C1165,300.968388 1196.93972,322.637458 1249.24306,335.508355 L1257.13636,337.450753 L1249.2429,339.392518 C1196.94242,352.258258 1165,373.929157 1165,396.899734 C1165,434.526124 1249.10613,466 1352.9989,466 C1456.89353,466 1541,434.526247 1541,396.899734 C1541,373.929157 1509.05758,352.258258 1456.7571,339.392518 L1448.86364,337.450753 L1456.75694,335.508355 C1509.06028,322.637458 1541,300.968388 1541,277.9989 C1541,267.529597 1534.42705,257.246571 1521.7844,247.803551 C1507.02104,236.776539 1484.51349,227.320844 1456.75702,220.491664 L1448.86364,218.549583 L1456.75702,216.607501 C1509.05953,203.739035 1541,182.070045 1541,159.100266 C1541,121.473753 1456.89353,90 1352.9989,90 C1249.10613,90 1165,121.473876 1165,159.100266 Z" id="product-overview/no-limits_bkg" transform="translate(1353.000000, 278.000000) scale(-1, 1) translate(-1353.000000, -278.000000) "></path>
            </g>
        </g>
    </g>
</svg>