<?xml version="1.0" encoding="utf-8"?>
<!-- Generator: Adobe Illustrator 24.0.1, SVG Export Plug-In . SVG Version: 6.00 Build 0)  -->
<svg version="1.1" id="Layer_1" xmlns="http://www.w3.org/2000/svg" xmlns:xlink="http://www.w3.org/1999/xlink" x="0px" y="0px"
	 viewBox="0 0 1638 808" style="enable-background:new 0 0 1638 808;" xml:space="preserve">
<style type="text/css">
	.st0{opacity:0.25;}
	.st1{fill:#D1C6F9;}
</style>
<g class="st0">
	<path class="st1" d="M762.5-713c102.4,0,201.7,20.1,295.2,59.6c44.9,19,88.3,42.5,128.8,69.9c40.2,27.1,77.9,58.3,112.3,92.6
		c34.3,34.3,65.5,72.1,92.6,112.3c27.4,40.5,50.9,83.9,69.9,128.8c39.6,93.5,59.6,192.8,59.6,295.2s-20.1,201.7-59.6,295.2
		c-19,44.9-42.5,88.3-69.9,128.8c-27.1,40.2-58.3,77.9-92.6,112.3c-34.3,34.3-72.1,65.5-112.3,92.6c-40.5,27.4-83.9,50.9-128.8,69.9
		C964.2,783.9,864.9,804,762.5,804s-201.7-20.1-295.2-59.6c-44.9-19-88.3-42.5-128.8-69.9c-40.2-27.1-77.9-58.3-112.3-92.6
		c-34.3-34.3-65.5-72.1-92.6-112.3c-27.4-40.5-50.9-83.9-69.9-128.8C24.1,247.2,4,147.9,4,45.5s20.1-201.7,59.6-295.2
		c19-44.9,42.5-88.3,69.9-128.8c27.1-40.2,58.3-77.9,92.6-112.3c34.3-34.3,72.1-65.5,112.3-92.6c40.5-27.4,83.9-50.9,128.8-69.9
		C560.8-692.9,660.1-713,762.5-713 M762.5-717C341.4-717,0-375.6,0,45.5S341.4,808,762.5,808S1525,466.6,1525,45.5
		S1183.6-717,762.5-717L762.5-717z"/>
</g>
</svg>
