<svg height="516" viewBox="0 0 503 516" width="503" xmlns="http://www.w3.org/2000/svg" xmlns:xlink="http://www.w3.org/1999/xlink"><defs><path id="a" d="m100 0h402v516h-502v-416c0-55.228475 44.771525-100 100-100z"/><mask id="b" fill="#fff"><use fill="#fff" fill-rule="evenodd" xlink:href="#a"/></mask></defs><g fill="none" fill-rule="evenodd" transform="translate(.288557)"><use fill="#d1c6f9" xlink:href="#a"/><path d="m-1136.4413 1907.84726h3041.99968c-.0704-216.15225-11.57727-346.48402-41.82546-448.43713-30.83692-103.93741-82.43547-181.53789-174.55046-266.59433-46.98458-43.26795-102.73575-75.27286-168.94724-99.04024-54.8676-19.69535-114.48842-33.24583-192.14655-45.40415-25.1065-3.93073-39.1975-5.92343-92.25623-13.22125-49.22766-6.77089-75.55074-10.65576-104.19896-15.65475-36.92726-6.44365-68.52654-13.41598-97.29628-21.758125-67.502054-19.573064-119.265524-46.846662-158.740818-86.38116-36.749415-36.802231-62.720934-87.057191-82.079189-153.573738-8.189303-28.139118-15.205288-59.103731-21.880778-95.360423-5.104167-27.722346-8.931296-51.67956-16.429604-101.226916-2.279016-15.059295-2.550471-16.850702-3.487421-22.995465-14.155494-92.835351-24.421051-145.444959-40.721401-197.951983-20.892649-67.299832-48.964753-119.376352-88.073374-158.542473-39.216969-39.271903-92.759279-68.780958-162.869285-92.3317111-54.597312-18.3398619-109.298359-30.9026438-207.20624-49.6144452-3.64974-.6975252-7.458371-1.4235875-12.025479-2.2928341-2.743635-.5221896-12.839815-2.4423944-12.019085-2.2862696-50.941749-9.6904943-76.504204-14.7576362-105.423863-21.1428752-37.6692816-8.31708884-69.8048379-16.67298627-98.9044933-25.9775641-68.7138888-21.9711784-120.0314963-49.2644389-156.6549757-85.9405704-40.235909-40.2934983-65.155054-87.7688173-79.794147-147.0057133-6.27935-25.409308-10.7231-53.023271-14.045837-85.326499-2.571005-24.994983-4.118312-47.328738-6.680573-91.971072-3.222081-56.138376-4.61042-76.945167-7.550337-107.143093-3.967272-40.750598-9.378618-77.373411-17.091865-112.940478-18.576917-85.661255-50.370638-163.453477-100.962062-238.868138-119.375938-177.941154-348.753816-252.784614-778.137673-253.016074z" mask="url(#b)" stroke="#fff" stroke-width="4" transform="matrix(-.70710678 .70710678 .70710678 .70710678 382.940444 -158.619125)"/></g></svg>