<?xml version="1.0" encoding="UTF-8"?>
<svg width="1440px" height="528px" viewBox="0 0 1440 528" version="1.1" xmlns="http://www.w3.org/2000/svg" xmlns:xlink="http://www.w3.org/1999/xlink">
    <!-- Generator: Sketch 53 (72520) - https://sketchapp.com -->
    <title>Product/Landing Page Builder/AB-testing_background-tanArch-1440px@2x</title>
    <desc>Created with Sketch.</desc>
    <defs>
        <path d="M0.711442786,528 C215.613203,528 455.613203,528 720.711443,528 C985.809683,528 1225.80968,528 1440.71144,528 C1440.71144,382.195968 1118.3588,-2.27373675e-13 720.711443,-2.27373675e-13 C323.064083,-2.27373675e-13 0.711442786,382.195968 0.711442786,528 Z" id="path-1"></path>
    </defs>
    <g id="semicircle-sand" stroke="none" stroke-width="1" fill="none" fill-rule="evenodd">
        <g id="/product/landing-page-builder" transform="translate(0.000000, -3135.000000)">
            <g id="Split-Test" transform="translate(-1.000000, 2836.000000)">
                <g id="Image" transform="translate(0.000000, 280.000000)">
                    <g id="Product/Landing-Page-Builder/AB-testing_background-tanArch-1440px" transform="translate(0.000000, 19.000000)">
                        <mask id="mask-2" fill="white">
                            <use xlink:href="#path-1"></use>
                        </mask>
                        <use id="Path-Copy" fill="#FEF9F1" xlink:href="#path-1"></use>
                        <path d="M-710,1920 L2331.99969,1920 C2331.92928,1703.84775 2320.42241,1573.51598 2290.17422,1471.56288 C2259.3373,1367.62547 2207.73875,1290.02498 2115.62376,1204.96854 C2068.63918,1161.70059 2012.88801,1129.69568 1946.67652,1105.92831 C1891.80893,1086.23295 1832.1881,1072.68247 1754.52997,1060.52415 C1729.42348,1056.59342 1715.33248,1054.60073 1662.27374,1047.30291 C1613.04608,1040.53202 1586.72301,1036.64714 1558.07479,1031.64815 C1521.14752,1025.20451 1489.54824,1018.23217 1460.7785,1009.89003 C1393.27645,990.316966 1341.51298,963.043368 1302.03768,923.50887 C1265.28827,886.706639 1239.31675,836.451679 1219.9585,769.935132 C1211.76919,741.796013 1204.75321,710.8314 1198.07772,674.574709 C1192.97355,646.852363 1189.14642,622.895149 1181.64811,573.347792 C1179.3691,558.288498 1179.09764,556.49709 1178.16069,550.352328 C1164.0052,457.516977 1153.73964,404.907368 1137.43929,352.400345 C1116.54664,285.100513 1088.47454,233.023993 1049.36592,193.857871 C1010.14895,154.585969 956.606638,125.076914 886.496632,101.52616 C831.89932,83.1862985 777.198273,70.6235166 679.290392,51.9117152 C675.640652,51.21419 671.83202,50.4881277 667.264913,49.6188811 C664.521278,49.0966915 654.425098,47.1764867 655.245827,47.3326115 C604.304079,37.6421172 578.741624,32.5749753 549.821965,26.1897363 C512.152683,17.8726475 480.017127,9.51675004 450.917471,0.212172238 C382.203583,-21.7590062 330.885975,-49.0522667 294.262495,-85.7283982 C254.026587,-126.021896 229.107442,-173.497215 214.468349,-232.734112 C208.188998,-258.14342 203.745249,-285.757383 200.422512,-318.060611 C197.851507,-343.055594 196.3042,-365.389349 193.741938,-410.031682 C190.519858,-466.170058 189.131519,-486.976849 186.191602,-517.174775 C182.22433,-557.925373 176.812983,-594.548186 169.099736,-630.115253 C150.52282,-715.776508 118.729099,-793.568731 68.1376749,-868.983392 C-51.2382638,-1046.92455 -280.616142,-1121.76801 -710,-1121.99946 L-710,1920 Z" id="Path" stroke="#FFFFFF" stroke-width="4" mask="url(#mask-2)" transform="translate(811.000000, 399.000000) scale(-1, 1) rotate(45.000000) translate(-811.000000, -399.000000) "></path>
                    </g>
                </g>
            </g>
        </g>
    </g>
</svg>