<svg xmlns="http://www.w3.org/2000/svg" xmlns:xlink="http://www.w3.org/1999/xlink" viewBox="0 0 1053.86 656"><defs><style>.cls-1,.cls-4{fill:#f4e3cc;}.cls-1,.cls-2{clip-rule:evenodd;}.cls-2,.cls-3,.cls-8{fill:none;}.cls-4{fill-rule:evenodd;}.cls-5{clip-path:url(#clip-path);}.cls-6{clip-path:url(#clip-path-2);}.cls-7{clip-path:url(#clip-path-3);}.cls-8{stroke:#fef9f1;stroke-miterlimit:10;stroke-width:8px;}</style><clipPath id="clip-path" transform="translate(0 -7)"><path class="cls-1" d="M256,7A812,812,0,0,0,0,48.13V663H1053.86C980.71,289.12,651.3,7,256,7Z"/></clipPath><clipPath id="clip-path-2" transform="translate(0 -7)"><polygon class="cls-2" points="587.34 40 587.34 258.67 368.67 258.67 368.67 477.33 150 477.33 150 696 368.67 696 587.34 696 806 696 806 40 587.34 40"/></clipPath><clipPath id="clip-path-3" transform="translate(0 -7)"><rect class="cls-3" x="110" width="736" height="736"/></clipPath></defs><title>Asset 1</title><g id="Layer_2" data-name="Layer 2"><g id="Layer_1-2" data-name="Layer 1"><path class="cls-4" d="M256,7A812,812,0,0,0,0,48.13V663H1053.86C980.71,289.12,651.3,7,256,7Z" transform="translate(0 -7)"/><g class="cls-5"><g class="cls-6"><g class="cls-7"><polygon class="cls-8" points="587.34 33 587.34 251.67 368.67 251.67 368.67 470.33 150 470.33 150 689 368.67 689 587.34 689 806 689 806 33 587.34 33"/></g></g></g></g></g></svg>