<svg height="1639" viewBox="0 0 1315 1639" width="1315" xmlns="http://www.w3.org/2000/svg"><path d="m1150.30424 303.964692 155.07794-61.914709c51.29163-20.478128 76.2709-78.659008 55.79277-129.950632-10.1644-25.4588043-30.33441-45.6287047-55.79327-55.7929695l-554.807805-221.5029995c-23.805528-9.504185-50.351747-9.504132-74.157237.000148l-554.798249 221.501747c-51.2916526 20.4780578-76.2710064 78.658903-55.7929486 129.950556 10.1643833 25.45886 30.3344134 45.628811 55.7933136 55.793094l155.082484 61.915568c51.291733 20.477856 76.271316 78.658604 55.793459 129.950336-10.164333 25.459028-30.334432 45.629126-55.793459 55.79346l-155.081156 61.915038c-51.2917325 20.477856-76.2713151 78.658603-55.793459 129.950336 10.1643338 25.459027 30.3344322 45.629126 55.793459 55.793459l155.085639 61.916829c51.291733 20.477856 76.271316 78.658603 55.79346 129.950336-10.164163 25.458599-30.333763 45.628466-55.792227 55.792967l-155.093916 61.922524c-51.2914611 20.47853-76.2702714 78.65961-55.7917345 129.95107 10.1644501 25.45834 30.33417 45.62787 55.7926015 55.79208l554.802733 221.50354c23.80549 9.50428 50.351709 9.50433 74.157237.00015l554.812295-221.50479c51.29173-20.47785 76.27132-78.6586 55.79346-129.95033-10.16409-25.45843-30.33349-45.62821-55.79173-55.79278l-155.08938-61.921661c-51.29135-20.478808-76.26985-78.66002-55.79105-129.951372 10.1645-25.458068 30.33408-45.627377 55.79228-55.791538l155.08424-61.917221c51.29162-20.478128 76.2709-78.659008 55.79277-129.950632-10.16433-25.458631-30.33414-45.628438-55.79277-55.792771l-155.07975-61.915431c-51.29163-20.478128-76.2709-78.659007-55.79277-129.950632 10.16433-25.458631 30.33414-45.628438 55.79277-55.79277z" fill="none" stroke="#f4e3cc" stroke-width="4" transform="translate(-56 175)"/></svg>