<?xml version="1.0" encoding="UTF-8"?>
<svg width="220px" height="588px" viewBox="0 0 220 588" version="1.1" xmlns="http://www.w3.org/2000/svg" xmlns:xlink="http://www.w3.org/1999/xlink">
    <!-- Generator: Sketch 60.1 (88133) - https://sketch.com -->
    <title>Path</title>
    <desc>Created with Sketch.</desc>
    <g id="Page-1" stroke="none" stroke-width="1" fill="none" fill-rule="evenodd">
        <g id="/brand-" transform="translate(-954.000000, 0.000000)" stroke="#E0E0E0" stroke-width="4">
            <g id="Hero-Tertiary">
                <path d="M952.007489,-94.9999994 C952.343538,-50.2149624 963.983378,-11.7484682 985.934355,23.4809623 C1003.63004,51.8810191 1025.88993,75.9501009 1060.89351,107.346941 C1063.33998,109.541336 1095.78911,138.11485 1104.72299,146.352585 C1126.35852,166.302236 1140.98503,182.39634 1151.73743,199.222619 C1164.55317,219.277781 1171.11616,239.687568 1171.11616,262.01247 C1171.11616,289.111464 1159.35686,317.594414 1136.51779,350.225647 C1126.96531,363.873714 1115.53569,378.201572 1101.2985,394.646598 C1090.82536,406.743867 1084.60255,413.623925 1061.03409,439.399989 C1021.73419,482.381014 1003.09663,504.326862 985.895765,529.867108 C964.054378,562.297711 952.547911,591.27227 952.019097,619 L1665.98092,619 C1665.45208,591.272277 1653.94539,562.297723 1632.1036,529.867122 C1614.90241,504.326876 1596.26449,482.381028 1556.96385,439.400003 C1533.39494,413.623939 1527.172,406.743881 1516.69867,394.646612 C1502.46121,378.201586 1491.03137,363.873728 1481.47871,350.225662 C1458.63921,317.594426 1446.87969,289.111473 1446.87969,262.01247 C1446.87969,239.533974 1453.53333,218.793883 1466.51307,198.255429 C1477.40431,181.021707 1492.22501,164.42215 1514.06579,143.852374 C1523.18055,135.268043 1557.18665,104.663915 1557.09149,104.750778 C1592.36539,72.5523232 1614.41254,48.5970949 1632.06975,20.5395314 C1654.01557,-14.3327016 1665.64396,-51.8378956 1665.99195,-94.9999995 L952.007468,-95 Z" id="Path"></path>
            </g>
        </g>
    </g>
</svg>