<svg height="746" viewBox="0 0 1154 746" width="1154" xmlns="http://www.w3.org/2000/svg"><path d="m1380.30424 93.9646917c-25.45863 10.1643323-45.62844 30.3341393-55.79277 55.7927703-20.47813 51.291625 4.50114 109.472504 55.79277 129.950632l155.07975 61.915431c25.45863 10.164333 45.62844 30.33414 55.79277 55.792771 20.47813 51.291624-4.50115 109.472504-55.79277 129.950632l-155.08424 61.917221c-25.4582 10.164161-45.62778 30.33347-55.79228 55.791538-20.4788 51.291352 4.4997 109.472564 55.79105 129.951372l155.08938 61.921661c25.45824 10.164568 45.62764 30.334345 55.79173 55.792775 20.47786 51.291734-4.50173 109.472485-55.79346 129.950335l-554.812295 221.50479c-23.805528 9.50418-50.351747 9.50413-74.157237-.00015l-554.802733-221.50354c-25.458432-10.16421-45.628151-30.333741-55.792602-55.792078-20.478536-51.291461 4.500274-109.47254 55.791735-129.951077l155.093916-61.922519c25.458464-10.164501 45.628064-30.334368 55.792227-55.792967 20.477856-51.291733-4.501727-109.47248-55.79346-129.950336l-155.085639-61.916829c-25.459027-10.164333-45.629125-30.334432-55.793459-55.793459-20.477856-51.291733 4.501726-109.47248 55.793459-129.950336l155.081156-61.915038c25.459027-10.164334 45.629126-30.334432 55.793459-55.79346 20.477857-51.291732-4.501726-109.47248-55.793459-129.9503358l-155.082484-61.9155684c-25.4589-10.1642831-45.62893-30.33423388-55.793314-55.7930941-20.478057-51.2916523 4.501296-109.4724977 55.792949-129.9505557l554.798249-221.501747c23.80549-9.50428 50.351709-9.504333 74.157237-.000148l554.807805 221.502999c25.45886 10.164265 45.62887 30.334166 55.79327 55.7929697 20.47813 51.2916243-4.50114 109.472504-55.79277 129.9506319z" fill="none" stroke="#e7e6e6" stroke-width="4" transform="translate(-286)"/></svg>