<?xml version="1.0" encoding="utf-8"?>
<!-- Generator: Adobe Illustrator 23.0.2, SVG Export Plug-In . SVG Version: 6.00 Build 0)  -->
<svg version="1.1" id="Layer_1" xmlns="http://www.w3.org/2000/svg" xmlns:xlink="http://www.w3.org/1999/xlink" x="0px" y="0px"
	 viewBox="0 0 1562 531" style="enable-background:new 0 0 1562 531;" xml:space="preserve">
<style type="text/css">
	.st0{fill:none;stroke:#F4E3CC;stroke-width:4;stroke-miterlimit:10;}
</style>
<path class="st0" d="M407,531c0-1.53,0.37-3.12,0.46-4.64c2.61-41.94-21.6-82.64-62.76-99.07l-155.09-61.92
	c-25.46-10.16-45.63-30.33-55.79-55.79c-20.48-51.29,4.5-109.47,55.79-129.95l155.08-61.91c25.46-10.16,45.63-30.33,55.79-55.79
	c7.91-19.82,9.04-40.66,4.48-59.96L405,0"/>
<path class="st0" d="M1158.53-0.11c0,2.52-1.17,4.89-1.61,7.34c-8.24,45.78,16.5,92.56,61.38,110.48l155.08,61.92
	c25.46,10.16,45.63,30.33,55.79,55.79c20.48,51.29-4.5,109.47-55.79,129.95l-155.08,61.92c-25.46,10.16-45.63,30.33-55.79,55.79
	c-5.81,14.56-7.96,29.68-6.89,44.34c0.09,1.17,0.32,2.33,0.32,3.5"/>
</svg>
