<?xml version="1.0" encoding="utf-8"?>
<!-- Generator: Adobe Illustrator 23.0.3, SVG Export Plug-In . SVG Version: 6.00 Build 0)  -->
<svg version="1.1" id="Layer_1" xmlns="http://www.w3.org/2000/svg" xmlns:xlink="http://www.w3.org/1999/xlink" x="0px" y="0px"
	 viewBox="0 0 1708 453" style="enable-background:new 0 0 1708 453;" xml:space="preserve">
<style type="text/css">
	.st0{fill:none;stroke:#DFAE78;stroke-width:4;stroke-miterlimit:10;}
</style>
<path class="st0" d="M355,0c0,3,5.2,7.2,9.1,11.5c16.1,18,25.8,41.9,25.5,68.1c-0.4,27.4-12,53.5-32.1,72.1L241.6,258.8
	c-40.5,37.5-43,100.8-5.5,141.3c18.6,20.1,44.7,31.7,72.1,32.1l157.8,2.1c18.7,0.2,36.1,5.6,51,14.8c1.6,1,4,1.9,4,3.9"/>
<path class="st0" d="M1585,453c0-1.5,0.3-3.2,1-4.5c21.1-36.9,16.9-84.7-13.4-117.5c-18.6-20.1-44.7-31.7-72.1-32.1l-157.8-2.1
	c-55.2-0.7-99.4-46.1-98.7-101.3c0.4-27.4,12-53.5,32.1-72.1L1392,16.2c4.8-4.4,11-9.2,11-16.2"/>
</svg>
