<svg xmlns="http://www.w3.org/2000/svg" xmlns:xlink="http://www.w3.org/1999/xlink" width="797" height="809" viewBox="0 0 797 809">
  <defs>
    <path id="left@2x-a" d="M-5.68434189e-13,360 L-5.68434189e-13,629 L720,629 L720,360 C720,161.177513 558.822487,0 360,0 C161.179175,0 -5.68434189e-13,161.177513 -5.68434189e-13,360 Z"/>
  </defs>
  <g fill="none" fill-rule="evenodd">
    <mask id="left@2x-b" fill="#fff">
      <use xlink:href="#left@2x-a"/>
    </mask>
    <use fill="#F4E3CC" transform="matrix(-1 0 0 1 720 0)" xlink:href="#left@2x-a"/>
    <path stroke="#FEF9F1" stroke-width="4" d="M741,-85 L741,661 L-5,661 L-5,415.002286 L244.999429,415.002286 L244.999429,165.001143 L494.999714,165.001143 L494.999714,-85 L741,-85 Z" mask="url(#left@2x-b)" transform="matrix(-1 0 0 1 736 0)"/>
    <path stroke="#F65B1C" stroke-width="4" d="M482,361 C518.726932,361 551.976932,375.886534 576.045199,399.954801 C600.113466,424.023068 615,457.273068 615,494 L615,494 L615,627 L349,627 L349,494 C349,457.273145 363.886627,424.023209 387.954882,399.954954 C412.023237,375.886599 445.273298,361 482,361 Z" transform="matrix(1 0 0 -1 0 988)"/>
    <path fill="#43E0F0" d="M797,449 L617,449 C617,498.532565 671.931627,507.072483 671.931627,539.003126 C671.931627,567.767904 617,597.924912 617,629 L797,629 C797,597.924912 742.067331,567.767904 742.067331,539.003126 C742.067331,507.072483 797,496.789151 797,449" transform="matrix(-1 0 0 1 1414 0)"/>
    <path stroke="#603EFF" stroke-width="4" d="M751,631 C762.874341,631 773.624257,635.812896 781.405628,643.594267 C789.187141,651.375781 794,662.125871 794,674 C794,685.874129 789.187141,696.624219 781.405628,704.405733 C773.624257,712.187104 762.874341,717 751,717 C739.126301,717 728.376222,712.186907 720.594605,704.40529 C712.81313,696.623815 708,685.873911 708,674 C708,662.126089 712.81313,651.376185 720.594605,643.59471 C728.376222,635.813093 739.126301,631 751,631 L751,631 Z" transform="matrix(-1 0 0 1 1502 0)"/>
    <path fill="#FFDCEE" d="M347,809 L167,809 C167,784.849732 169.329068,776.231707 179.822903,766.540337 C193.668095,753.791497 217.337058,760.488963 227.898628,749.911822 C237.417067,740.379891 232.546344,717.092467 242.829676,706.793563 C253.109882,696.498828 277.937648,699.801188 287.451919,690.271341 C298.015573,679.693159 288.349158,662.564444 300.801077,644.003908 C307.88207,633.449693 321.474035,629 347,629 L347,809 Z"/>
    <path fill="#DFAE78" d="M756.374163,404 C780.842545,399.61923 797,392.078644 797,383.508379 C797,369.972568 756.705361,359 706.99964,359 C657.293919,359 617,369.972568 617,383.508379 C617,392.078644 633.157455,399.61923 657.625117,404 C633.157455,408.38077 617,415.922198 617,424.491621 C617,438.027432 657.293919,449 706.99964,449 C756.705361,449 797,438.027432 797,424.491621 C797,415.922198 780.842545,408.38077 756.374163,404" transform="matrix(-1 0 0 1 1414 0)"/>
    <polygon fill="#B27E52" points="392 269 437 314 392 359 347 314"/>
  </g>
</svg>
