<svg xmlns="http://www.w3.org/2000/svg" xmlns:xlink="http://www.w3.org/1999/xlink" width="1242" height="803" viewBox="0 0 1242 803">
  <defs>
    <path id="homepage-hero-variant-shapes-right-a" d="M0,712.5 L711.298232,712.5 C711.298232,712.5 731.143064,0.5 559.773487,0.5 C363.352943,0.5 0,712.5 0,712.5 Z"/>
  </defs>
  <g fill="none" fill-rule="evenodd">
    <mask id="homepage-hero-variant-shapes-right-b" fill="#fff">
      <use xlink:href="#homepage-hero-variant-shapes-right-a"/>
    </mask>
    <use fill="#FEF9F1" xlink:href="#homepage-hero-variant-shapes-right-a"/>
    <path stroke="#FFF" stroke-width="4" d="M1751.99189,-950 C2138.31791,-950 2488.07274,-891.420122 2741.24386,-796.681016 C2870.04528,-748.482267 2973.82875,-690.938095 3044.63866,-626.967206 C3112.45071,-565.704646 3150,-498.570299 3150,-428.103305 C3150,-338.715844 3089.61262,-254.725954 2983.66391,-181.286119 C2873.16799,-104.694322 2713.09717,-39.613436 2519.56844,8.00221346 C2516.91073,8.65611489 2514.25708,9.30417079 2511.64803,9.95203003 C2514.28412,10.5910227 2516.92427,11.2358066 2519.56844,11.8863763 C2724.88644,62.4026493 2892.54669,132.574335 3003.29646,215.295295 C3097.0352,285.310417 3150,364.287006 3150,447.991895 C3150,537.378502 3089.61377,621.367644 2983.66695,694.808887 C2873.17092,771.4036 2713.0989,836.489305 2519.56836,884.113643 C2516.91062,884.767664 2514.25695,885.415839 2511.64312,886.062593 C2514.28087,886.701866 2516.92268,887.346938 2519.56852,887.997806 C2713.0927,935.604096 2873.16055,1000.6832 2983.65618,1077.2748 C3089.60969,1150.71796 3150,1234.71366 3150,1324.10331 C3150,1394.5703 3112.45071,1461.70465 3044.63866,1522.96721 C2973.82875,1586.9381 2870.04528,1644.48227 2741.24386,1692.68102 C2488.07274,1787.42012 2138.31791,1846 1751.99189,1846 C1365.67308,1846 1015.92157,1787.41985 762.752336,1692.68035 C633.952315,1644.48157 530.169713,1586.9374 459.360352,1522.96653 C391.549013,1461.70415 354,1394.57004 354,1324.10331 C354,1234.71366 414.390308,1150.71796 520.343821,1077.2748 C630.839454,1000.6832 790.907298,935.604096 984.431482,887.997806 C987.089132,887.344033 989.742721,886.696106 992.357294,886.049599 C989.719463,885.410077 987.077563,884.764757 984.431638,884.113643 C790.901097,836.489305 630.829084,771.4036 520.333048,694.808887 C414.386229,621.367644 354,537.378502 354,447.991895 C354,358.604434 414.387384,274.614543 520.336093,201.174709 C630.832012,124.582911 790.902834,59.5020258 984.43156,11.8863763 C987.089272,11.2324749 989.742924,10.584419 992.357142,9.93781236 C989.719335,9.29841018 987.07746,8.65320866 984.43156,8.00221346 C790.902834,-39.613436 630.832012,-104.694322 520.336093,-181.286119 C414.387384,-254.725954 354,-338.715844 354,-428.103305 C354,-498.570041 391.549013,-565.704154 459.360352,-626.966533 C530.169713,-690.937397 633.952315,-748.481568 762.752336,-796.680352 C1015.92157,-891.419847 1365.67308,-950 1751.99189,-950 L1751.99189,-950 Z" mask="url(#homepage-hero-variant-shapes-right-b)"/>
    <polygon fill="#FFDCEE" points="535 713 445 758.001 535 803 625 758.001"/>
    <path fill="#43E0F0" d="M445,668 C445,692.85296 485.29408,713 535,713 C584.70592,713 625,692.85296 625,668 C625,643.14704 584.70592,623 535,623 C485.29408,623 445,643.14704 445,668 Z"/>
    <path fill="#DFAE78" d="M625,623 L445,623 C445,598.849732 447.329068,590.231707 457.822903,580.540337 C471.668095,567.791497 495.337058,574.488963 505.898628,563.911822 C515.417067,554.379891 510.546344,531.092467 520.829676,520.793563 C531.109882,510.498828 555.937648,513.801188 565.451919,504.271341 C576.015573,493.693159 566.349158,476.564444 578.801077,458.003908 C585.88207,447.449693 599.474035,443 625,443 L625,623 Z"/>
    <path stroke="#F65B1C" stroke-width="4" d="M580,355 C591.874121,355 602.624121,359.81294 610.405591,367.594409 C618.18706,375.375879 623,386.125879 623,398 L623,398 L623,441 L537,441 L537,398 C537,386.125904 541.812971,375.375926 549.594436,367.594461 C557.375934,359.812962 568.125953,355 580,355 Z" transform="matrix(-1 0 0 1 1160 0)"/>
    <polygon fill="#759B4E" points="976 623 805 713 1147 713"/>
    <path stroke="#603EFF" stroke-width="4" d="M1107,445 C1143.72693,445 1176.97693,459.886534 1201.0452,483.954801 C1225.11347,508.023068 1240,541.273068 1240,578 L1240,578 L1240,711 L974,711 L974,578 C974,541.273145 988.886627,508.023209 1012.95488,483.954954 C1037.02324,459.886599 1070.2733,445 1107,445 Z"/>
    <polygon fill="#B27E52" points="1107 354 1152 399 1107 444 1062 399"/>
    <path stroke="#B27E52" stroke-width="4" d="M800.908816,447 C799.334099,481.235035 777.640662,501.623411 757.453451,519.777356 L756.193907,520.909173 C755.774844,521.285546 755.356629,521.661054 754.939459,522.035802 C735.566363,539.438857 718.600996,555.419719 718.600996,578.004689 C718.600996,599.924413 738.621175,622.602021 759.655732,645.597856 C760.035884,646.013454 760.416385,646.429165 760.797085,646.84499 L761.93964,648.09281 C762.511069,648.716893 763.082616,649.341239 763.653782,649.965851 L764.795455,651.215435 L764.795455,651.215435 L765.935221,652.465742 C782.823226,671.017382 798.788881,689.811245 800.789592,709 L800.789592,709 L539.210404,709 C541.121159,690.673656 555.769547,672.7075 571.793898,654.968545 L572.927166,653.716759 C573.684005,652.882484 574.443298,652.048706 575.203862,651.21541 L576.345514,649.965825 C576.726284,649.549417 577.107223,649.133127 577.488184,648.716954 L578.630985,647.468786 C579.20227,646.844876 579.773271,646.221225 580.343489,645.597829 C601.377638,622.602003 621.397441,599.924409 621.397441,578.004689 C621.397441,555.60688 604.751937,540.227055 585.569593,523.357241 C564.544585,504.866906 540.682637,484.300977 539.084871,447 L539.084871,447 Z" transform="rotate(90 670 578)"/>
  </g>
</svg>
